<svg width="740" height="330" viewBox="0 0 740 330" fill="none" xmlns="http://www.w3.org/2000/svg">
<rect width="740" height="330" fill="#F1F0F4"/>
<line x1="370" y1="213.5" x2="33" y2="213.5" stroke="#5A6770"/>
<path d="M707.354 213.854C707.549 213.658 707.549 213.342 707.354 213.146L704.172 209.964C703.976 209.769 703.66 209.769 703.464 209.964C703.269 210.16 703.269 210.476 703.464 210.672L706.293 213.5L703.464 216.328C703.269 216.524 703.269 216.84 703.464 217.036C703.66 217.231 703.976 217.231 704.172 217.036L707.354 213.854ZM707 213L370 213V214L707 214V213Z" fill="#5A6770"/>
<rect x="310.5" y="35.5" width="119" height="27" rx="2.5" fill="#B8972C" fill-opacity="0.4" stroke="#5A6770"/>
<path d="M324.808 52.304C325.312 52.304 325.696 52.208 325.96 52.016C326.224 51.824 326.356 51.536 326.356 51.152C326.356 50.92 326.308 50.724 326.212 50.564C326.116 50.396 325.988 50.252 325.828 50.132C325.668 50.004 325.488 49.896 325.288 49.808C325.088 49.712 324.884 49.624 324.676 49.544C324.436 49.448 324.204 49.34 323.98 49.22C323.764 49.1 323.568 48.96 323.392 48.8C323.224 48.64 323.088 48.452 322.984 48.236C322.888 48.02 322.84 47.764 322.84 47.468C322.84 46.82 323.044 46.316 323.452 45.956C323.86 45.588 324.428 45.404 325.156 45.404C325.356 45.404 325.552 45.42 325.744 45.452C325.944 45.476 326.128 45.508 326.296 45.548C326.464 45.588 326.612 45.636 326.74 45.692C326.876 45.748 326.984 45.804 327.064 45.86L326.752 46.688C326.592 46.592 326.372 46.496 326.092 46.4C325.812 46.304 325.5 46.256 325.156 46.256C324.796 46.256 324.484 46.348 324.22 46.532C323.956 46.708 323.824 46.976 323.824 47.336C323.824 47.544 323.86 47.72 323.932 47.864C324.012 48.008 324.116 48.136 324.244 48.248C324.38 48.352 324.536 48.448 324.712 48.536C324.888 48.624 325.08 48.712 325.288 48.8C325.592 48.928 325.868 49.056 326.116 49.184C326.372 49.312 326.588 49.464 326.764 49.64C326.948 49.816 327.088 50.024 327.184 50.264C327.288 50.504 327.34 50.796 327.34 51.14C327.34 51.788 327.12 52.288 326.68 52.64C326.248 52.984 325.624 53.156 324.808 53.156C324.544 53.156 324.296 53.136 324.064 53.096C323.832 53.064 323.624 53.02 323.44 52.964C323.264 52.908 323.108 52.852 322.972 52.796C322.836 52.74 322.732 52.688 322.66 52.64L322.96 51.824C323.12 51.912 323.356 52.016 323.668 52.136C323.98 52.248 324.36 52.304 324.808 52.304ZM328.588 50.228C328.588 49.724 328.668 49.288 328.828 48.92C328.988 48.552 329.208 48.248 329.488 48.008C329.768 47.768 330.092 47.592 330.46 47.48C330.836 47.36 331.236 47.3 331.66 47.3C331.932 47.3 332.2 47.32 332.464 47.36C332.736 47.392 333.024 47.456 333.328 47.552L333.1 48.404C332.836 48.308 332.592 48.248 332.368 48.224C332.152 48.192 331.932 48.176 331.708 48.176C331.42 48.176 331.148 48.216 330.892 48.296C330.636 48.368 330.412 48.488 330.22 48.656C330.036 48.816 329.888 49.028 329.776 49.292C329.664 49.548 329.608 49.86 329.608 50.228C329.608 50.58 329.66 50.884 329.764 51.14C329.868 51.388 330.012 51.596 330.196 51.764C330.388 51.924 330.616 52.044 330.88 52.124C331.144 52.204 331.436 52.244 331.756 52.244C332.012 52.244 332.256 52.232 332.488 52.208C332.728 52.176 332.988 52.112 333.268 52.016L333.412 52.844C333.132 52.948 332.848 53.02 332.56 53.06C332.272 53.108 331.96 53.132 331.624 53.132C331.176 53.132 330.764 53.072 330.388 52.952C330.02 52.824 329.7 52.64 329.428 52.4C329.164 52.16 328.956 51.86 328.804 51.5C328.66 51.132 328.588 50.708 328.588 50.228ZM334.852 53V44.852L335.848 44.684V47.516C336.008 47.452 336.188 47.404 336.388 47.372C336.588 47.332 336.784 47.312 336.976 47.312C337.4 47.312 337.752 47.376 338.032 47.504C338.32 47.624 338.548 47.796 338.716 48.02C338.884 48.244 339.004 48.512 339.076 48.824C339.148 49.136 339.184 49.48 339.184 49.856V53H338.2V50.072C338.2 49.384 338.104 48.9 337.912 48.62C337.72 48.332 337.376 48.188 336.88 48.188C336.672 48.188 336.468 48.212 336.268 48.26C336.076 48.3 335.936 48.34 335.848 48.38V53H334.852ZM343.108 47.3C343.86 47.3 344.44 47.536 344.848 48.008C345.256 48.472 345.46 49.18 345.46 50.132V50.48H341.476C341.516 51.056 341.704 51.496 342.04 51.8C342.384 52.096 342.864 52.244 343.48 52.244C343.832 52.244 344.132 52.216 344.38 52.16C344.628 52.104 344.816 52.044 344.944 51.98L345.076 52.82C344.956 52.884 344.74 52.952 344.428 53.024C344.116 53.096 343.764 53.132 343.372 53.132C342.892 53.132 342.468 53.06 342.1 52.916C341.74 52.764 341.44 52.56 341.2 52.304C340.96 52.048 340.78 51.744 340.66 51.392C340.54 51.032 340.48 50.644 340.48 50.228C340.48 49.732 340.556 49.3 340.708 48.932C340.86 48.564 341.06 48.26 341.308 48.02C341.556 47.78 341.836 47.6 342.148 47.48C342.46 47.36 342.78 47.3 343.108 47.3ZM344.452 49.676C344.452 49.204 344.328 48.832 344.08 48.56C343.832 48.28 343.504 48.14 343.096 48.14C342.864 48.14 342.652 48.184 342.46 48.272C342.276 48.36 342.116 48.476 341.98 48.62C341.844 48.764 341.736 48.928 341.656 49.112C341.576 49.296 341.524 49.484 341.5 49.676H344.452ZM350.152 48.608C350.04 48.504 349.876 48.408 349.66 48.32C349.444 48.224 349.22 48.176 348.988 48.176C348.724 48.176 348.496 48.228 348.304 48.332C348.12 48.436 347.968 48.58 347.848 48.764C347.728 48.94 347.64 49.156 347.584 49.412C347.528 49.66 347.5 49.928 347.5 50.216C347.5 50.864 347.652 51.364 347.956 51.716C348.26 52.068 348.656 52.244 349.144 52.244C349.392 52.244 349.6 52.232 349.768 52.208C349.944 52.184 350.072 52.16 350.152 52.136V48.608ZM350.152 44.852L351.148 44.684V52.844C350.932 52.908 350.656 52.972 350.32 53.036C349.984 53.1 349.592 53.132 349.144 53.132C348.744 53.132 348.38 53.064 348.052 52.928C347.724 52.792 347.444 52.6 347.212 52.352C346.98 52.096 346.8 51.788 346.672 51.428C346.544 51.068 346.48 50.664 346.48 50.216C346.48 49.784 346.532 49.392 346.636 49.04C346.748 48.68 346.908 48.372 347.116 48.116C347.324 47.86 347.572 47.66 347.86 47.516C348.156 47.372 348.492 47.3 348.868 47.3C349.164 47.3 349.424 47.336 349.648 47.408C349.872 47.48 350.04 47.556 350.152 47.636V44.852ZM357.148 52.844C356.932 52.9 356.644 52.96 356.284 53.024C355.932 53.088 355.516 53.12 355.036 53.12C354.612 53.12 354.26 53.06 353.98 52.94C353.7 52.812 353.472 52.636 353.296 52.412C353.12 52.18 352.996 51.908 352.924 51.596C352.852 51.284 352.816 50.94 352.816 50.564V47.432H353.8V50.348C353.8 51.036 353.9 51.524 354.1 51.812C354.308 52.1 354.652 52.244 355.132 52.244C355.236 52.244 355.34 52.24 355.444 52.232C355.556 52.224 355.66 52.216 355.756 52.208C355.852 52.192 355.936 52.18 356.008 52.172C356.08 52.156 356.128 52.144 356.152 52.136V47.432H357.148V52.844ZM362.056 53.132C361.704 53.132 361.412 53.084 361.18 52.988C360.948 52.892 360.764 52.748 360.628 52.556C360.492 52.364 360.396 52.128 360.34 51.848C360.284 51.56 360.256 51.228 360.256 50.852V45.584H358.648V44.744H361.24V50.852C361.24 51.132 361.256 51.36 361.288 51.536C361.328 51.712 361.384 51.856 361.456 51.968C361.536 52.072 361.632 52.144 361.744 52.184C361.856 52.224 361.988 52.244 362.14 52.244C362.372 52.244 362.588 52.216 362.788 52.16C362.988 52.104 363.144 52.044 363.256 51.98L363.4 52.82C363.352 52.844 363.284 52.876 363.196 52.916C363.108 52.948 363.004 52.98 362.884 53.012C362.764 53.044 362.632 53.072 362.488 53.096C362.352 53.12 362.208 53.132 362.056 53.132ZM367.108 47.3C367.86 47.3 368.44 47.536 368.848 48.008C369.256 48.472 369.46 49.18 369.46 50.132V50.48H365.476C365.516 51.056 365.704 51.496 366.04 51.8C366.384 52.096 366.864 52.244 367.48 52.244C367.832 52.244 368.132 52.216 368.38 52.16C368.628 52.104 368.816 52.044 368.944 51.98L369.076 52.82C368.956 52.884 368.74 52.952 368.428 53.024C368.116 53.096 367.764 53.132 367.372 53.132C366.892 53.132 366.468 53.06 366.1 52.916C365.74 52.764 365.44 52.56 365.2 52.304C364.96 52.048 364.78 51.744 364.66 51.392C364.54 51.032 364.48 50.644 364.48 50.228C364.48 49.732 364.556 49.3 364.708 48.932C364.86 48.564 365.06 48.26 365.308 48.02C365.556 47.78 365.836 47.6 366.148 47.48C366.46 47.36 366.78 47.3 367.108 47.3ZM368.452 49.676C368.452 49.204 368.328 48.832 368.08 48.56C367.832 48.28 367.504 48.14 367.096 48.14C366.864 48.14 366.652 48.184 366.46 48.272C366.276 48.36 366.116 48.476 365.98 48.62C365.844 48.764 365.736 48.928 365.656 49.112C365.576 49.296 365.524 49.484 365.5 49.676H368.452ZM374.152 48.608C374.04 48.504 373.876 48.408 373.66 48.32C373.444 48.224 373.22 48.176 372.988 48.176C372.724 48.176 372.496 48.228 372.304 48.332C372.12 48.436 371.968 48.58 371.848 48.764C371.728 48.94 371.64 49.156 371.584 49.412C371.528 49.66 371.5 49.928 371.5 50.216C371.5 50.864 371.652 51.364 371.956 51.716C372.26 52.068 372.656 52.244 373.144 52.244C373.392 52.244 373.6 52.232 373.768 52.208C373.944 52.184 374.072 52.16 374.152 52.136V48.608ZM374.152 44.852L375.148 44.684V52.844C374.932 52.908 374.656 52.972 374.32 53.036C373.984 53.1 373.592 53.132 373.144 53.132C372.744 53.132 372.38 53.064 372.052 52.928C371.724 52.792 371.444 52.6 371.212 52.352C370.98 52.096 370.8 51.788 370.672 51.428C370.544 51.068 370.48 50.664 370.48 50.216C370.48 49.784 370.532 49.392 370.636 49.04C370.748 48.68 370.908 48.372 371.116 48.116C371.324 47.86 371.572 47.66 371.86 47.516C372.156 47.372 372.492 47.3 372.868 47.3C373.164 47.3 373.424 47.336 373.648 47.408C373.872 47.48 374.04 47.556 374.152 47.636V44.852ZM383.284 53V47.732C384.1 47.452 384.924 47.312 385.756 47.312C386.012 47.312 386.256 47.324 386.488 47.348C386.72 47.364 386.976 47.404 387.256 47.468L387.076 48.344C386.82 48.272 386.592 48.228 386.392 48.212C386.2 48.188 385.988 48.176 385.756 48.176C385.268 48.176 384.772 48.244 384.268 48.38V53H383.284ZM391.108 47.3C391.86 47.3 392.44 47.536 392.848 48.008C393.256 48.472 393.46 49.18 393.46 50.132V50.48H389.476C389.516 51.056 389.704 51.496 390.04 51.8C390.384 52.096 390.864 52.244 391.48 52.244C391.832 52.244 392.132 52.216 392.38 52.16C392.628 52.104 392.816 52.044 392.944 51.98L393.076 52.82C392.956 52.884 392.74 52.952 392.428 53.024C392.116 53.096 391.764 53.132 391.372 53.132C390.892 53.132 390.468 53.06 390.1 52.916C389.74 52.764 389.44 52.56 389.2 52.304C388.96 52.048 388.78 51.744 388.66 51.392C388.54 51.032 388.48 50.644 388.48 50.228C388.48 49.732 388.556 49.3 388.708 48.932C388.86 48.564 389.06 48.26 389.308 48.02C389.556 47.78 389.836 47.6 390.148 47.48C390.46 47.36 390.78 47.3 391.108 47.3ZM392.452 49.676C392.452 49.204 392.328 48.832 392.08 48.56C391.832 48.28 391.504 48.14 391.096 48.14C390.864 48.14 390.652 48.184 390.46 48.272C390.276 48.36 390.116 48.476 389.98 48.62C389.844 48.764 389.736 48.928 389.656 49.112C389.576 49.296 389.524 49.484 389.5 49.676H392.452ZM395.932 53V48.26H394.756V47.432H395.932V46.928C395.932 46.496 395.992 46.14 396.112 45.86C396.232 45.572 396.388 45.34 396.58 45.164C396.78 44.988 397.008 44.864 397.264 44.792C397.528 44.72 397.804 44.684 398.092 44.684C398.38 44.684 398.668 44.716 398.956 44.78C399.252 44.844 399.528 44.92 399.784 45.008L399.604 45.86C399.428 45.772 399.208 45.696 398.944 45.632C398.68 45.568 398.412 45.536 398.14 45.536C397.972 45.536 397.812 45.56 397.66 45.608C397.516 45.648 397.388 45.724 397.276 45.836C397.164 45.94 397.076 46.084 397.012 46.268C396.948 46.444 396.916 46.668 396.916 46.94V47.432H399.16V48.26H396.916V53H395.932ZM402.508 46.568C402.3 46.568 402.12 46.496 401.968 46.352C401.816 46.208 401.74 46.012 401.74 45.764C401.74 45.516 401.816 45.32 401.968 45.176C402.12 45.032 402.3 44.96 402.508 44.96C402.724 44.96 402.904 45.032 403.048 45.176C403.2 45.32 403.276 45.516 403.276 45.764C403.276 46.012 403.2 46.208 403.048 46.352C402.904 46.496 402.724 46.568 402.508 46.568ZM402.256 48.26H400.648V47.432H403.24V50.852C403.24 51.404 403.316 51.776 403.468 51.968C403.62 52.152 403.848 52.244 404.152 52.244C404.384 52.244 404.596 52.216 404.788 52.16C404.988 52.104 405.144 52.044 405.256 51.98L405.4 52.82C405.352 52.844 405.284 52.876 405.196 52.916C405.108 52.948 405.004 52.98 404.884 53.012C404.772 53.044 404.644 53.072 404.5 53.096C404.364 53.12 404.22 53.132 404.068 53.132C403.716 53.132 403.424 53.084 403.192 52.988C402.96 52.892 402.772 52.748 402.628 52.556C402.492 52.364 402.396 52.128 402.34 51.848C402.284 51.56 402.256 51.228 402.256 50.852V48.26ZM410.056 53.132C409.704 53.132 409.412 53.084 409.18 52.988C408.948 52.892 408.764 52.748 408.628 52.556C408.492 52.364 408.396 52.128 408.34 51.848C408.284 51.56 408.256 51.228 408.256 50.852V45.584H406.648V44.744H409.24V50.852C409.24 51.132 409.256 51.36 409.288 51.536C409.328 51.712 409.384 51.856 409.456 51.968C409.536 52.072 409.632 52.144 409.744 52.184C409.856 52.224 409.988 52.244 410.14 52.244C410.372 52.244 410.588 52.216 410.788 52.16C410.988 52.104 411.144 52.044 411.256 51.98L411.4 52.82C411.352 52.844 411.284 52.876 411.196 52.916C411.108 52.948 411.004 52.98 410.884 53.012C410.764 53.044 410.632 53.072 410.488 53.096C410.352 53.12 410.208 53.132 410.056 53.132ZM416.056 53.132C415.704 53.132 415.412 53.084 415.18 52.988C414.948 52.892 414.764 52.748 414.628 52.556C414.492 52.364 414.396 52.128 414.34 51.848C414.284 51.56 414.256 51.228 414.256 50.852V45.584H412.648V44.744H415.24V50.852C415.24 51.132 415.256 51.36 415.288 51.536C415.328 51.712 415.384 51.856 415.456 51.968C415.536 52.072 415.632 52.144 415.744 52.184C415.856 52.224 415.988 52.244 416.14 52.244C416.372 52.244 416.588 52.216 416.788 52.16C416.988 52.104 417.144 52.044 417.256 51.98L417.4 52.82C417.352 52.844 417.284 52.876 417.196 52.916C417.108 52.948 417.004 52.98 416.884 53.012C416.764 53.044 416.632 53.072 416.488 53.096C416.352 53.12 416.208 53.132 416.056 53.132Z" fill="black"/>
<path d="M369.646 88.3536C369.842 88.5488 370.158 88.5488 370.354 88.3536L373.536 85.1716C373.731 84.9763 373.731 84.6597 373.536 84.4645C373.34 84.2692 373.024 84.2692 372.828 84.4645L370 87.2929L367.172 84.4645C366.976 84.2692 366.66 84.2692 366.464 84.4645C366.269 84.6597 366.269 84.9763 366.464 85.1716L369.646 88.3536ZM369.5 63V88H370.5V63H369.5Z" fill="#5A6770"/>
<rect x="125.5" y="193.5" width="59" height="39" rx="2.5" fill="#C4C4C4" stroke="#5A6770"/>
<path d="M139.172 211.84C139.172 212.296 139.052 212.7 138.812 213.052C138.572 213.396 138.248 213.664 137.84 213.856C137.96 214.048 138.092 214.268 138.236 214.516C138.388 214.756 138.54 215.016 138.692 215.296C138.844 215.568 138.992 215.852 139.136 216.148C139.288 216.436 139.428 216.72 139.556 217H138.5C138.26 216.424 137.996 215.872 137.708 215.344C137.428 214.816 137.156 214.388 136.892 214.06C136.844 214.068 136.772 214.072 136.676 214.072C136.588 214.072 136.528 214.072 136.496 214.072H135.656V217H134.66V209.68C134.78 209.648 134.916 209.62 135.068 209.596C135.228 209.572 135.388 209.556 135.548 209.548C135.716 209.532 135.88 209.52 136.04 209.512C136.2 209.504 136.344 209.5 136.472 209.5C137.368 209.5 138.04 209.696 138.488 210.088C138.944 210.48 139.172 211.064 139.172 211.84ZM136.556 210.352C136.372 210.352 136.192 210.356 136.016 210.364C135.848 210.364 135.728 210.372 135.656 210.388V213.256H136.292C136.58 213.256 136.836 213.236 137.06 213.196C137.292 213.156 137.488 213.084 137.648 212.98C137.816 212.868 137.944 212.72 138.032 212.536C138.12 212.344 138.164 212.096 138.164 211.792C138.164 211.504 138.12 211.268 138.032 211.084C137.944 210.9 137.828 210.756 137.684 210.652C137.54 210.54 137.368 210.464 137.168 210.424C136.976 210.376 136.772 210.352 136.556 210.352ZM143.108 211.3C143.86 211.3 144.44 211.536 144.848 212.008C145.256 212.472 145.46 213.18 145.46 214.132V214.48H141.476C141.516 215.056 141.704 215.496 142.04 215.8C142.384 216.096 142.864 216.244 143.48 216.244C143.832 216.244 144.132 216.216 144.38 216.16C144.628 216.104 144.816 216.044 144.944 215.98L145.076 216.82C144.956 216.884 144.74 216.952 144.428 217.024C144.116 217.096 143.764 217.132 143.372 217.132C142.892 217.132 142.468 217.06 142.1 216.916C141.74 216.764 141.44 216.56 141.2 216.304C140.96 216.048 140.78 215.744 140.66 215.392C140.54 215.032 140.48 214.644 140.48 214.228C140.48 213.732 140.556 213.3 140.708 212.932C140.86 212.564 141.06 212.26 141.308 212.02C141.556 211.78 141.836 211.6 142.148 211.48C142.46 211.36 142.78 211.3 143.108 211.3ZM144.452 213.676C144.452 213.204 144.328 212.832 144.08 212.56C143.832 212.28 143.504 212.14 143.096 212.14C142.864 212.14 142.652 212.184 142.46 212.272C142.276 212.36 142.116 212.476 141.98 212.62C141.844 212.764 141.736 212.928 141.656 213.112C141.576 213.296 141.524 213.484 141.5 213.676H144.452ZM147.5 214.228C147.5 214.516 147.528 214.784 147.584 215.032C147.648 215.272 147.74 215.484 147.86 215.668C147.98 215.844 148.132 215.984 148.316 216.088C148.508 216.192 148.736 216.244 149 216.244C149.232 216.244 149.456 216.2 149.672 216.112C149.888 216.024 150.052 215.928 150.164 215.824V212.308C150.076 212.276 149.952 212.248 149.792 212.224C149.64 212.2 149.428 212.188 149.156 212.188C148.668 212.188 148.268 212.368 147.956 212.728C147.652 213.08 147.5 213.58 147.5 214.228ZM146.48 214.228C146.48 213.78 146.544 213.376 146.672 213.016C146.8 212.656 146.98 212.352 147.212 212.104C147.444 211.848 147.724 211.652 148.052 211.516C148.388 211.38 148.756 211.312 149.156 211.312C149.588 211.312 149.968 211.348 150.296 211.42C150.632 211.484 150.916 211.548 151.148 211.612V218.98H150.152V216.784C150.032 216.864 149.86 216.94 149.636 217.012C149.412 217.092 149.16 217.132 148.88 217.132C148.504 217.132 148.168 217.06 147.872 216.916C147.576 216.772 147.324 216.572 147.116 216.316C146.916 216.06 146.76 215.756 146.648 215.404C146.536 215.044 146.48 214.652 146.48 214.228ZM157.148 216.844C156.932 216.9 156.644 216.96 156.284 217.024C155.932 217.088 155.516 217.12 155.036 217.12C154.612 217.12 154.26 217.06 153.98 216.94C153.7 216.812 153.472 216.636 153.296 216.412C153.12 216.18 152.996 215.908 152.924 215.596C152.852 215.284 152.816 214.94 152.816 214.564V211.432H153.8V214.348C153.8 215.036 153.9 215.524 154.1 215.812C154.308 216.1 154.652 216.244 155.132 216.244C155.236 216.244 155.34 216.24 155.444 216.232C155.556 216.224 155.66 216.216 155.756 216.208C155.852 216.192 155.936 216.18 156.008 216.172C156.08 216.156 156.128 216.144 156.152 216.136V211.432H157.148V216.844ZM161.108 211.3C161.86 211.3 162.44 211.536 162.848 212.008C163.256 212.472 163.46 213.18 163.46 214.132V214.48H159.476C159.516 215.056 159.704 215.496 160.04 215.8C160.384 216.096 160.864 216.244 161.48 216.244C161.832 216.244 162.132 216.216 162.38 216.16C162.628 216.104 162.816 216.044 162.944 215.98L163.076 216.82C162.956 216.884 162.74 216.952 162.428 217.024C162.116 217.096 161.764 217.132 161.372 217.132C160.892 217.132 160.468 217.06 160.1 216.916C159.74 216.764 159.44 216.56 159.2 216.304C158.96 216.048 158.78 215.744 158.66 215.392C158.54 215.032 158.48 214.644 158.48 214.228C158.48 213.732 158.556 213.3 158.708 212.932C158.86 212.564 159.06 212.26 159.308 212.02C159.556 211.78 159.836 211.6 160.148 211.48C160.46 211.36 160.78 211.3 161.108 211.3ZM162.452 213.676C162.452 213.204 162.328 212.832 162.08 212.56C161.832 212.28 161.504 212.14 161.096 212.14C160.864 212.14 160.652 212.184 160.46 212.272C160.276 212.36 160.116 212.476 159.98 212.62C159.844 212.764 159.736 212.928 159.656 213.112C159.576 213.296 159.524 213.484 159.5 213.676H162.452ZM168.212 215.608C168.212 215.408 168.128 215.244 167.96 215.116C167.8 214.988 167.596 214.876 167.348 214.78C167.108 214.684 166.844 214.592 166.556 214.504C166.268 214.408 166 214.292 165.752 214.156C165.512 214.02 165.308 213.852 165.14 213.652C164.98 213.452 164.9 213.192 164.9 212.872C164.9 212.424 165.08 212.052 165.44 211.756C165.808 211.452 166.38 211.3 167.156 211.3C167.46 211.3 167.772 211.324 168.092 211.372C168.42 211.412 168.7 211.468 168.932 211.54L168.752 212.428C168.688 212.396 168.6 212.364 168.488 212.332C168.376 212.292 168.248 212.26 168.104 212.236C167.96 212.204 167.804 212.18 167.636 212.164C167.476 212.148 167.32 212.14 167.168 212.14C166.304 212.14 165.872 212.376 165.872 212.848C165.872 213.016 165.952 213.16 166.112 213.28C166.28 213.392 166.488 213.496 166.736 213.592C166.984 213.688 167.252 213.788 167.54 213.892C167.828 213.988 168.096 214.108 168.344 214.252C168.592 214.396 168.796 214.572 168.956 214.78C169.124 214.98 169.208 215.236 169.208 215.548C169.208 216.052 169.012 216.444 168.62 216.724C168.228 216.996 167.608 217.132 166.76 217.132C166.376 217.132 166.024 217.1 165.704 217.036C165.384 216.972 165.08 216.876 164.792 216.748L164.984 215.848C165.264 215.976 165.556 216.084 165.86 216.172C166.172 216.252 166.504 216.292 166.856 216.292C167.76 216.292 168.212 216.064 168.212 215.608ZM172.916 211.432H175.268V212.26H172.916V214.852C172.916 215.132 172.936 215.36 172.976 215.536C173.016 215.712 173.08 215.856 173.168 215.968C173.264 216.072 173.384 216.144 173.528 216.184C173.672 216.224 173.848 216.244 174.056 216.244C174.344 216.244 174.576 216.22 174.752 216.172C174.928 216.124 175.096 216.06 175.256 215.98L175.4 216.82C175.288 216.868 175.108 216.932 174.86 217.012C174.62 217.092 174.32 217.132 173.96 217.132C173.544 217.132 173.204 217.084 172.94 216.988C172.676 216.892 172.468 216.748 172.316 216.556C172.172 216.364 172.072 216.128 172.016 215.848C171.96 215.56 171.932 215.228 171.932 214.852V212.26H170.756V211.432H171.932V209.872L172.916 209.704V211.432Z" fill="black"/>
<rect x="195.5" y="193.5" width="59" height="39" rx="2.5" fill="#C4C4C4" stroke="#5A6770"/>
<path d="M209.172 211.84C209.172 212.296 209.052 212.7 208.812 213.052C208.572 213.396 208.248 213.664 207.84 213.856C207.96 214.048 208.092 214.268 208.236 214.516C208.388 214.756 208.54 215.016 208.692 215.296C208.844 215.568 208.992 215.852 209.136 216.148C209.288 216.436 209.428 216.72 209.556 217H208.5C208.26 216.424 207.996 215.872 207.708 215.344C207.428 214.816 207.156 214.388 206.892 214.06C206.844 214.068 206.772 214.072 206.676 214.072C206.588 214.072 206.528 214.072 206.496 214.072H205.656V217H204.66V209.68C204.78 209.648 204.916 209.62 205.068 209.596C205.228 209.572 205.388 209.556 205.548 209.548C205.716 209.532 205.88 209.52 206.04 209.512C206.2 209.504 206.344 209.5 206.472 209.5C207.368 209.5 208.04 209.696 208.488 210.088C208.944 210.48 209.172 211.064 209.172 211.84ZM206.556 210.352C206.372 210.352 206.192 210.356 206.016 210.364C205.848 210.364 205.728 210.372 205.656 210.388V213.256H206.292C206.58 213.256 206.836 213.236 207.06 213.196C207.292 213.156 207.488 213.084 207.648 212.98C207.816 212.868 207.944 212.72 208.032 212.536C208.12 212.344 208.164 212.096 208.164 211.792C208.164 211.504 208.12 211.268 208.032 211.084C207.944 210.9 207.828 210.756 207.684 210.652C207.54 210.54 207.368 210.464 207.168 210.424C206.976 210.376 206.772 210.352 206.556 210.352ZM213.108 211.3C213.86 211.3 214.44 211.536 214.848 212.008C215.256 212.472 215.46 213.18 215.46 214.132V214.48H211.476C211.516 215.056 211.704 215.496 212.04 215.8C212.384 216.096 212.864 216.244 213.48 216.244C213.832 216.244 214.132 216.216 214.38 216.16C214.628 216.104 214.816 216.044 214.944 215.98L215.076 216.82C214.956 216.884 214.74 216.952 214.428 217.024C214.116 217.096 213.764 217.132 213.372 217.132C212.892 217.132 212.468 217.06 212.1 216.916C211.74 216.764 211.44 216.56 211.2 216.304C210.96 216.048 210.78 215.744 210.66 215.392C210.54 215.032 210.48 214.644 210.48 214.228C210.48 213.732 210.556 213.3 210.708 212.932C210.86 212.564 211.06 212.26 211.308 212.02C211.556 211.78 211.836 211.6 212.148 211.48C212.46 211.36 212.78 211.3 213.108 211.3ZM214.452 213.676C214.452 213.204 214.328 212.832 214.08 212.56C213.832 212.28 213.504 212.14 213.096 212.14C212.864 212.14 212.652 212.184 212.46 212.272C212.276 212.36 212.116 212.476 211.98 212.62C211.844 212.764 211.736 212.928 211.656 213.112C211.576 213.296 211.524 213.484 211.5 213.676H214.452ZM217.5 214.228C217.5 214.516 217.528 214.784 217.584 215.032C217.648 215.272 217.74 215.484 217.86 215.668C217.98 215.844 218.132 215.984 218.316 216.088C218.508 216.192 218.736 216.244 219 216.244C219.232 216.244 219.456 216.2 219.672 216.112C219.888 216.024 220.052 215.928 220.164 215.824V212.308C220.076 212.276 219.952 212.248 219.792 212.224C219.64 212.2 219.428 212.188 219.156 212.188C218.668 212.188 218.268 212.368 217.956 212.728C217.652 213.08 217.5 213.58 217.5 214.228ZM216.48 214.228C216.48 213.78 216.544 213.376 216.672 213.016C216.8 212.656 216.98 212.352 217.212 212.104C217.444 211.848 217.724 211.652 218.052 211.516C218.388 211.38 218.756 211.312 219.156 211.312C219.588 211.312 219.968 211.348 220.296 211.42C220.632 211.484 220.916 211.548 221.148 211.612V218.98H220.152V216.784C220.032 216.864 219.86 216.94 219.636 217.012C219.412 217.092 219.16 217.132 218.88 217.132C218.504 217.132 218.168 217.06 217.872 216.916C217.576 216.772 217.324 216.572 217.116 216.316C216.916 216.06 216.76 215.756 216.648 215.404C216.536 215.044 216.48 214.652 216.48 214.228ZM227.148 216.844C226.932 216.9 226.644 216.96 226.284 217.024C225.932 217.088 225.516 217.12 225.036 217.12C224.612 217.12 224.26 217.06 223.98 216.94C223.7 216.812 223.472 216.636 223.296 216.412C223.12 216.18 222.996 215.908 222.924 215.596C222.852 215.284 222.816 214.94 222.816 214.564V211.432H223.8V214.348C223.8 215.036 223.9 215.524 224.1 215.812C224.308 216.1 224.652 216.244 225.132 216.244C225.236 216.244 225.34 216.24 225.444 216.232C225.556 216.224 225.66 216.216 225.756 216.208C225.852 216.192 225.936 216.18 226.008 216.172C226.08 216.156 226.128 216.144 226.152 216.136V211.432H227.148V216.844ZM231.108 211.3C231.86 211.3 232.44 211.536 232.848 212.008C233.256 212.472 233.46 213.18 233.46 214.132V214.48H229.476C229.516 215.056 229.704 215.496 230.04 215.8C230.384 216.096 230.864 216.244 231.48 216.244C231.832 216.244 232.132 216.216 232.38 216.16C232.628 216.104 232.816 216.044 232.944 215.98L233.076 216.82C232.956 216.884 232.74 216.952 232.428 217.024C232.116 217.096 231.764 217.132 231.372 217.132C230.892 217.132 230.468 217.06 230.1 216.916C229.74 216.764 229.44 216.56 229.2 216.304C228.96 216.048 228.78 215.744 228.66 215.392C228.54 215.032 228.48 214.644 228.48 214.228C228.48 213.732 228.556 213.3 228.708 212.932C228.86 212.564 229.06 212.26 229.308 212.02C229.556 211.78 229.836 211.6 230.148 211.48C230.46 211.36 230.78 211.3 231.108 211.3ZM232.452 213.676C232.452 213.204 232.328 212.832 232.08 212.56C231.832 212.28 231.504 212.14 231.096 212.14C230.864 212.14 230.652 212.184 230.46 212.272C230.276 212.36 230.116 212.476 229.98 212.62C229.844 212.764 229.736 212.928 229.656 213.112C229.576 213.296 229.524 213.484 229.5 213.676H232.452ZM238.212 215.608C238.212 215.408 238.128 215.244 237.96 215.116C237.8 214.988 237.596 214.876 237.348 214.78C237.108 214.684 236.844 214.592 236.556 214.504C236.268 214.408 236 214.292 235.752 214.156C235.512 214.02 235.308 213.852 235.14 213.652C234.98 213.452 234.9 213.192 234.9 212.872C234.9 212.424 235.08 212.052 235.44 211.756C235.808 211.452 236.38 211.3 237.156 211.3C237.46 211.3 237.772 211.324 238.092 211.372C238.42 211.412 238.7 211.468 238.932 211.54L238.752 212.428C238.688 212.396 238.6 212.364 238.488 212.332C238.376 212.292 238.248 212.26 238.104 212.236C237.96 212.204 237.804 212.18 237.636 212.164C237.476 212.148 237.32 212.14 237.168 212.14C236.304 212.14 235.872 212.376 235.872 212.848C235.872 213.016 235.952 213.16 236.112 213.28C236.28 213.392 236.488 213.496 236.736 213.592C236.984 213.688 237.252 213.788 237.54 213.892C237.828 213.988 238.096 214.108 238.344 214.252C238.592 214.396 238.796 214.572 238.956 214.78C239.124 214.98 239.208 215.236 239.208 215.548C239.208 216.052 239.012 216.444 238.62 216.724C238.228 216.996 237.608 217.132 236.76 217.132C236.376 217.132 236.024 217.1 235.704 217.036C235.384 216.972 235.08 216.876 234.792 216.748L234.984 215.848C235.264 215.976 235.556 216.084 235.86 216.172C236.172 216.252 236.504 216.292 236.856 216.292C237.76 216.292 238.212 216.064 238.212 215.608ZM242.916 211.432H245.268V212.26H242.916V214.852C242.916 215.132 242.936 215.36 242.976 215.536C243.016 215.712 243.08 215.856 243.168 215.968C243.264 216.072 243.384 216.144 243.528 216.184C243.672 216.224 243.848 216.244 244.056 216.244C244.344 216.244 244.576 216.22 244.752 216.172C244.928 216.124 245.096 216.06 245.256 215.98L245.4 216.82C245.288 216.868 245.108 216.932 244.86 217.012C244.62 217.092 244.32 217.132 243.96 217.132C243.544 217.132 243.204 217.084 242.94 216.988C242.676 216.892 242.468 216.748 242.316 216.556C242.172 216.364 242.072 216.128 242.016 215.848C241.96 215.56 241.932 215.228 241.932 214.852V212.26H240.756V211.432H241.932V209.872L242.916 209.704V211.432Z" fill="black"/>
<rect x="265.5" y="192.5" width="59" height="39" rx="2.5" fill="#C4C4C4" stroke="#5A6770"/>
<path d="M279.172 210.84C279.172 211.296 279.052 211.7 278.812 212.052C278.572 212.396 278.248 212.664 277.84 212.856C277.96 213.048 278.092 213.268 278.236 213.516C278.388 213.756 278.54 214.016 278.692 214.296C278.844 214.568 278.992 214.852 279.136 215.148C279.288 215.436 279.428 215.72 279.556 216H278.5C278.26 215.424 277.996 214.872 277.708 214.344C277.428 213.816 277.156 213.388 276.892 213.06C276.844 213.068 276.772 213.072 276.676 213.072C276.588 213.072 276.528 213.072 276.496 213.072H275.656V216H274.66V208.68C274.78 208.648 274.916 208.62 275.068 208.596C275.228 208.572 275.388 208.556 275.548 208.548C275.716 208.532 275.88 208.52 276.04 208.512C276.2 208.504 276.344 208.5 276.472 208.5C277.368 208.5 278.04 208.696 278.488 209.088C278.944 209.48 279.172 210.064 279.172 210.84ZM276.556 209.352C276.372 209.352 276.192 209.356 276.016 209.364C275.848 209.364 275.728 209.372 275.656 209.388V212.256H276.292C276.58 212.256 276.836 212.236 277.06 212.196C277.292 212.156 277.488 212.084 277.648 211.98C277.816 211.868 277.944 211.72 278.032 211.536C278.12 211.344 278.164 211.096 278.164 210.792C278.164 210.504 278.12 210.268 278.032 210.084C277.944 209.9 277.828 209.756 277.684 209.652C277.54 209.54 277.368 209.464 277.168 209.424C276.976 209.376 276.772 209.352 276.556 209.352ZM283.108 210.3C283.86 210.3 284.44 210.536 284.848 211.008C285.256 211.472 285.46 212.18 285.46 213.132V213.48H281.476C281.516 214.056 281.704 214.496 282.04 214.8C282.384 215.096 282.864 215.244 283.48 215.244C283.832 215.244 284.132 215.216 284.38 215.16C284.628 215.104 284.816 215.044 284.944 214.98L285.076 215.82C284.956 215.884 284.74 215.952 284.428 216.024C284.116 216.096 283.764 216.132 283.372 216.132C282.892 216.132 282.468 216.06 282.1 215.916C281.74 215.764 281.44 215.56 281.2 215.304C280.96 215.048 280.78 214.744 280.66 214.392C280.54 214.032 280.48 213.644 280.48 213.228C280.48 212.732 280.556 212.3 280.708 211.932C280.86 211.564 281.06 211.26 281.308 211.02C281.556 210.78 281.836 210.6 282.148 210.48C282.46 210.36 282.78 210.3 283.108 210.3ZM284.452 212.676C284.452 212.204 284.328 211.832 284.08 211.56C283.832 211.28 283.504 211.14 283.096 211.14C282.864 211.14 282.652 211.184 282.46 211.272C282.276 211.36 282.116 211.476 281.98 211.62C281.844 211.764 281.736 211.928 281.656 212.112C281.576 212.296 281.524 212.484 281.5 212.676H284.452ZM287.5 213.228C287.5 213.516 287.528 213.784 287.584 214.032C287.648 214.272 287.74 214.484 287.86 214.668C287.98 214.844 288.132 214.984 288.316 215.088C288.508 215.192 288.736 215.244 289 215.244C289.232 215.244 289.456 215.2 289.672 215.112C289.888 215.024 290.052 214.928 290.164 214.824V211.308C290.076 211.276 289.952 211.248 289.792 211.224C289.64 211.2 289.428 211.188 289.156 211.188C288.668 211.188 288.268 211.368 287.956 211.728C287.652 212.08 287.5 212.58 287.5 213.228ZM286.48 213.228C286.48 212.78 286.544 212.376 286.672 212.016C286.8 211.656 286.98 211.352 287.212 211.104C287.444 210.848 287.724 210.652 288.052 210.516C288.388 210.38 288.756 210.312 289.156 210.312C289.588 210.312 289.968 210.348 290.296 210.42C290.632 210.484 290.916 210.548 291.148 210.612V217.98H290.152V215.784C290.032 215.864 289.86 215.94 289.636 216.012C289.412 216.092 289.16 216.132 288.88 216.132C288.504 216.132 288.168 216.06 287.872 215.916C287.576 215.772 287.324 215.572 287.116 215.316C286.916 215.06 286.76 214.756 286.648 214.404C286.536 214.044 286.48 213.652 286.48 213.228ZM297.148 215.844C296.932 215.9 296.644 215.96 296.284 216.024C295.932 216.088 295.516 216.12 295.036 216.12C294.612 216.12 294.26 216.06 293.98 215.94C293.7 215.812 293.472 215.636 293.296 215.412C293.12 215.18 292.996 214.908 292.924 214.596C292.852 214.284 292.816 213.94 292.816 213.564V210.432H293.8V213.348C293.8 214.036 293.9 214.524 294.1 214.812C294.308 215.1 294.652 215.244 295.132 215.244C295.236 215.244 295.34 215.24 295.444 215.232C295.556 215.224 295.66 215.216 295.756 215.208C295.852 215.192 295.936 215.18 296.008 215.172C296.08 215.156 296.128 215.144 296.152 215.136V210.432H297.148V215.844ZM301.108 210.3C301.86 210.3 302.44 210.536 302.848 211.008C303.256 211.472 303.46 212.18 303.46 213.132V213.48H299.476C299.516 214.056 299.704 214.496 300.04 214.8C300.384 215.096 300.864 215.244 301.48 215.244C301.832 215.244 302.132 215.216 302.38 215.16C302.628 215.104 302.816 215.044 302.944 214.98L303.076 215.82C302.956 215.884 302.74 215.952 302.428 216.024C302.116 216.096 301.764 216.132 301.372 216.132C300.892 216.132 300.468 216.06 300.1 215.916C299.74 215.764 299.44 215.56 299.2 215.304C298.96 215.048 298.78 214.744 298.66 214.392C298.54 214.032 298.48 213.644 298.48 213.228C298.48 212.732 298.556 212.3 298.708 211.932C298.86 211.564 299.06 211.26 299.308 211.02C299.556 210.78 299.836 210.6 300.148 210.48C300.46 210.36 300.78 210.3 301.108 210.3ZM302.452 212.676C302.452 212.204 302.328 211.832 302.08 211.56C301.832 211.28 301.504 211.14 301.096 211.14C300.864 211.14 300.652 211.184 300.46 211.272C300.276 211.36 300.116 211.476 299.98 211.62C299.844 211.764 299.736 211.928 299.656 212.112C299.576 212.296 299.524 212.484 299.5 212.676H302.452ZM308.212 214.608C308.212 214.408 308.128 214.244 307.96 214.116C307.8 213.988 307.596 213.876 307.348 213.78C307.108 213.684 306.844 213.592 306.556 213.504C306.268 213.408 306 213.292 305.752 213.156C305.512 213.02 305.308 212.852 305.14 212.652C304.98 212.452 304.9 212.192 304.9 211.872C304.9 211.424 305.08 211.052 305.44 210.756C305.808 210.452 306.38 210.3 307.156 210.3C307.46 210.3 307.772 210.324 308.092 210.372C308.42 210.412 308.7 210.468 308.932 210.54L308.752 211.428C308.688 211.396 308.6 211.364 308.488 211.332C308.376 211.292 308.248 211.26 308.104 211.236C307.96 211.204 307.804 211.18 307.636 211.164C307.476 211.148 307.32 211.14 307.168 211.14C306.304 211.14 305.872 211.376 305.872 211.848C305.872 212.016 305.952 212.16 306.112 212.28C306.28 212.392 306.488 212.496 306.736 212.592C306.984 212.688 307.252 212.788 307.54 212.892C307.828 212.988 308.096 213.108 308.344 213.252C308.592 213.396 308.796 213.572 308.956 213.78C309.124 213.98 309.208 214.236 309.208 214.548C309.208 215.052 309.012 215.444 308.62 215.724C308.228 215.996 307.608 216.132 306.76 216.132C306.376 216.132 306.024 216.1 305.704 216.036C305.384 215.972 305.08 215.876 304.792 215.748L304.984 214.848C305.264 214.976 305.556 215.084 305.86 215.172C306.172 215.252 306.504 215.292 306.856 215.292C307.76 215.292 308.212 215.064 308.212 214.608ZM312.916 210.432H315.268V211.26H312.916V213.852C312.916 214.132 312.936 214.36 312.976 214.536C313.016 214.712 313.08 214.856 313.168 214.968C313.264 215.072 313.384 215.144 313.528 215.184C313.672 215.224 313.848 215.244 314.056 215.244C314.344 215.244 314.576 215.22 314.752 215.172C314.928 215.124 315.096 215.06 315.256 214.98L315.4 215.82C315.288 215.868 315.108 215.932 314.86 216.012C314.62 216.092 314.32 216.132 313.96 216.132C313.544 216.132 313.204 216.084 312.94 215.988C312.676 215.892 312.468 215.748 312.316 215.556C312.172 215.364 312.072 215.128 312.016 214.848C311.96 214.56 311.932 214.228 311.932 213.852V211.26H310.756V210.432H311.932V208.872L312.916 208.704V210.432Z" fill="black"/>
<rect x="340.5" y="256.5" width="59" height="39" rx="2.5" fill="#C3AFAF" stroke="#70625A"/>
<path d="M351.172 274.84C351.172 275.296 351.052 275.7 350.812 276.052C350.572 276.396 350.248 276.664 349.84 276.856C349.96 277.048 350.092 277.268 350.236 277.516C350.388 277.756 350.54 278.016 350.692 278.296C350.844 278.568 350.992 278.852 351.136 279.148C351.288 279.436 351.428 279.72 351.556 280H350.5C350.26 279.424 349.996 278.872 349.708 278.344C349.428 277.816 349.156 277.388 348.892 277.06C348.844 277.068 348.772 277.072 348.676 277.072C348.588 277.072 348.528 277.072 348.496 277.072H347.656V280H346.66V272.68C346.78 272.648 346.916 272.62 347.068 272.596C347.228 272.572 347.388 272.556 347.548 272.548C347.716 272.532 347.88 272.52 348.04 272.512C348.2 272.504 348.344 272.5 348.472 272.5C349.368 272.5 350.04 272.696 350.488 273.088C350.944 273.48 351.172 274.064 351.172 274.84ZM348.556 273.352C348.372 273.352 348.192 273.356 348.016 273.364C347.848 273.364 347.728 273.372 347.656 273.388V276.256H348.292C348.58 276.256 348.836 276.236 349.06 276.196C349.292 276.156 349.488 276.084 349.648 275.98C349.816 275.868 349.944 275.72 350.032 275.536C350.12 275.344 350.164 275.096 350.164 274.792C350.164 274.504 350.12 274.268 350.032 274.084C349.944 273.9 349.828 273.756 349.684 273.652C349.54 273.54 349.368 273.464 349.168 273.424C348.976 273.376 348.772 273.352 348.556 273.352ZM355.108 274.3C355.86 274.3 356.44 274.536 356.848 275.008C357.256 275.472 357.46 276.18 357.46 277.132V277.48H353.476C353.516 278.056 353.704 278.496 354.04 278.8C354.384 279.096 354.864 279.244 355.48 279.244C355.832 279.244 356.132 279.216 356.38 279.16C356.628 279.104 356.816 279.044 356.944 278.98L357.076 279.82C356.956 279.884 356.74 279.952 356.428 280.024C356.116 280.096 355.764 280.132 355.372 280.132C354.892 280.132 354.468 280.06 354.1 279.916C353.74 279.764 353.44 279.56 353.2 279.304C352.96 279.048 352.78 278.744 352.66 278.392C352.54 278.032 352.48 277.644 352.48 277.228C352.48 276.732 352.556 276.3 352.708 275.932C352.86 275.564 353.06 275.26 353.308 275.02C353.556 274.78 353.836 274.6 354.148 274.48C354.46 274.36 354.78 274.3 355.108 274.3ZM356.452 276.676C356.452 276.204 356.328 275.832 356.08 275.56C355.832 275.28 355.504 275.14 355.096 275.14C354.864 275.14 354.652 275.184 354.46 275.272C354.276 275.36 354.116 275.476 353.98 275.62C353.844 275.764 353.736 275.928 353.656 276.112C353.576 276.296 353.524 276.484 353.5 276.676H356.452ZM361.696 273.568C361.488 273.568 361.308 273.496 361.156 273.352C361.004 273.208 360.928 273.012 360.928 272.764C360.928 272.516 361.004 272.32 361.156 272.176C361.308 272.032 361.488 271.96 361.696 271.96C361.912 271.96 362.092 272.032 362.236 272.176C362.388 272.32 362.464 272.516 362.464 272.764C362.464 273.012 362.388 273.208 362.236 273.352C362.092 273.496 361.912 273.568 361.696 273.568ZM359.368 275.26V274.432H362.608V279.94C362.608 280.324 362.552 280.648 362.44 280.912C362.336 281.184 362.192 281.404 362.008 281.572C361.832 281.74 361.624 281.86 361.384 281.932C361.152 282.004 360.904 282.04 360.64 282.04C360.336 282.04 360.028 282.008 359.716 281.944C359.412 281.88 359.124 281.78 358.852 281.644L359.152 280.804C359.352 280.9 359.572 280.98 359.812 281.044C360.06 281.116 360.296 281.152 360.52 281.152C360.84 281.152 361.104 281.068 361.312 280.9C361.52 280.74 361.624 280.424 361.624 279.952V275.26H359.368ZM367.108 274.3C367.86 274.3 368.44 274.536 368.848 275.008C369.256 275.472 369.46 276.18 369.46 277.132V277.48H365.476C365.516 278.056 365.704 278.496 366.04 278.8C366.384 279.096 366.864 279.244 367.48 279.244C367.832 279.244 368.132 279.216 368.38 279.16C368.628 279.104 368.816 279.044 368.944 278.98L369.076 279.82C368.956 279.884 368.74 279.952 368.428 280.024C368.116 280.096 367.764 280.132 367.372 280.132C366.892 280.132 366.468 280.06 366.1 279.916C365.74 279.764 365.44 279.56 365.2 279.304C364.96 279.048 364.78 278.744 364.66 278.392C364.54 278.032 364.48 277.644 364.48 277.228C364.48 276.732 364.556 276.3 364.708 275.932C364.86 275.564 365.06 275.26 365.308 275.02C365.556 274.78 365.836 274.6 366.148 274.48C366.46 274.36 366.78 274.3 367.108 274.3ZM368.452 276.676C368.452 276.204 368.328 275.832 368.08 275.56C367.832 275.28 367.504 275.14 367.096 275.14C366.864 275.14 366.652 275.184 366.46 275.272C366.276 275.36 366.116 275.476 365.98 275.62C365.844 275.764 365.736 275.928 365.656 276.112C365.576 276.296 365.524 276.484 365.5 276.676H368.452ZM370.588 277.228C370.588 276.724 370.668 276.288 370.828 275.92C370.988 275.552 371.208 275.248 371.488 275.008C371.768 274.768 372.092 274.592 372.46 274.48C372.836 274.36 373.236 274.3 373.66 274.3C373.932 274.3 374.2 274.32 374.464 274.36C374.736 274.392 375.024 274.456 375.328 274.552L375.1 275.404C374.836 275.308 374.592 275.248 374.368 275.224C374.152 275.192 373.932 275.176 373.708 275.176C373.42 275.176 373.148 275.216 372.892 275.296C372.636 275.368 372.412 275.488 372.22 275.656C372.036 275.816 371.888 276.028 371.776 276.292C371.664 276.548 371.608 276.86 371.608 277.228C371.608 277.58 371.66 277.884 371.764 278.14C371.868 278.388 372.012 278.596 372.196 278.764C372.388 278.924 372.616 279.044 372.88 279.124C373.144 279.204 373.436 279.244 373.756 279.244C374.012 279.244 374.256 279.232 374.488 279.208C374.728 279.176 374.988 279.112 375.268 279.016L375.412 279.844C375.132 279.948 374.848 280.02 374.56 280.06C374.272 280.108 373.96 280.132 373.624 280.132C373.176 280.132 372.764 280.072 372.388 279.952C372.02 279.824 371.7 279.64 371.428 279.4C371.164 279.16 370.956 278.86 370.804 278.5C370.66 278.132 370.588 277.708 370.588 277.228ZM378.916 274.432H381.268V275.26H378.916V277.852C378.916 278.132 378.936 278.36 378.976 278.536C379.016 278.712 379.08 278.856 379.168 278.968C379.264 279.072 379.384 279.144 379.528 279.184C379.672 279.224 379.848 279.244 380.056 279.244C380.344 279.244 380.576 279.22 380.752 279.172C380.928 279.124 381.096 279.06 381.256 278.98L381.4 279.82C381.288 279.868 381.108 279.932 380.86 280.012C380.62 280.092 380.32 280.132 379.96 280.132C379.544 280.132 379.204 280.084 378.94 279.988C378.676 279.892 378.468 279.748 378.316 279.556C378.172 279.364 378.072 279.128 378.016 278.848C377.96 278.56 377.932 278.228 377.932 277.852V275.26H376.756V274.432H377.932V272.872L378.916 272.704V274.432ZM385.108 274.3C385.86 274.3 386.44 274.536 386.848 275.008C387.256 275.472 387.46 276.18 387.46 277.132V277.48H383.476C383.516 278.056 383.704 278.496 384.04 278.8C384.384 279.096 384.864 279.244 385.48 279.244C385.832 279.244 386.132 279.216 386.38 279.16C386.628 279.104 386.816 279.044 386.944 278.98L387.076 279.82C386.956 279.884 386.74 279.952 386.428 280.024C386.116 280.096 385.764 280.132 385.372 280.132C384.892 280.132 384.468 280.06 384.1 279.916C383.74 279.764 383.44 279.56 383.2 279.304C382.96 279.048 382.78 278.744 382.66 278.392C382.54 278.032 382.48 277.644 382.48 277.228C382.48 276.732 382.556 276.3 382.708 275.932C382.86 275.564 383.06 275.26 383.308 275.02C383.556 274.78 383.836 274.6 384.148 274.48C384.46 274.36 384.78 274.3 385.108 274.3ZM386.452 276.676C386.452 276.204 386.328 275.832 386.08 275.56C385.832 275.28 385.504 275.14 385.096 275.14C384.864 275.14 384.652 275.184 384.46 275.272C384.276 275.36 384.116 275.476 383.98 275.62C383.844 275.764 383.736 275.928 383.656 276.112C383.576 276.296 383.524 276.484 383.5 276.676H386.452ZM392.152 275.608C392.04 275.504 391.876 275.408 391.66 275.32C391.444 275.224 391.22 275.176 390.988 275.176C390.724 275.176 390.496 275.228 390.304 275.332C390.12 275.436 389.968 275.58 389.848 275.764C389.728 275.94 389.64 276.156 389.584 276.412C389.528 276.66 389.5 276.928 389.5 277.216C389.5 277.864 389.652 278.364 389.956 278.716C390.26 279.068 390.656 279.244 391.144 279.244C391.392 279.244 391.6 279.232 391.768 279.208C391.944 279.184 392.072 279.16 392.152 279.136V275.608ZM392.152 271.852L393.148 271.684V279.844C392.932 279.908 392.656 279.972 392.32 280.036C391.984 280.1 391.592 280.132 391.144 280.132C390.744 280.132 390.38 280.064 390.052 279.928C389.724 279.792 389.444 279.6 389.212 279.352C388.98 279.096 388.8 278.788 388.672 278.428C388.544 278.068 388.48 277.664 388.48 277.216C388.48 276.784 388.532 276.392 388.636 276.04C388.748 275.68 388.908 275.372 389.116 275.116C389.324 274.86 389.572 274.66 389.86 274.516C390.156 274.372 390.492 274.3 390.868 274.3C391.164 274.3 391.424 274.336 391.648 274.408C391.872 274.48 392.04 274.556 392.152 274.636V271.852Z" fill="black"/>
<rect x="416.5" y="192.5" width="59" height="39" rx="2.5" fill="#ABC3D6" stroke="#5A6770"/>
<path d="M426.848 216L426.404 214.056H423.548L423.116 216H422.108C422.244 215.472 422.396 214.9 422.564 214.284C422.732 213.668 422.912 213.036 423.104 212.388C423.304 211.74 423.512 211.092 423.728 210.444C423.944 209.788 424.172 209.164 424.412 208.572H425.636C425.868 209.164 426.088 209.788 426.296 210.444C426.512 211.092 426.712 211.74 426.896 212.388C427.088 213.036 427.268 213.668 427.436 214.284C427.604 214.9 427.756 215.472 427.892 216H426.848ZM424.988 209.436C424.804 209.94 424.604 210.524 424.388 211.188C424.172 211.852 423.968 212.536 423.776 213.24H426.176C425.992 212.52 425.792 211.828 425.576 211.164C425.368 210.492 425.172 209.916 424.988 209.436ZM428.588 213.228C428.588 212.724 428.668 212.288 428.828 211.92C428.988 211.552 429.208 211.248 429.488 211.008C429.768 210.768 430.092 210.592 430.46 210.48C430.836 210.36 431.236 210.3 431.66 210.3C431.932 210.3 432.2 210.32 432.464 210.36C432.736 210.392 433.024 210.456 433.328 210.552L433.1 211.404C432.836 211.308 432.592 211.248 432.368 211.224C432.152 211.192 431.932 211.176 431.708 211.176C431.42 211.176 431.148 211.216 430.892 211.296C430.636 211.368 430.412 211.488 430.22 211.656C430.036 211.816 429.888 212.028 429.776 212.292C429.664 212.548 429.608 212.86 429.608 213.228C429.608 213.58 429.66 213.884 429.764 214.14C429.868 214.388 430.012 214.596 430.196 214.764C430.388 214.924 430.616 215.044 430.88 215.124C431.144 215.204 431.436 215.244 431.756 215.244C432.012 215.244 432.256 215.232 432.488 215.208C432.728 215.176 432.988 215.112 433.268 215.016L433.412 215.844C433.132 215.948 432.848 216.02 432.56 216.06C432.272 216.108 431.96 216.132 431.624 216.132C431.176 216.132 430.764 216.072 430.388 215.952C430.02 215.824 429.7 215.64 429.428 215.4C429.164 215.16 428.956 214.86 428.804 214.5C428.66 214.132 428.588 213.708 428.588 213.228ZM434.588 213.228C434.588 212.724 434.668 212.288 434.828 211.92C434.988 211.552 435.208 211.248 435.488 211.008C435.768 210.768 436.092 210.592 436.46 210.48C436.836 210.36 437.236 210.3 437.66 210.3C437.932 210.3 438.2 210.32 438.464 210.36C438.736 210.392 439.024 210.456 439.328 210.552L439.1 211.404C438.836 211.308 438.592 211.248 438.368 211.224C438.152 211.192 437.932 211.176 437.708 211.176C437.42 211.176 437.148 211.216 436.892 211.296C436.636 211.368 436.412 211.488 436.22 211.656C436.036 211.816 435.888 212.028 435.776 212.292C435.664 212.548 435.608 212.86 435.608 213.228C435.608 213.58 435.66 213.884 435.764 214.14C435.868 214.388 436.012 214.596 436.196 214.764C436.388 214.924 436.616 215.044 436.88 215.124C437.144 215.204 437.436 215.244 437.756 215.244C438.012 215.244 438.256 215.232 438.488 215.208C438.728 215.176 438.988 215.112 439.268 215.016L439.412 215.844C439.132 215.948 438.848 216.02 438.56 216.06C438.272 216.108 437.96 216.132 437.624 216.132C437.176 216.132 436.764 216.072 436.388 215.952C436.02 215.824 435.7 215.64 435.428 215.4C435.164 215.16 434.956 214.86 434.804 214.5C434.66 214.132 434.588 213.708 434.588 213.228ZM443.108 210.3C443.86 210.3 444.44 210.536 444.848 211.008C445.256 211.472 445.46 212.18 445.46 213.132V213.48H441.476C441.516 214.056 441.704 214.496 442.04 214.8C442.384 215.096 442.864 215.244 443.48 215.244C443.832 215.244 444.132 215.216 444.38 215.16C444.628 215.104 444.816 215.044 444.944 214.98L445.076 215.82C444.956 215.884 444.74 215.952 444.428 216.024C444.116 216.096 443.764 216.132 443.372 216.132C442.892 216.132 442.468 216.06 442.1 215.916C441.74 215.764 441.44 215.56 441.2 215.304C440.96 215.048 440.78 214.744 440.66 214.392C440.54 214.032 440.48 213.644 440.48 213.228C440.48 212.732 440.556 212.3 440.708 211.932C440.86 211.564 441.06 211.26 441.308 211.02C441.556 210.78 441.836 210.6 442.148 210.48C442.46 210.36 442.78 210.3 443.108 210.3ZM444.452 212.676C444.452 212.204 444.328 211.832 444.08 211.56C443.832 211.28 443.504 211.14 443.096 211.14C442.864 211.14 442.652 211.184 442.46 211.272C442.276 211.36 442.116 211.476 441.98 211.62C441.844 211.764 441.736 211.928 441.656 212.112C441.576 212.296 441.524 212.484 441.5 212.676H444.452ZM450.5 213.228C450.5 212.58 450.348 212.08 450.044 211.728C449.74 211.368 449.344 211.188 448.856 211.188C448.584 211.188 448.368 211.2 448.208 211.224C448.056 211.248 447.936 211.276 447.848 211.308V214.824C447.96 214.928 448.124 215.024 448.34 215.112C448.556 215.2 448.78 215.244 449.012 215.244C449.276 215.244 449.5 215.192 449.684 215.088C449.876 214.984 450.032 214.844 450.152 214.668C450.272 214.484 450.36 214.272 450.416 214.032C450.472 213.784 450.5 213.516 450.5 213.228ZM451.52 213.228C451.52 213.652 451.464 214.044 451.352 214.404C451.248 214.756 451.092 215.06 450.884 215.316C450.684 215.572 450.436 215.772 450.14 215.916C449.844 216.06 449.508 216.132 449.132 216.132C448.836 216.132 448.576 216.096 448.352 216.024C448.128 215.952 447.96 215.872 447.848 215.784V217.98H446.852V210.6C447.068 210.536 447.344 210.472 447.68 210.408C448.024 210.344 448.416 210.312 448.856 210.312C449.256 210.312 449.62 210.38 449.948 210.516C450.276 210.652 450.556 210.848 450.788 211.104C451.02 211.352 451.2 211.656 451.328 212.016C451.456 212.376 451.52 212.78 451.52 213.228ZM454.916 210.432H457.268V211.26H454.916V213.852C454.916 214.132 454.936 214.36 454.976 214.536C455.016 214.712 455.08 214.856 455.168 214.968C455.264 215.072 455.384 215.144 455.528 215.184C455.672 215.224 455.848 215.244 456.056 215.244C456.344 215.244 456.576 215.22 456.752 215.172C456.928 215.124 457.096 215.06 457.256 214.98L457.4 215.82C457.288 215.868 457.108 215.932 456.86 216.012C456.62 216.092 456.32 216.132 455.96 216.132C455.544 216.132 455.204 216.084 454.94 215.988C454.676 215.892 454.468 215.748 454.316 215.556C454.172 215.364 454.072 215.128 454.016 214.848C453.96 214.56 453.932 214.228 453.932 213.852V211.26H452.756V210.432H453.932V208.872L454.916 208.704V210.432ZM461.108 210.3C461.86 210.3 462.44 210.536 462.848 211.008C463.256 211.472 463.46 212.18 463.46 213.132V213.48H459.476C459.516 214.056 459.704 214.496 460.04 214.8C460.384 215.096 460.864 215.244 461.48 215.244C461.832 215.244 462.132 215.216 462.38 215.16C462.628 215.104 462.816 215.044 462.944 214.98L463.076 215.82C462.956 215.884 462.74 215.952 462.428 216.024C462.116 216.096 461.764 216.132 461.372 216.132C460.892 216.132 460.468 216.06 460.1 215.916C459.74 215.764 459.44 215.56 459.2 215.304C458.96 215.048 458.78 214.744 458.66 214.392C458.54 214.032 458.48 213.644 458.48 213.228C458.48 212.732 458.556 212.3 458.708 211.932C458.86 211.564 459.06 211.26 459.308 211.02C459.556 210.78 459.836 210.6 460.148 210.48C460.46 210.36 460.78 210.3 461.108 210.3ZM462.452 212.676C462.452 212.204 462.328 211.832 462.08 211.56C461.832 211.28 461.504 211.14 461.096 211.14C460.864 211.14 460.652 211.184 460.46 211.272C460.276 211.36 460.116 211.476 459.98 211.62C459.844 211.764 459.736 211.928 459.656 212.112C459.576 212.296 459.524 212.484 459.5 212.676H462.452ZM468.152 211.608C468.04 211.504 467.876 211.408 467.66 211.32C467.444 211.224 467.22 211.176 466.988 211.176C466.724 211.176 466.496 211.228 466.304 211.332C466.12 211.436 465.968 211.58 465.848 211.764C465.728 211.94 465.64 212.156 465.584 212.412C465.528 212.66 465.5 212.928 465.5 213.216C465.5 213.864 465.652 214.364 465.956 214.716C466.26 215.068 466.656 215.244 467.144 215.244C467.392 215.244 467.6 215.232 467.768 215.208C467.944 215.184 468.072 215.16 468.152 215.136V211.608ZM468.152 207.852L469.148 207.684V215.844C468.932 215.908 468.656 215.972 468.32 216.036C467.984 216.1 467.592 216.132 467.144 216.132C466.744 216.132 466.38 216.064 466.052 215.928C465.724 215.792 465.444 215.6 465.212 215.352C464.98 215.096 464.8 214.788 464.672 214.428C464.544 214.068 464.48 213.664 464.48 213.216C464.48 212.784 464.532 212.392 464.636 212.04C464.748 211.68 464.908 211.372 465.116 211.116C465.324 210.86 465.572 210.66 465.86 210.516C466.156 210.372 466.492 210.3 466.868 210.3C467.164 210.3 467.424 210.336 467.648 210.408C467.872 210.48 468.04 210.556 468.152 210.636V207.852Z" fill="black"/>
<rect x="511.5" y="192.5" width="59" height="39" rx="2.5" fill="#ABC3D6" stroke="#5A6770"/>
<path d="M521.848 216L521.404 214.056H518.548L518.116 216H517.108C517.244 215.472 517.396 214.9 517.564 214.284C517.732 213.668 517.912 213.036 518.104 212.388C518.304 211.74 518.512 211.092 518.728 210.444C518.944 209.788 519.172 209.164 519.412 208.572H520.636C520.868 209.164 521.088 209.788 521.296 210.444C521.512 211.092 521.712 211.74 521.896 212.388C522.088 213.036 522.268 213.668 522.436 214.284C522.604 214.9 522.756 215.472 522.892 216H521.848ZM519.988 209.436C519.804 209.94 519.604 210.524 519.388 211.188C519.172 211.852 518.968 212.536 518.776 213.24H521.176C520.992 212.52 520.792 211.828 520.576 211.164C520.368 210.492 520.172 209.916 519.988 209.436ZM523.588 213.228C523.588 212.724 523.668 212.288 523.828 211.92C523.988 211.552 524.208 211.248 524.488 211.008C524.768 210.768 525.092 210.592 525.46 210.48C525.836 210.36 526.236 210.3 526.66 210.3C526.932 210.3 527.2 210.32 527.464 210.36C527.736 210.392 528.024 210.456 528.328 210.552L528.1 211.404C527.836 211.308 527.592 211.248 527.368 211.224C527.152 211.192 526.932 211.176 526.708 211.176C526.42 211.176 526.148 211.216 525.892 211.296C525.636 211.368 525.412 211.488 525.22 211.656C525.036 211.816 524.888 212.028 524.776 212.292C524.664 212.548 524.608 212.86 524.608 213.228C524.608 213.58 524.66 213.884 524.764 214.14C524.868 214.388 525.012 214.596 525.196 214.764C525.388 214.924 525.616 215.044 525.88 215.124C526.144 215.204 526.436 215.244 526.756 215.244C527.012 215.244 527.256 215.232 527.488 215.208C527.728 215.176 527.988 215.112 528.268 215.016L528.412 215.844C528.132 215.948 527.848 216.02 527.56 216.06C527.272 216.108 526.96 216.132 526.624 216.132C526.176 216.132 525.764 216.072 525.388 215.952C525.02 215.824 524.7 215.64 524.428 215.4C524.164 215.16 523.956 214.86 523.804 214.5C523.66 214.132 523.588 213.708 523.588 213.228ZM529.588 213.228C529.588 212.724 529.668 212.288 529.828 211.92C529.988 211.552 530.208 211.248 530.488 211.008C530.768 210.768 531.092 210.592 531.46 210.48C531.836 210.36 532.236 210.3 532.66 210.3C532.932 210.3 533.2 210.32 533.464 210.36C533.736 210.392 534.024 210.456 534.328 210.552L534.1 211.404C533.836 211.308 533.592 211.248 533.368 211.224C533.152 211.192 532.932 211.176 532.708 211.176C532.42 211.176 532.148 211.216 531.892 211.296C531.636 211.368 531.412 211.488 531.22 211.656C531.036 211.816 530.888 212.028 530.776 212.292C530.664 212.548 530.608 212.86 530.608 213.228C530.608 213.58 530.66 213.884 530.764 214.14C530.868 214.388 531.012 214.596 531.196 214.764C531.388 214.924 531.616 215.044 531.88 215.124C532.144 215.204 532.436 215.244 532.756 215.244C533.012 215.244 533.256 215.232 533.488 215.208C533.728 215.176 533.988 215.112 534.268 215.016L534.412 215.844C534.132 215.948 533.848 216.02 533.56 216.06C533.272 216.108 532.96 216.132 532.624 216.132C532.176 216.132 531.764 216.072 531.388 215.952C531.02 215.824 530.7 215.64 530.428 215.4C530.164 215.16 529.956 214.86 529.804 214.5C529.66 214.132 529.588 213.708 529.588 213.228ZM538.108 210.3C538.86 210.3 539.44 210.536 539.848 211.008C540.256 211.472 540.46 212.18 540.46 213.132V213.48H536.476C536.516 214.056 536.704 214.496 537.04 214.8C537.384 215.096 537.864 215.244 538.48 215.244C538.832 215.244 539.132 215.216 539.38 215.16C539.628 215.104 539.816 215.044 539.944 214.98L540.076 215.82C539.956 215.884 539.74 215.952 539.428 216.024C539.116 216.096 538.764 216.132 538.372 216.132C537.892 216.132 537.468 216.06 537.1 215.916C536.74 215.764 536.44 215.56 536.2 215.304C535.96 215.048 535.78 214.744 535.66 214.392C535.54 214.032 535.48 213.644 535.48 213.228C535.48 212.732 535.556 212.3 535.708 211.932C535.86 211.564 536.06 211.26 536.308 211.02C536.556 210.78 536.836 210.6 537.148 210.48C537.46 210.36 537.78 210.3 538.108 210.3ZM539.452 212.676C539.452 212.204 539.328 211.832 539.08 211.56C538.832 211.28 538.504 211.14 538.096 211.14C537.864 211.14 537.652 211.184 537.46 211.272C537.276 211.36 537.116 211.476 536.98 211.62C536.844 211.764 536.736 211.928 536.656 212.112C536.576 212.296 536.524 212.484 536.5 212.676H539.452ZM545.5 213.228C545.5 212.58 545.348 212.08 545.044 211.728C544.74 211.368 544.344 211.188 543.856 211.188C543.584 211.188 543.368 211.2 543.208 211.224C543.056 211.248 542.936 211.276 542.848 211.308V214.824C542.96 214.928 543.124 215.024 543.34 215.112C543.556 215.2 543.78 215.244 544.012 215.244C544.276 215.244 544.5 215.192 544.684 215.088C544.876 214.984 545.032 214.844 545.152 214.668C545.272 214.484 545.36 214.272 545.416 214.032C545.472 213.784 545.5 213.516 545.5 213.228ZM546.52 213.228C546.52 213.652 546.464 214.044 546.352 214.404C546.248 214.756 546.092 215.06 545.884 215.316C545.684 215.572 545.436 215.772 545.14 215.916C544.844 216.06 544.508 216.132 544.132 216.132C543.836 216.132 543.576 216.096 543.352 216.024C543.128 215.952 542.96 215.872 542.848 215.784V217.98H541.852V210.6C542.068 210.536 542.344 210.472 542.68 210.408C543.024 210.344 543.416 210.312 543.856 210.312C544.256 210.312 544.62 210.38 544.948 210.516C545.276 210.652 545.556 210.848 545.788 211.104C546.02 211.352 546.2 211.656 546.328 212.016C546.456 212.376 546.52 212.78 546.52 213.228ZM549.916 210.432H552.268V211.26H549.916V213.852C549.916 214.132 549.936 214.36 549.976 214.536C550.016 214.712 550.08 214.856 550.168 214.968C550.264 215.072 550.384 215.144 550.528 215.184C550.672 215.224 550.848 215.244 551.056 215.244C551.344 215.244 551.576 215.22 551.752 215.172C551.928 215.124 552.096 215.06 552.256 214.98L552.4 215.82C552.288 215.868 552.108 215.932 551.86 216.012C551.62 216.092 551.32 216.132 550.96 216.132C550.544 216.132 550.204 216.084 549.94 215.988C549.676 215.892 549.468 215.748 549.316 215.556C549.172 215.364 549.072 215.128 549.016 214.848C548.96 214.56 548.932 214.228 548.932 213.852V211.26H547.756V210.432H548.932V208.872L549.916 208.704V210.432ZM556.108 210.3C556.86 210.3 557.44 210.536 557.848 211.008C558.256 211.472 558.46 212.18 558.46 213.132V213.48H554.476C554.516 214.056 554.704 214.496 555.04 214.8C555.384 215.096 555.864 215.244 556.48 215.244C556.832 215.244 557.132 215.216 557.38 215.16C557.628 215.104 557.816 215.044 557.944 214.98L558.076 215.82C557.956 215.884 557.74 215.952 557.428 216.024C557.116 216.096 556.764 216.132 556.372 216.132C555.892 216.132 555.468 216.06 555.1 215.916C554.74 215.764 554.44 215.56 554.2 215.304C553.96 215.048 553.78 214.744 553.66 214.392C553.54 214.032 553.48 213.644 553.48 213.228C553.48 212.732 553.556 212.3 553.708 211.932C553.86 211.564 554.06 211.26 554.308 211.02C554.556 210.78 554.836 210.6 555.148 210.48C555.46 210.36 555.78 210.3 556.108 210.3ZM557.452 212.676C557.452 212.204 557.328 211.832 557.08 211.56C556.832 211.28 556.504 211.14 556.096 211.14C555.864 211.14 555.652 211.184 555.46 211.272C555.276 211.36 555.116 211.476 554.98 211.62C554.844 211.764 554.736 211.928 554.656 212.112C554.576 212.296 554.524 212.484 554.5 212.676H557.452ZM563.152 211.608C563.04 211.504 562.876 211.408 562.66 211.32C562.444 211.224 562.22 211.176 561.988 211.176C561.724 211.176 561.496 211.228 561.304 211.332C561.12 211.436 560.968 211.58 560.848 211.764C560.728 211.94 560.64 212.156 560.584 212.412C560.528 212.66 560.5 212.928 560.5 213.216C560.5 213.864 560.652 214.364 560.956 214.716C561.26 215.068 561.656 215.244 562.144 215.244C562.392 215.244 562.6 215.232 562.768 215.208C562.944 215.184 563.072 215.16 563.152 215.136V211.608ZM563.152 207.852L564.148 207.684V215.844C563.932 215.908 563.656 215.972 563.32 216.036C562.984 216.1 562.592 216.132 562.144 216.132C561.744 216.132 561.38 216.064 561.052 215.928C560.724 215.792 560.444 215.6 560.212 215.352C559.98 215.096 559.8 214.788 559.672 214.428C559.544 214.068 559.48 213.664 559.48 213.216C559.48 212.784 559.532 212.392 559.636 212.04C559.748 211.68 559.908 211.372 560.116 211.116C560.324 210.86 560.572 210.66 560.86 210.516C561.156 210.372 561.492 210.3 561.868 210.3C562.164 210.3 562.424 210.336 562.648 210.408C562.872 210.48 563.04 210.556 563.152 210.636V207.852Z" fill="black"/>
<rect x="606.5" y="192.5" width="59" height="39" rx="2.5" fill="#ABC3D6" stroke="#5A6770"/>
<path d="M616.848 217L616.404 215.056H613.548L613.116 217H612.108C612.244 216.472 612.396 215.9 612.564 215.284C612.732 214.668 612.912 214.036 613.104 213.388C613.304 212.74 613.512 212.092 613.728 211.444C613.944 210.788 614.172 210.164 614.412 209.572H615.636C615.868 210.164 616.088 210.788 616.296 211.444C616.512 212.092 616.712 212.74 616.896 213.388C617.088 214.036 617.268 214.668 617.436 215.284C617.604 215.9 617.756 216.472 617.892 217H616.848ZM614.988 210.436C614.804 210.94 614.604 211.524 614.388 212.188C614.172 212.852 613.968 213.536 613.776 214.24H616.176C615.992 213.52 615.792 212.828 615.576 212.164C615.368 211.492 615.172 210.916 614.988 210.436ZM618.588 214.228C618.588 213.724 618.668 213.288 618.828 212.92C618.988 212.552 619.208 212.248 619.488 212.008C619.768 211.768 620.092 211.592 620.46 211.48C620.836 211.36 621.236 211.3 621.66 211.3C621.932 211.3 622.2 211.32 622.464 211.36C622.736 211.392 623.024 211.456 623.328 211.552L623.1 212.404C622.836 212.308 622.592 212.248 622.368 212.224C622.152 212.192 621.932 212.176 621.708 212.176C621.42 212.176 621.148 212.216 620.892 212.296C620.636 212.368 620.412 212.488 620.22 212.656C620.036 212.816 619.888 213.028 619.776 213.292C619.664 213.548 619.608 213.86 619.608 214.228C619.608 214.58 619.66 214.884 619.764 215.14C619.868 215.388 620.012 215.596 620.196 215.764C620.388 215.924 620.616 216.044 620.88 216.124C621.144 216.204 621.436 216.244 621.756 216.244C622.012 216.244 622.256 216.232 622.488 216.208C622.728 216.176 622.988 216.112 623.268 216.016L623.412 216.844C623.132 216.948 622.848 217.02 622.56 217.06C622.272 217.108 621.96 217.132 621.624 217.132C621.176 217.132 620.764 217.072 620.388 216.952C620.02 216.824 619.7 216.64 619.428 216.4C619.164 216.16 618.956 215.86 618.804 215.5C618.66 215.132 618.588 214.708 618.588 214.228ZM624.588 214.228C624.588 213.724 624.668 213.288 624.828 212.92C624.988 212.552 625.208 212.248 625.488 212.008C625.768 211.768 626.092 211.592 626.46 211.48C626.836 211.36 627.236 211.3 627.66 211.3C627.932 211.3 628.2 211.32 628.464 211.36C628.736 211.392 629.024 211.456 629.328 211.552L629.1 212.404C628.836 212.308 628.592 212.248 628.368 212.224C628.152 212.192 627.932 212.176 627.708 212.176C627.42 212.176 627.148 212.216 626.892 212.296C626.636 212.368 626.412 212.488 626.22 212.656C626.036 212.816 625.888 213.028 625.776 213.292C625.664 213.548 625.608 213.86 625.608 214.228C625.608 214.58 625.66 214.884 625.764 215.14C625.868 215.388 626.012 215.596 626.196 215.764C626.388 215.924 626.616 216.044 626.88 216.124C627.144 216.204 627.436 216.244 627.756 216.244C628.012 216.244 628.256 216.232 628.488 216.208C628.728 216.176 628.988 216.112 629.268 216.016L629.412 216.844C629.132 216.948 628.848 217.02 628.56 217.06C628.272 217.108 627.96 217.132 627.624 217.132C627.176 217.132 626.764 217.072 626.388 216.952C626.02 216.824 625.7 216.64 625.428 216.4C625.164 216.16 624.956 215.86 624.804 215.5C624.66 215.132 624.588 214.708 624.588 214.228ZM633.108 211.3C633.86 211.3 634.44 211.536 634.848 212.008C635.256 212.472 635.46 213.18 635.46 214.132V214.48H631.476C631.516 215.056 631.704 215.496 632.04 215.8C632.384 216.096 632.864 216.244 633.48 216.244C633.832 216.244 634.132 216.216 634.38 216.16C634.628 216.104 634.816 216.044 634.944 215.98L635.076 216.82C634.956 216.884 634.74 216.952 634.428 217.024C634.116 217.096 633.764 217.132 633.372 217.132C632.892 217.132 632.468 217.06 632.1 216.916C631.74 216.764 631.44 216.56 631.2 216.304C630.96 216.048 630.78 215.744 630.66 215.392C630.54 215.032 630.48 214.644 630.48 214.228C630.48 213.732 630.556 213.3 630.708 212.932C630.86 212.564 631.06 212.26 631.308 212.02C631.556 211.78 631.836 211.6 632.148 211.48C632.46 211.36 632.78 211.3 633.108 211.3ZM634.452 213.676C634.452 213.204 634.328 212.832 634.08 212.56C633.832 212.28 633.504 212.14 633.096 212.14C632.864 212.14 632.652 212.184 632.46 212.272C632.276 212.36 632.116 212.476 631.98 212.62C631.844 212.764 631.736 212.928 631.656 213.112C631.576 213.296 631.524 213.484 631.5 213.676H634.452ZM640.5 214.228C640.5 213.58 640.348 213.08 640.044 212.728C639.74 212.368 639.344 212.188 638.856 212.188C638.584 212.188 638.368 212.2 638.208 212.224C638.056 212.248 637.936 212.276 637.848 212.308V215.824C637.96 215.928 638.124 216.024 638.34 216.112C638.556 216.2 638.78 216.244 639.012 216.244C639.276 216.244 639.5 216.192 639.684 216.088C639.876 215.984 640.032 215.844 640.152 215.668C640.272 215.484 640.36 215.272 640.416 215.032C640.472 214.784 640.5 214.516 640.5 214.228ZM641.52 214.228C641.52 214.652 641.464 215.044 641.352 215.404C641.248 215.756 641.092 216.06 640.884 216.316C640.684 216.572 640.436 216.772 640.14 216.916C639.844 217.06 639.508 217.132 639.132 217.132C638.836 217.132 638.576 217.096 638.352 217.024C638.128 216.952 637.96 216.872 637.848 216.784V218.98H636.852V211.6C637.068 211.536 637.344 211.472 637.68 211.408C638.024 211.344 638.416 211.312 638.856 211.312C639.256 211.312 639.62 211.38 639.948 211.516C640.276 211.652 640.556 211.848 640.788 212.104C641.02 212.352 641.2 212.656 641.328 213.016C641.456 213.376 641.52 213.78 641.52 214.228ZM644.916 211.432H647.268V212.26H644.916V214.852C644.916 215.132 644.936 215.36 644.976 215.536C645.016 215.712 645.08 215.856 645.168 215.968C645.264 216.072 645.384 216.144 645.528 216.184C645.672 216.224 645.848 216.244 646.056 216.244C646.344 216.244 646.576 216.22 646.752 216.172C646.928 216.124 647.096 216.06 647.256 215.98L647.4 216.82C647.288 216.868 647.108 216.932 646.86 217.012C646.62 217.092 646.32 217.132 645.96 217.132C645.544 217.132 645.204 217.084 644.94 216.988C644.676 216.892 644.468 216.748 644.316 216.556C644.172 216.364 644.072 216.128 644.016 215.848C643.96 215.56 643.932 215.228 643.932 214.852V212.26H642.756V211.432H643.932V209.872L644.916 209.704V211.432ZM651.108 211.3C651.86 211.3 652.44 211.536 652.848 212.008C653.256 212.472 653.46 213.18 653.46 214.132V214.48H649.476C649.516 215.056 649.704 215.496 650.04 215.8C650.384 216.096 650.864 216.244 651.48 216.244C651.832 216.244 652.132 216.216 652.38 216.16C652.628 216.104 652.816 216.044 652.944 215.98L653.076 216.82C652.956 216.884 652.74 216.952 652.428 217.024C652.116 217.096 651.764 217.132 651.372 217.132C650.892 217.132 650.468 217.06 650.1 216.916C649.74 216.764 649.44 216.56 649.2 216.304C648.96 216.048 648.78 215.744 648.66 215.392C648.54 215.032 648.48 214.644 648.48 214.228C648.48 213.732 648.556 213.3 648.708 212.932C648.86 212.564 649.06 212.26 649.308 212.02C649.556 211.78 649.836 211.6 650.148 211.48C650.46 211.36 650.78 211.3 651.108 211.3ZM652.452 213.676C652.452 213.204 652.328 212.832 652.08 212.56C651.832 212.28 651.504 212.14 651.096 212.14C650.864 212.14 650.652 212.184 650.46 212.272C650.276 212.36 650.116 212.476 649.98 212.62C649.844 212.764 649.736 212.928 649.656 213.112C649.576 213.296 649.524 213.484 649.5 213.676H652.452ZM658.152 212.608C658.04 212.504 657.876 212.408 657.66 212.32C657.444 212.224 657.22 212.176 656.988 212.176C656.724 212.176 656.496 212.228 656.304 212.332C656.12 212.436 655.968 212.58 655.848 212.764C655.728 212.94 655.64 213.156 655.584 213.412C655.528 213.66 655.5 213.928 655.5 214.216C655.5 214.864 655.652 215.364 655.956 215.716C656.26 216.068 656.656 216.244 657.144 216.244C657.392 216.244 657.6 216.232 657.768 216.208C657.944 216.184 658.072 216.16 658.152 216.136V212.608ZM658.152 208.852L659.148 208.684V216.844C658.932 216.908 658.656 216.972 658.32 217.036C657.984 217.1 657.592 217.132 657.144 217.132C656.744 217.132 656.38 217.064 656.052 216.928C655.724 216.792 655.444 216.6 655.212 216.352C654.98 216.096 654.8 215.788 654.672 215.428C654.544 215.068 654.48 214.664 654.48 214.216C654.48 213.784 654.532 213.392 654.636 213.04C654.748 212.68 654.908 212.372 655.116 212.116C655.324 211.86 655.572 211.66 655.86 211.516C656.156 211.372 656.492 211.3 656.868 211.3C657.164 211.3 657.424 211.336 657.648 211.408C657.872 211.48 658.04 211.556 658.152 211.636V208.852Z" fill="black"/>
<rect x="55.5" y="193.5" width="59" height="39" rx="2.5" fill="#C4C4C4" stroke="#5A6770"/>
<path d="M69.172 211.84C69.172 212.296 69.052 212.7 68.812 213.052C68.572 213.396 68.248 213.664 67.84 213.856C67.96 214.048 68.092 214.268 68.236 214.516C68.388 214.756 68.54 215.016 68.692 215.296C68.844 215.568 68.992 215.852 69.136 216.148C69.288 216.436 69.428 216.72 69.556 217H68.5C68.26 216.424 67.996 215.872 67.708 215.344C67.428 214.816 67.156 214.388 66.892 214.06C66.844 214.068 66.772 214.072 66.676 214.072C66.588 214.072 66.528 214.072 66.496 214.072H65.656V217H64.66V209.68C64.78 209.648 64.916 209.62 65.068 209.596C65.228 209.572 65.388 209.556 65.548 209.548C65.716 209.532 65.88 209.52 66.04 209.512C66.2 209.504 66.344 209.5 66.472 209.5C67.368 209.5 68.04 209.696 68.488 210.088C68.944 210.48 69.172 211.064 69.172 211.84ZM66.556 210.352C66.372 210.352 66.192 210.356 66.016 210.364C65.848 210.364 65.728 210.372 65.656 210.388V213.256H66.292C66.58 213.256 66.836 213.236 67.06 213.196C67.292 213.156 67.488 213.084 67.648 212.98C67.816 212.868 67.944 212.72 68.032 212.536C68.12 212.344 68.164 212.096 68.164 211.792C68.164 211.504 68.12 211.268 68.032 211.084C67.944 210.9 67.828 210.756 67.684 210.652C67.54 210.54 67.368 210.464 67.168 210.424C66.976 210.376 66.772 210.352 66.556 210.352ZM73.108 211.3C73.86 211.3 74.44 211.536 74.848 212.008C75.256 212.472 75.46 213.18 75.46 214.132V214.48H71.476C71.516 215.056 71.704 215.496 72.04 215.8C72.384 216.096 72.864 216.244 73.48 216.244C73.832 216.244 74.132 216.216 74.38 216.16C74.628 216.104 74.816 216.044 74.944 215.98L75.076 216.82C74.956 216.884 74.74 216.952 74.428 217.024C74.116 217.096 73.764 217.132 73.372 217.132C72.892 217.132 72.468 217.06 72.1 216.916C71.74 216.764 71.44 216.56 71.2 216.304C70.96 216.048 70.78 215.744 70.66 215.392C70.54 215.032 70.48 214.644 70.48 214.228C70.48 213.732 70.556 213.3 70.708 212.932C70.86 212.564 71.06 212.26 71.308 212.02C71.556 211.78 71.836 211.6 72.148 211.48C72.46 211.36 72.78 211.3 73.108 211.3ZM74.452 213.676C74.452 213.204 74.328 212.832 74.08 212.56C73.832 212.28 73.504 212.14 73.096 212.14C72.864 212.14 72.652 212.184 72.46 212.272C72.276 212.36 72.116 212.476 71.98 212.62C71.844 212.764 71.736 212.928 71.656 213.112C71.576 213.296 71.524 213.484 71.5 213.676H74.452ZM77.5 214.228C77.5 214.516 77.528 214.784 77.584 215.032C77.648 215.272 77.74 215.484 77.86 215.668C77.98 215.844 78.132 215.984 78.316 216.088C78.508 216.192 78.736 216.244 79 216.244C79.232 216.244 79.456 216.2 79.672 216.112C79.888 216.024 80.052 215.928 80.164 215.824V212.308C80.076 212.276 79.952 212.248 79.792 212.224C79.64 212.2 79.428 212.188 79.156 212.188C78.668 212.188 78.268 212.368 77.956 212.728C77.652 213.08 77.5 213.58 77.5 214.228ZM76.48 214.228C76.48 213.78 76.544 213.376 76.672 213.016C76.8 212.656 76.98 212.352 77.212 212.104C77.444 211.848 77.724 211.652 78.052 211.516C78.388 211.38 78.756 211.312 79.156 211.312C79.588 211.312 79.968 211.348 80.296 211.42C80.632 211.484 80.916 211.548 81.148 211.612V218.98H80.152V216.784C80.032 216.864 79.86 216.94 79.636 217.012C79.412 217.092 79.16 217.132 78.88 217.132C78.504 217.132 78.168 217.06 77.872 216.916C77.576 216.772 77.324 216.572 77.116 216.316C76.916 216.06 76.76 215.756 76.648 215.404C76.536 215.044 76.48 214.652 76.48 214.228ZM87.148 216.844C86.932 216.9 86.644 216.96 86.284 217.024C85.932 217.088 85.516 217.12 85.036 217.12C84.612 217.12 84.26 217.06 83.98 216.94C83.7 216.812 83.472 216.636 83.296 216.412C83.12 216.18 82.996 215.908 82.924 215.596C82.852 215.284 82.816 214.94 82.816 214.564V211.432H83.8V214.348C83.8 215.036 83.9 215.524 84.1 215.812C84.308 216.1 84.652 216.244 85.132 216.244C85.236 216.244 85.34 216.24 85.444 216.232C85.556 216.224 85.66 216.216 85.756 216.208C85.852 216.192 85.936 216.18 86.008 216.172C86.08 216.156 86.128 216.144 86.152 216.136V211.432H87.148V216.844ZM91.108 211.3C91.86 211.3 92.44 211.536 92.848 212.008C93.256 212.472 93.46 213.18 93.46 214.132V214.48H89.476C89.516 215.056 89.704 215.496 90.04 215.8C90.384 216.096 90.864 216.244 91.48 216.244C91.832 216.244 92.132 216.216 92.38 216.16C92.628 216.104 92.816 216.044 92.944 215.98L93.076 216.82C92.956 216.884 92.74 216.952 92.428 217.024C92.116 217.096 91.764 217.132 91.372 217.132C90.892 217.132 90.468 217.06 90.1 216.916C89.74 216.764 89.44 216.56 89.2 216.304C88.96 216.048 88.78 215.744 88.66 215.392C88.54 215.032 88.48 214.644 88.48 214.228C88.48 213.732 88.556 213.3 88.708 212.932C88.86 212.564 89.06 212.26 89.308 212.02C89.556 211.78 89.836 211.6 90.148 211.48C90.46 211.36 90.78 211.3 91.108 211.3ZM92.452 213.676C92.452 213.204 92.328 212.832 92.08 212.56C91.832 212.28 91.504 212.14 91.096 212.14C90.864 212.14 90.652 212.184 90.46 212.272C90.276 212.36 90.116 212.476 89.98 212.62C89.844 212.764 89.736 212.928 89.656 213.112C89.576 213.296 89.524 213.484 89.5 213.676H92.452ZM98.212 215.608C98.212 215.408 98.128 215.244 97.96 215.116C97.8 214.988 97.596 214.876 97.348 214.78C97.108 214.684 96.844 214.592 96.556 214.504C96.268 214.408 96 214.292 95.752 214.156C95.512 214.02 95.308 213.852 95.14 213.652C94.98 213.452 94.9 213.192 94.9 212.872C94.9 212.424 95.08 212.052 95.44 211.756C95.808 211.452 96.38 211.3 97.156 211.3C97.46 211.3 97.772 211.324 98.092 211.372C98.42 211.412 98.7 211.468 98.932 211.54L98.752 212.428C98.688 212.396 98.6 212.364 98.488 212.332C98.376 212.292 98.248 212.26 98.104 212.236C97.96 212.204 97.804 212.18 97.636 212.164C97.476 212.148 97.32 212.14 97.168 212.14C96.304 212.14 95.872 212.376 95.872 212.848C95.872 213.016 95.952 213.16 96.112 213.28C96.28 213.392 96.488 213.496 96.736 213.592C96.984 213.688 97.252 213.788 97.54 213.892C97.828 213.988 98.096 214.108 98.344 214.252C98.592 214.396 98.796 214.572 98.956 214.78C99.124 214.98 99.208 215.236 99.208 215.548C99.208 216.052 99.012 216.444 98.62 216.724C98.228 216.996 97.608 217.132 96.76 217.132C96.376 217.132 96.024 217.1 95.704 217.036C95.384 216.972 95.08 216.876 94.792 216.748L94.984 215.848C95.264 215.976 95.556 216.084 95.86 216.172C96.172 216.252 96.504 216.292 96.856 216.292C97.76 216.292 98.212 216.064 98.212 215.608ZM102.916 211.432H105.268V212.26H102.916V214.852C102.916 215.132 102.936 215.36 102.976 215.536C103.016 215.712 103.08 215.856 103.168 215.968C103.264 216.072 103.384 216.144 103.528 216.184C103.672 216.224 103.848 216.244 104.056 216.244C104.344 216.244 104.576 216.22 104.752 216.172C104.928 216.124 105.096 216.06 105.256 215.98L105.4 216.82C105.288 216.868 105.108 216.932 104.86 217.012C104.62 217.092 104.32 217.132 103.96 217.132C103.544 217.132 103.204 217.084 102.94 216.988C102.676 216.892 102.468 216.748 102.316 216.556C102.172 216.364 102.072 216.128 102.016 215.848C101.96 215.56 101.932 215.228 101.932 214.852V212.26H100.756V211.432H101.932V209.872L102.916 209.704V211.432Z" fill="black"/>
<circle cx="370.5" cy="213.5" r="18" fill="#C4C4C4" stroke="#5A6770"/>
<path d="M369.646 195.354C369.842 195.549 370.158 195.549 370.354 195.354L373.536 192.172C373.731 191.976 373.731 191.66 373.536 191.464C373.34 191.269 373.024 191.269 372.828 191.464L370 194.293L367.172 191.464C366.976 191.269 366.66 191.269 366.464 191.464C366.269 191.66 366.269 191.976 366.464 192.172L369.646 195.354ZM369.5 172V195H370.5V172H369.5Z" fill="#5A6770"/>
<path d="M369.646 256.354C369.842 256.549 370.158 256.549 370.354 256.354L373.536 253.172C373.731 252.976 373.731 252.66 373.536 252.464C373.34 252.269 373.024 252.269 372.828 252.464L370 255.293L367.172 252.464C366.976 252.269 366.66 252.269 366.464 252.464C366.269 252.66 366.269 252.976 366.464 253.172L369.646 256.354ZM369.5 232V256H370.5V232H369.5Z" fill="#5A6770"/>
<mask id="path-25-outside-1_3_103" maskUnits="userSpaceOnUse" x="309" y="87" width="122" height="86" fill="black">
<rect fill="white" x="309" y="87" width="122" height="86"/>
<path fill-rule="evenodd" clip-rule="evenodd" d="M406.342 169.852C405.965 171.126 404.795 172 403.466 172H336.527C335.198 172 334.027 171.126 333.65 169.852L310.428 91.4474C310.159 90.5372 310.303 89.5036 311.072 88.947C311.895 88.3512 312.907 88 314.001 88H425.992C427.085 88 428.097 88.3512 428.92 88.947C429.689 89.5036 429.834 90.5372 429.564 91.4474L406.342 169.852Z"/>
</mask>
<path fill-rule="evenodd" clip-rule="evenodd" d="M406.342 169.852C405.965 171.126 404.795 172 403.466 172H336.527C335.198 172 334.027 171.126 333.65 169.852L310.428 91.4474C310.159 90.5372 310.303 89.5036 311.072 88.947C311.895 88.3512 312.907 88 314.001 88H425.992C427.085 88 428.097 88.3512 428.92 88.947C429.689 89.5036 429.834 90.5372 429.564 91.4474L406.342 169.852Z" fill="#E5E5E5"/>
<path d="M406.342 169.852L405.384 169.568L406.342 169.852ZM428.92 88.947L428.334 89.757L428.92 88.947ZM429.564 91.4474L428.605 91.1634L429.564 91.4474ZM333.65 169.852L332.691 170.136L333.65 169.852ZM336.527 173H403.466V171H336.527V173ZM309.47 91.7313L332.691 170.136L334.609 169.568L311.387 91.1634L309.47 91.7313ZM314.001 87C312.69 87 311.474 87.4218 310.486 88.1369L311.659 89.7571C312.317 89.2806 313.125 89 314.001 89V87ZM425.992 87H314.001V89H425.992V87ZM429.507 88.1369C428.519 87.4218 427.303 87 425.992 87V89C426.868 89 427.676 89.2806 428.334 89.757L429.507 88.1369ZM407.301 170.136L430.523 91.7313L428.605 91.1634L405.384 169.568L407.301 170.136ZM311.387 91.1634C311.184 90.4769 311.366 89.9689 311.659 89.7571L310.486 88.1369C309.241 89.0383 309.134 90.5975 309.47 91.7313L311.387 91.1634ZM403.466 173C405.238 173 406.798 171.835 407.301 170.136L405.384 169.568C405.132 170.417 404.352 171 403.466 171V173ZM428.334 89.757C428.627 89.9689 428.808 90.4769 428.605 91.1634L430.523 91.7313C430.859 90.5975 430.752 89.0382 429.507 88.1369L428.334 89.757ZM336.527 171C335.641 171 334.86 170.417 334.609 169.568L332.691 170.136C333.194 171.835 334.755 173 336.527 173V171Z" fill="#5A6770" mask="url(#path-25-outside-1_3_103)"/>
<path fill-rule="evenodd" clip-rule="evenodd" d="M324.087 124C322.082 124 320.641 125.929 321.211 127.852L333.65 169.852C334.027 171.126 335.198 172 336.527 172H403.466C404.795 172 405.965 171.126 406.342 169.852L418.782 127.852C419.351 125.929 417.911 124 415.905 124H324.087Z" fill="#ABC3D6"/>
<path d="M339.41 126.572V127.412H337.37V134H336.386V127.412H334.346V126.572H339.41ZM345.398 131.216C345.398 131.656 345.334 132.056 345.206 132.416C345.086 132.768 344.914 133.072 344.69 133.328C344.466 133.584 344.198 133.784 343.886 133.928C343.574 134.064 343.234 134.132 342.866 134.132C342.506 134.132 342.17 134.064 341.858 133.928C341.554 133.784 341.29 133.584 341.066 133.328C340.842 133.072 340.666 132.768 340.538 132.416C340.418 132.056 340.358 131.656 340.358 131.216C340.358 130.776 340.418 130.376 340.538 130.016C340.666 129.656 340.842 129.352 341.066 129.104C341.29 128.848 341.554 128.652 341.858 128.516C342.17 128.372 342.506 128.3 342.866 128.3C343.234 128.3 343.574 128.372 343.886 128.516C344.198 128.652 344.466 128.848 344.69 129.104C344.914 129.352 345.086 129.656 345.206 130.016C345.334 130.376 345.398 130.776 345.398 131.216ZM344.378 131.216C344.378 130.584 344.242 130.088 343.97 129.728C343.698 129.36 343.33 129.176 342.866 129.176C342.41 129.176 342.046 129.36 341.774 129.728C341.51 130.088 341.378 130.584 341.378 131.216C341.378 131.84 341.51 132.336 341.774 132.704C342.046 133.064 342.41 133.244 342.866 133.244C343.33 133.244 343.698 133.064 343.97 132.704C344.242 132.336 344.378 131.84 344.378 131.216ZM348.734 130.94C348.95 131.1 349.194 131.304 349.466 131.552C349.738 131.792 350.006 132.052 350.27 132.332C350.542 132.612 350.798 132.9 351.038 133.196C351.278 133.484 351.47 133.752 351.614 134H350.438C350.286 133.752 350.098 133.5 349.874 133.244C349.65 132.98 349.41 132.728 349.154 132.488C348.906 132.248 348.654 132.028 348.398 131.828C348.15 131.628 347.926 131.46 347.726 131.324V134H346.73V125.852L347.726 125.684V130.76C348.166 130.376 348.606 129.996 349.046 129.62C349.486 129.236 349.882 128.84 350.234 128.432H351.398C351.054 128.84 350.638 129.26 350.15 129.692C349.67 130.124 349.198 130.54 348.734 130.94ZM354.986 128.3C355.738 128.3 356.318 128.536 356.726 129.008C357.134 129.472 357.338 130.18 357.338 131.132V131.48H353.354C353.394 132.056 353.582 132.496 353.918 132.8C354.262 133.096 354.742 133.244 355.358 133.244C355.71 133.244 356.01 133.216 356.258 133.16C356.506 133.104 356.694 133.044 356.822 132.98L356.954 133.82C356.834 133.884 356.618 133.952 356.306 134.024C355.994 134.096 355.642 134.132 355.25 134.132C354.77 134.132 354.346 134.06 353.978 133.916C353.618 133.764 353.318 133.56 353.078 133.304C352.838 133.048 352.658 132.744 352.538 132.392C352.418 132.032 352.358 131.644 352.358 131.228C352.358 130.732 352.434 130.3 352.586 129.932C352.738 129.564 352.938 129.26 353.186 129.02C353.434 128.78 353.714 128.6 354.026 128.48C354.338 128.36 354.658 128.3 354.986 128.3ZM356.33 130.676C356.33 130.204 356.206 129.832 355.958 129.56C355.71 129.28 355.382 129.14 354.974 129.14C354.742 129.14 354.53 129.184 354.338 129.272C354.154 129.36 353.994 129.476 353.858 129.62C353.722 129.764 353.614 129.928 353.534 130.112C353.454 130.296 353.402 130.484 353.378 130.676H356.33ZM358.73 128.588C359.09 128.5 359.446 128.432 359.798 128.384C360.158 128.336 360.494 128.312 360.806 128.312C361.55 128.312 362.11 128.504 362.486 128.888C362.87 129.272 363.062 129.888 363.062 130.736V134H362.078V130.916C362.078 130.556 362.046 130.264 361.982 130.04C361.918 129.816 361.826 129.644 361.706 129.524C361.594 129.396 361.454 129.308 361.286 129.26C361.126 129.212 360.95 129.188 360.758 129.188C360.598 129.188 360.426 129.2 360.242 129.224C360.066 129.24 359.894 129.264 359.726 129.296V134H358.73V128.588ZM372.326 134.06C372.206 134.06 372.066 134.056 371.906 134.048C371.746 134.04 371.586 134.028 371.426 134.012C371.266 134.004 371.106 133.988 370.946 133.964C370.786 133.94 370.646 133.912 370.526 133.88V126.68C370.646 126.648 370.782 126.62 370.934 126.596C371.094 126.572 371.254 126.556 371.414 126.548C371.582 126.532 371.742 126.52 371.894 126.512C372.054 126.504 372.198 126.5 372.326 126.5C372.694 126.5 373.038 126.532 373.358 126.596C373.678 126.66 373.954 126.768 374.186 126.92C374.426 127.072 374.61 127.272 374.738 127.52C374.874 127.768 374.942 128.076 374.942 128.444C374.942 128.62 374.914 128.792 374.858 128.96C374.802 129.12 374.722 129.272 374.618 129.416C374.522 129.56 374.406 129.688 374.27 129.8C374.142 129.904 374.002 129.984 373.85 130.04C374.258 130.152 374.598 130.36 374.87 130.664C375.15 130.96 375.29 131.348 375.29 131.828C375.29 132.564 375.054 133.12 374.582 133.496C374.11 133.872 373.358 134.06 372.326 134.06ZM371.51 130.532V133.184C371.526 133.192 371.614 133.204 371.774 133.22C371.942 133.228 372.15 133.232 372.398 133.232C372.646 133.232 372.882 133.212 373.106 133.172C373.338 133.132 373.542 133.06 373.718 132.956C373.894 132.844 374.034 132.7 374.138 132.524C374.25 132.348 374.306 132.12 374.306 131.84C374.306 131.592 374.254 131.384 374.15 131.216C374.054 131.048 373.922 130.916 373.754 130.82C373.594 130.716 373.406 130.644 373.19 130.604C372.974 130.556 372.75 130.532 372.518 130.532H371.51ZM371.51 129.716H372.29C372.49 129.716 372.69 129.696 372.89 129.656C373.09 129.616 373.27 129.552 373.43 129.464C373.59 129.376 373.718 129.256 373.814 129.104C373.91 128.952 373.958 128.76 373.958 128.528C373.958 128.312 373.914 128.128 373.826 127.976C373.738 127.824 373.622 127.7 373.478 127.604C373.334 127.508 373.166 127.44 372.974 127.4C372.79 127.36 372.594 127.34 372.386 127.34C372.178 127.34 371.994 127.344 371.834 127.352C371.682 127.352 371.574 127.36 371.51 127.376V129.716ZM381.026 133.844C380.81 133.9 380.522 133.96 380.162 134.024C379.81 134.088 379.394 134.12 378.914 134.12C378.49 134.12 378.138 134.06 377.858 133.94C377.578 133.812 377.35 133.636 377.174 133.412C376.998 133.18 376.874 132.908 376.802 132.596C376.73 132.284 376.694 131.94 376.694 131.564V128.432H377.678V131.348C377.678 132.036 377.778 132.524 377.978 132.812C378.186 133.1 378.53 133.244 379.01 133.244C379.114 133.244 379.218 133.24 379.322 133.232C379.434 133.224 379.538 133.216 379.634 133.208C379.73 133.192 379.814 133.18 379.886 133.172C379.958 133.156 380.006 133.144 380.03 133.136V128.432H381.026V133.844ZM382.466 131.228C382.466 130.724 382.546 130.288 382.706 129.92C382.866 129.552 383.086 129.248 383.366 129.008C383.646 128.768 383.97 128.592 384.338 128.48C384.714 128.36 385.114 128.3 385.538 128.3C385.81 128.3 386.078 128.32 386.342 128.36C386.614 128.392 386.902 128.456 387.206 128.552L386.978 129.404C386.714 129.308 386.47 129.248 386.246 129.224C386.03 129.192 385.81 129.176 385.586 129.176C385.298 129.176 385.026 129.216 384.77 129.296C384.514 129.368 384.29 129.488 384.098 129.656C383.914 129.816 383.766 130.028 383.654 130.292C383.542 130.548 383.486 130.86 383.486 131.228C383.486 131.58 383.538 131.884 383.642 132.14C383.746 132.388 383.89 132.596 384.074 132.764C384.266 132.924 384.494 133.044 384.758 133.124C385.022 133.204 385.314 133.244 385.634 133.244C385.89 133.244 386.134 133.232 386.366 133.208C386.606 133.176 386.866 133.112 387.146 133.016L387.29 133.844C387.01 133.948 386.726 134.02 386.438 134.06C386.15 134.108 385.838 134.132 385.502 134.132C385.054 134.132 384.642 134.072 384.266 133.952C383.898 133.824 383.578 133.64 383.306 133.4C383.042 133.16 382.834 132.86 382.682 132.5C382.538 132.132 382.466 131.708 382.466 131.228ZM390.734 130.94C390.95 131.1 391.194 131.304 391.466 131.552C391.738 131.792 392.006 132.052 392.27 132.332C392.542 132.612 392.798 132.9 393.038 133.196C393.278 133.484 393.47 133.752 393.614 134H392.438C392.286 133.752 392.098 133.5 391.874 133.244C391.65 132.98 391.41 132.728 391.154 132.488C390.906 132.248 390.654 132.028 390.398 131.828C390.15 131.628 389.926 131.46 389.726 131.324V134H388.73V125.852L389.726 125.684V130.76C390.166 130.376 390.606 129.996 391.046 129.62C391.486 129.236 391.882 128.84 392.234 128.432H393.398C393.054 128.84 392.638 129.26 392.15 129.692C391.67 130.124 391.198 130.54 390.734 130.94ZM396.986 128.3C397.738 128.3 398.318 128.536 398.726 129.008C399.134 129.472 399.338 130.18 399.338 131.132V131.48H395.354C395.394 132.056 395.582 132.496 395.918 132.8C396.262 133.096 396.742 133.244 397.358 133.244C397.71 133.244 398.01 133.216 398.258 133.16C398.506 133.104 398.694 133.044 398.822 132.98L398.954 133.82C398.834 133.884 398.618 133.952 398.306 134.024C397.994 134.096 397.642 134.132 397.25 134.132C396.77 134.132 396.346 134.06 395.978 133.916C395.618 133.764 395.318 133.56 395.078 133.304C394.838 133.048 394.658 132.744 394.538 132.392C394.418 132.032 394.358 131.644 394.358 131.228C394.358 130.732 394.434 130.3 394.586 129.932C394.738 129.564 394.938 129.26 395.186 129.02C395.434 128.78 395.714 128.6 396.026 128.48C396.338 128.36 396.658 128.3 396.986 128.3ZM398.33 130.676C398.33 130.204 398.206 129.832 397.958 129.56C397.71 129.28 397.382 129.14 396.974 129.14C396.742 129.14 396.53 129.184 396.338 129.272C396.154 129.36 395.994 129.476 395.858 129.62C395.722 129.764 395.614 129.928 395.534 130.112C395.454 130.296 395.402 130.484 395.378 130.676H398.33ZM402.794 128.432H405.146V129.26H402.794V131.852C402.794 132.132 402.814 132.36 402.854 132.536C402.894 132.712 402.958 132.856 403.046 132.968C403.142 133.072 403.262 133.144 403.406 133.184C403.55 133.224 403.726 133.244 403.934 133.244C404.222 133.244 404.454 133.22 404.63 133.172C404.806 133.124 404.974 133.06 405.134 132.98L405.278 133.82C405.166 133.868 404.986 133.932 404.738 134.012C404.498 134.092 404.198 134.132 403.838 134.132C403.422 134.132 403.082 134.084 402.818 133.988C402.554 133.892 402.346 133.748 402.194 133.556C402.05 133.364 401.95 133.128 401.894 132.848C401.838 132.56 401.81 132.228 401.81 131.852V129.26H400.634V128.432H401.81V126.872L402.794 126.704V128.432Z" fill="black"/>
</svg>
