<svg width="740" height="330" viewBox="0 0 740 330" fill="none" xmlns="http://www.w3.org/2000/svg">
<rect width="740" height="330" fill="#F1F0F4"/>
<rect x="64" y="169" width="612" height="40" rx="3" fill="#C4C4C4"/>
<path d="M216.646 169.354C216.842 169.549 217.158 169.549 217.354 169.354L220.536 166.172C220.731 165.976 220.731 165.66 220.536 165.464C220.34 165.269 220.024 165.269 219.828 165.464L217 168.293L214.172 165.464C213.976 165.269 213.66 165.269 213.464 165.464C213.269 165.66 213.269 165.976 213.464 166.172L216.646 169.354ZM216.5 113V169H217.5V113H216.5Z" fill="black"/>
<path d="M369.646 169.354C369.842 169.549 370.158 169.549 370.354 169.354L373.536 166.172C373.731 165.976 373.731 165.66 373.536 165.464C373.34 165.269 373.024 165.269 372.828 165.464L370 168.293L367.172 165.464C366.976 165.269 366.66 165.269 366.464 165.464C366.269 165.66 366.269 165.976 366.464 166.172L369.646 169.354ZM369.5 113V169H370.5V113H369.5Z" fill="black"/>
<path d="M63.6464 169.354C63.8417 169.549 64.1583 169.549 64.3536 169.354L67.5355 166.172C67.7308 165.976 67.7308 165.66 67.5355 165.464C67.3403 165.269 67.0237 165.269 66.8284 165.464L64 168.293L61.1716 165.464C60.9763 165.269 60.6597 165.269 60.4645 165.464C60.2692 165.66 60.2692 165.976 60.4645 166.172L63.6464 169.354ZM63.5 113V169H64.5V113H63.5Z" fill="black"/>
<path d="M79.3536 208.646C79.1583 208.451 78.8417 208.451 78.6464 208.646L75.4645 211.828C75.2692 212.024 75.2692 212.34 75.4645 212.536C75.6597 212.731 75.9763 212.731 76.1716 212.536L79 209.707L81.8284 212.536C82.0237 212.731 82.3403 212.731 82.5355 212.536C82.7308 212.34 82.7308 212.024 82.5355 211.828L79.3536 208.646ZM79.5 236L79.5 209L78.5 209L78.5 236L79.5 236Z" fill="black"/>
<path d="M95.3536 208.646C95.1583 208.451 94.8417 208.451 94.6464 208.646L91.4645 211.828C91.2692 212.024 91.2692 212.34 91.4645 212.536C91.6597 212.731 91.9763 212.731 92.1716 212.536L95 209.707L97.8284 212.536C98.0237 212.731 98.3403 212.731 98.5355 212.536C98.7308 212.34 98.7308 212.024 98.5355 211.828L95.3536 208.646ZM95.5 236L95.5 209L94.5 209L94.5 236L95.5 236Z" fill="black"/>
<path d="M111.354 208.646C111.158 208.451 110.842 208.451 110.646 208.646L107.464 211.828C107.269 212.024 107.269 212.34 107.464 212.536C107.66 212.731 107.976 212.731 108.172 212.536L111 209.707L113.828 212.536C114.024 212.731 114.34 212.731 114.536 212.536C114.731 212.34 114.731 212.024 114.536 211.828L111.354 208.646ZM111.5 236L111.5 209L110.5 209L110.5 236L111.5 236Z" fill="black"/>
<path d="M128.354 208.646C128.158 208.451 127.842 208.451 127.646 208.646L124.464 211.828C124.269 212.024 124.269 212.34 124.464 212.536C124.66 212.731 124.976 212.731 125.172 212.536L128 209.707L130.828 212.536C131.024 212.731 131.34 212.731 131.536 212.536C131.731 212.34 131.731 212.024 131.536 211.828L128.354 208.646ZM128.5 236L128.5 209L127.5 209L127.5 236L128.5 236Z" fill="black"/>
<path d="M161.354 208.646C161.158 208.451 160.842 208.451 160.646 208.646L157.464 211.828C157.269 212.024 157.269 212.34 157.464 212.536C157.66 212.731 157.976 212.731 158.172 212.536L161 209.707L163.828 212.536C164.024 212.731 164.34 212.731 164.536 212.536C164.731 212.34 164.731 212.024 164.536 211.828L161.354 208.646ZM161.5 236L161.5 209L160.5 209L160.5 236L161.5 236Z" fill="black"/>
<path d="M235.354 208.646C235.158 208.451 234.842 208.451 234.646 208.646L231.464 211.828C231.269 212.024 231.269 212.34 231.464 212.536C231.66 212.731 231.976 212.731 232.172 212.536L235 209.707L237.828 212.536C238.024 212.731 238.34 212.731 238.536 212.536C238.731 212.34 238.731 212.024 238.536 211.828L235.354 208.646ZM235.5 236L235.5 209L234.5 209L234.5 236L235.5 236Z" fill="black"/>
<path d="M243.354 208.646C243.158 208.451 242.842 208.451 242.646 208.646L239.464 211.828C239.269 212.024 239.269 212.34 239.464 212.536C239.66 212.731 239.976 212.731 240.172 212.536L243 209.707L245.828 212.536C246.024 212.731 246.34 212.731 246.536 212.536C246.731 212.34 246.731 212.024 246.536 211.828L243.354 208.646ZM243.5 236L243.5 209L242.5 209L242.5 236L243.5 236Z" fill="black"/>
<path d="M251.354 208.646C251.158 208.451 250.842 208.451 250.646 208.646L247.464 211.828C247.269 212.024 247.269 212.34 247.464 212.536C247.66 212.731 247.976 212.731 248.172 212.536L251 209.707L253.828 212.536C254.024 212.731 254.34 212.731 254.536 212.536C254.731 212.34 254.731 212.024 254.536 211.828L251.354 208.646ZM251.5 236L251.5 209L250.5 209L250.5 236L251.5 236Z" fill="black"/>
<path d="M259.354 208.646C259.158 208.451 258.842 208.451 258.646 208.646L255.464 211.828C255.269 212.024 255.269 212.34 255.464 212.536C255.66 212.731 255.976 212.731 256.172 212.536L259 209.707L261.828 212.536C262.024 212.731 262.34 212.731 262.536 212.536C262.731 212.34 262.731 212.024 262.536 211.828L259.354 208.646ZM259.5 236L259.5 209L258.5 209L258.5 236L259.5 236Z" fill="black"/>
<path d="M267.354 208.646C267.158 208.451 266.842 208.451 266.646 208.646L263.464 211.828C263.269 212.024 263.269 212.34 263.464 212.536C263.66 212.731 263.976 212.731 264.172 212.536L267 209.707L269.828 212.536C270.024 212.731 270.34 212.731 270.536 212.536C270.731 212.34 270.731 212.024 270.536 211.828L267.354 208.646ZM267.5 236L267.5 209L266.5 209L266.5 236L267.5 236Z" fill="black"/>
<path d="M404.354 208.646C404.158 208.451 403.842 208.451 403.646 208.646L400.464 211.828C400.269 212.024 400.269 212.34 400.464 212.536C400.66 212.731 400.976 212.731 401.172 212.536L404 209.707L406.828 212.536C407.024 212.731 407.34 212.731 407.536 212.536C407.731 212.34 407.731 212.024 407.536 211.828L404.354 208.646ZM404.5 236L404.5 209L403.5 209L403.5 236L404.5 236Z" fill="black"/>
<path d="M436.354 208.646C436.158 208.451 435.842 208.451 435.646 208.646L432.464 211.828C432.269 212.024 432.269 212.34 432.464 212.536C432.66 212.731 432.976 212.731 433.172 212.536L436 209.707L438.828 212.536C439.024 212.731 439.34 212.731 439.536 212.536C439.731 212.34 439.731 212.024 439.536 211.828L436.354 208.646ZM436.5 236L436.5 209L435.5 209L435.5 236L436.5 236Z" fill="black"/>
<path d="M624.354 208.646C624.158 208.451 623.842 208.451 623.646 208.646L620.464 211.828C620.269 212.024 620.269 212.34 620.464 212.536C620.66 212.731 620.976 212.731 621.172 212.536L624 209.707L626.828 212.536C627.024 212.731 627.34 212.731 627.536 212.536C627.731 212.34 627.731 212.024 627.536 211.828L624.354 208.646ZM624.5 236L624.5 209L623.5 209L623.5 236L624.5 236Z" fill="black"/>
<path d="M452.354 208.646C452.158 208.451 451.842 208.451 451.646 208.646L448.464 211.828C448.269 212.024 448.269 212.34 448.464 212.536C448.66 212.731 448.976 212.731 449.172 212.536L452 209.707L454.828 212.536C455.024 212.731 455.34 212.731 455.536 212.536C455.731 212.34 455.731 212.024 455.536 211.828L452.354 208.646ZM452.5 236L452.5 209L451.5 209L451.5 236L452.5 236Z" fill="black"/>
<path d="M179.354 208.646C179.158 208.451 178.842 208.451 178.646 208.646L175.464 211.828C175.269 212.024 175.269 212.34 175.464 212.536C175.66 212.731 175.976 212.731 176.172 212.536L179 209.707L181.828 212.536C182.024 212.731 182.34 212.731 182.536 212.536C182.731 212.34 182.731 212.024 182.536 211.828L179.354 208.646ZM179.5 236L179.5 209L178.5 209L178.5 236L179.5 236Z" fill="#C66060"/>
<path d="M198.354 208.646C198.158 208.451 197.842 208.451 197.646 208.646L194.464 211.828C194.269 212.024 194.269 212.34 194.464 212.536C194.66 212.731 194.976 212.731 195.172 212.536L198 209.707L200.828 212.536C201.024 212.731 201.34 212.731 201.536 212.536C201.731 212.34 201.731 212.024 201.536 211.828L198.354 208.646ZM198.5 236L198.5 209L197.5 209L197.5 236L198.5 236Z" fill="#C66060"/>
<path d="M286.354 208.646C286.158 208.451 285.842 208.451 285.646 208.646L282.464 211.828C282.269 212.024 282.269 212.34 282.464 212.536C282.66 212.731 282.976 212.731 283.172 212.536L286 209.707L288.828 212.536C289.024 212.731 289.34 212.731 289.536 212.536C289.731 212.34 289.731 212.024 289.536 211.828L286.354 208.646ZM286.5 236L286.5 209L285.5 209L285.5 236L286.5 236Z" fill="#C66060"/>
<path d="M650.354 208.646C650.158 208.451 649.842 208.451 649.646 208.646L646.464 211.828C646.269 212.024 646.269 212.34 646.464 212.536C646.66 212.731 646.976 212.731 647.172 212.536L650 209.707L652.828 212.536C653.024 212.731 653.34 212.731 653.536 212.536C653.731 212.34 653.731 212.024 653.536 211.828L650.354 208.646ZM650.5 236L650.5 209L649.5 209L649.5 236L650.5 236Z" fill="#C66060"/>
<path d="M336.354 208.646C336.158 208.451 335.842 208.451 335.646 208.646L332.464 211.828C332.269 212.024 332.269 212.34 332.464 212.536C332.66 212.731 332.976 212.731 333.172 212.536L336 209.707L338.828 212.536C339.024 212.731 339.34 212.731 339.536 212.536C339.731 212.34 339.731 212.024 339.536 211.828L336.354 208.646ZM336.5 236L336.5 209L335.5 209L335.5 236L336.5 236Z" fill="#C66060"/>
<path d="M522.646 169.354C522.842 169.549 523.158 169.549 523.354 169.354L526.536 166.172C526.731 165.976 526.731 165.66 526.536 165.464C526.34 165.269 526.024 165.269 525.828 165.464L523 168.293L520.172 165.464C519.976 165.269 519.66 165.269 519.464 165.464C519.269 165.66 519.269 165.976 519.464 166.172L522.646 169.354ZM522.5 113V169H523.5V113H522.5Z" fill="black"/>
<path d="M675.646 169.354C675.842 169.549 676.158 169.549 676.354 169.354L679.536 166.172C679.731 165.976 679.731 165.66 679.536 165.464C679.34 165.269 679.024 165.269 678.828 165.464L676 168.293L673.172 165.464C672.976 165.269 672.66 165.269 672.464 165.464C672.269 165.66 672.269 165.976 672.464 166.172L675.646 169.354ZM675.5 113V169H676.5V113H675.5Z" fill="black"/>
<rect x="75.5" y="169.5" width="7" height="39" rx="2.5" fill="#ABC3D6" stroke="#5A6770"/>
<rect x="231.5" y="169.5" width="7" height="39" rx="2.5" fill="#ABC3D6" stroke="#5A6770"/>
<rect x="400.5" y="169.5" width="7" height="39" rx="2.5" fill="#ABC3D6" stroke="#5A6770"/>
<rect x="432.5" y="169.5" width="7" height="39" rx="2.5" fill="#ABC3D6" stroke="#5A6770"/>
<rect x="620.5" y="169.5" width="7" height="39" rx="2.5" fill="#ABC3D6" stroke="#5A6770"/>
<path d="M616.354 208.646C616.158 208.451 615.842 208.451 615.646 208.646L612.464 211.828C612.269 212.024 612.269 212.34 612.464 212.536C612.66 212.731 612.976 212.731 613.172 212.536L616 209.707L618.828 212.536C619.024 212.731 619.34 212.731 619.536 212.536C619.731 212.34 619.731 212.024 619.536 211.828L616.354 208.646ZM616.5 236L616.5 209L615.5 209L615.5 236L616.5 236Z" fill="black"/>
<rect x="612.5" y="169.5" width="7" height="39" rx="2.5" fill="#ABC3D6" stroke="#5A6770"/>
<path d="M590.354 208.646C590.158 208.451 589.842 208.451 589.646 208.646L586.464 211.828C586.269 212.024 586.269 212.34 586.464 212.536C586.66 212.731 586.976 212.731 587.172 212.536L590 209.707L592.828 212.536C593.024 212.731 593.34 212.731 593.536 212.536C593.731 212.34 593.731 212.024 593.536 211.828L590.354 208.646ZM590.5 236L590.5 209L589.5 209L589.5 236L590.5 236Z" fill="black"/>
<rect x="586.5" y="169.5" width="7" height="39" rx="2.5" fill="#ABC3D6" stroke="#5A6770"/>
<path d="M575.354 208.646C575.158 208.451 574.842 208.451 574.646 208.646L571.464 211.828C571.269 212.024 571.269 212.34 571.464 212.536C571.66 212.731 571.976 212.731 572.172 212.536L575 209.707L577.828 212.536C578.024 212.731 578.34 212.731 578.536 212.536C578.731 212.34 578.731 212.024 578.536 211.828L575.354 208.646ZM575.5 236L575.5 209L574.5 209L574.5 236L575.5 236Z" fill="black"/>
<rect x="571.5" y="169.5" width="7" height="39" rx="2.5" fill="#ABC3D6" stroke="#5A6770"/>
<path d="M549.354 208.646C549.158 208.451 548.842 208.451 548.646 208.646L545.464 211.828C545.269 212.024 545.269 212.34 545.464 212.536C545.66 212.731 545.976 212.731 546.172 212.536L549 209.707L551.828 212.536C552.024 212.731 552.34 212.731 552.536 212.536C552.731 212.34 552.731 212.024 552.536 211.828L549.354 208.646ZM549.5 236L549.5 209L548.5 209L548.5 236L549.5 236Z" fill="black"/>
<rect x="545.5" y="169.5" width="7" height="39" rx="2.5" fill="#ABC3D6" stroke="#5A6770"/>
<rect x="448.5" y="169.5" width="7" height="39" rx="2.5" fill="#ABC3D6" stroke="#5A6770"/>
<rect x="239.5" y="169.5" width="7" height="39" rx="2.5" fill="#ABC3D6" stroke="#5A6770"/>
<rect x="247.5" y="169.5" width="7" height="39" rx="2.5" fill="#ABC3D6" stroke="#5A6770"/>
<rect x="255.5" y="169.5" width="7" height="39" rx="2.5" fill="#ABC3D6" stroke="#5A6770"/>
<rect x="263.5" y="169.5" width="7" height="39" rx="2.5" fill="#ABC3D6" stroke="#5A6770"/>
<rect x="60.5" y="169.5" width="7" height="39" rx="2.5" fill="#B8972C" stroke="#5A6770"/>
<rect x="366.5" y="169.5" width="7" height="39" rx="2.5" fill="#B8972C" stroke="#5A6770"/>
<rect x="519.5" y="169.5" width="7" height="39" rx="2.5" fill="#B8972C" stroke="#5A6770"/>
<rect x="672.5" y="169.5" width="7" height="39" rx="2.5" fill="#B8972C" stroke="#5A6770"/>
<rect x="213.5" y="169.5" width="7" height="39" rx="2.5" fill="#B8972C" stroke="#5A6770"/>
<rect x="91.5" y="169.5" width="7" height="39" rx="2.5" fill="#ABC3D6" stroke="#5A6770"/>
<rect x="107.5" y="169.5" width="7" height="39" rx="2.5" fill="#ABC3D6" stroke="#5A6770"/>
<rect x="124.5" y="169.5" width="7" height="39" rx="2.5" fill="#ABC3D6" stroke="#5A6770"/>
<rect x="157.5" y="169.5" width="7" height="39" rx="2.5" fill="#ABC3D6" stroke="#5A6770"/>
<rect x="165" y="169" width="48" height="40" rx="3" fill="#C3AFAF"/>
<rect x="628" y="169" width="44" height="40" rx="3" fill="#C3AFAF"/>
<rect x="271" y="169" width="95" height="40" rx="3" fill="#C3AFAF"/>
<rect x="39.5" y="85.5" width="49" height="27" rx="2.5" fill="#B8972C" fill-opacity="0.4" stroke="#5A6770"/>
<path d="M51.172 97.84C51.172 98.296 51.052 98.7 50.812 99.052C50.572 99.396 50.248 99.664 49.84 99.856C49.96 100.048 50.092 100.268 50.236 100.516C50.388 100.756 50.54 101.016 50.692 101.296C50.844 101.568 50.992 101.852 51.136 102.148C51.288 102.436 51.428 102.72 51.556 103H50.5C50.26 102.424 49.996 101.872 49.708 101.344C49.428 100.816 49.156 100.388 48.892 100.06C48.844 100.068 48.772 100.072 48.676 100.072C48.588 100.072 48.528 100.072 48.496 100.072H47.656V103H46.66V95.68C46.78 95.648 46.916 95.62 47.068 95.596C47.228 95.572 47.388 95.556 47.548 95.548C47.716 95.532 47.88 95.52 48.04 95.512C48.2 95.504 48.344 95.5 48.472 95.5C49.368 95.5 50.04 95.696 50.488 96.088C50.944 96.48 51.172 97.064 51.172 97.84ZM48.556 96.352C48.372 96.352 48.192 96.356 48.016 96.364C47.848 96.364 47.728 96.372 47.656 96.388V99.256H48.292C48.58 99.256 48.836 99.236 49.06 99.196C49.292 99.156 49.488 99.084 49.648 98.98C49.816 98.868 49.944 98.72 50.032 98.536C50.12 98.344 50.164 98.096 50.164 97.792C50.164 97.504 50.12 97.268 50.032 97.084C49.944 96.9 49.828 96.756 49.684 96.652C49.54 96.54 49.368 96.464 49.168 96.424C48.976 96.376 48.772 96.352 48.556 96.352ZM55.108 97.3C55.86 97.3 56.44 97.536 56.848 98.008C57.256 98.472 57.46 99.18 57.46 100.132V100.48H53.476C53.516 101.056 53.704 101.496 54.04 101.8C54.384 102.096 54.864 102.244 55.48 102.244C55.832 102.244 56.132 102.216 56.38 102.16C56.628 102.104 56.816 102.044 56.944 101.98L57.076 102.82C56.956 102.884 56.74 102.952 56.428 103.024C56.116 103.096 55.764 103.132 55.372 103.132C54.892 103.132 54.468 103.06 54.1 102.916C53.74 102.764 53.44 102.56 53.2 102.304C52.96 102.048 52.78 101.744 52.66 101.392C52.54 101.032 52.48 100.644 52.48 100.228C52.48 99.732 52.556 99.3 52.708 98.932C52.86 98.564 53.06 98.26 53.308 98.02C53.556 97.78 53.836 97.6 54.148 97.48C54.46 97.36 54.78 97.3 55.108 97.3ZM56.452 99.676C56.452 99.204 56.328 98.832 56.08 98.56C55.832 98.28 55.504 98.14 55.096 98.14C54.864 98.14 54.652 98.184 54.46 98.272C54.276 98.36 54.116 98.476 53.98 98.62C53.844 98.764 53.736 98.928 53.656 99.112C53.576 99.296 53.524 99.484 53.5 99.676H56.452ZM59.932 103V98.26H58.756V97.432H59.932V96.928C59.932 96.496 59.992 96.14 60.112 95.86C60.232 95.572 60.388 95.34 60.58 95.164C60.78 94.988 61.008 94.864 61.264 94.792C61.528 94.72 61.804 94.684 62.092 94.684C62.38 94.684 62.668 94.716 62.956 94.78C63.252 94.844 63.528 94.92 63.784 95.008L63.604 95.86C63.428 95.772 63.208 95.696 62.944 95.632C62.68 95.568 62.412 95.536 62.14 95.536C61.972 95.536 61.812 95.56 61.66 95.608C61.516 95.648 61.388 95.724 61.276 95.836C61.164 95.94 61.076 96.084 61.012 96.268C60.948 96.444 60.916 96.668 60.916 96.94V97.432H63.16V98.26H60.916V103H59.932ZM66.508 96.568C66.3 96.568 66.12 96.496 65.968 96.352C65.816 96.208 65.74 96.012 65.74 95.764C65.74 95.516 65.816 95.32 65.968 95.176C66.12 95.032 66.3 94.96 66.508 94.96C66.724 94.96 66.904 95.032 67.048 95.176C67.2 95.32 67.276 95.516 67.276 95.764C67.276 96.012 67.2 96.208 67.048 96.352C66.904 96.496 66.724 96.568 66.508 96.568ZM66.256 98.26H64.648V97.432H67.24V100.852C67.24 101.404 67.316 101.776 67.468 101.968C67.62 102.152 67.848 102.244 68.152 102.244C68.384 102.244 68.596 102.216 68.788 102.16C68.988 102.104 69.144 102.044 69.256 101.98L69.4 102.82C69.352 102.844 69.284 102.876 69.196 102.916C69.108 102.948 69.004 102.98 68.884 103.012C68.772 103.044 68.644 103.072 68.5 103.096C68.364 103.12 68.22 103.132 68.068 103.132C67.716 103.132 67.424 103.084 67.192 102.988C66.96 102.892 66.772 102.748 66.628 102.556C66.492 102.364 66.396 102.128 66.34 101.848C66.284 101.56 66.256 101.228 66.256 100.852V98.26ZM74.056 103.132C73.704 103.132 73.412 103.084 73.18 102.988C72.948 102.892 72.764 102.748 72.628 102.556C72.492 102.364 72.396 102.128 72.34 101.848C72.284 101.56 72.256 101.228 72.256 100.852V95.584H70.648V94.744H73.24V100.852C73.24 101.132 73.256 101.36 73.288 101.536C73.328 101.712 73.384 101.856 73.456 101.968C73.536 102.072 73.632 102.144 73.744 102.184C73.856 102.224 73.988 102.244 74.14 102.244C74.372 102.244 74.588 102.216 74.788 102.16C74.988 102.104 75.144 102.044 75.256 101.98L75.4 102.82C75.352 102.844 75.284 102.876 75.196 102.916C75.108 102.948 75.004 102.98 74.884 103.012C74.764 103.044 74.632 103.072 74.488 103.096C74.352 103.12 74.208 103.132 74.056 103.132ZM80.056 103.132C79.704 103.132 79.412 103.084 79.18 102.988C78.948 102.892 78.764 102.748 78.628 102.556C78.492 102.364 78.396 102.128 78.34 101.848C78.284 101.56 78.256 101.228 78.256 100.852V95.584H76.648V94.744H79.24V100.852C79.24 101.132 79.256 101.36 79.288 101.536C79.328 101.712 79.384 101.856 79.456 101.968C79.536 102.072 79.632 102.144 79.744 102.184C79.856 102.224 79.988 102.244 80.14 102.244C80.372 102.244 80.588 102.216 80.788 102.16C80.988 102.104 81.144 102.044 81.256 101.98L81.4 102.82C81.352 102.844 81.284 102.876 81.196 102.916C81.108 102.948 81.004 102.98 80.884 103.012C80.764 103.044 80.632 103.072 80.488 103.096C80.352 103.12 80.208 103.132 80.056 103.132Z" fill="black"/>
<rect x="192.5" y="85.5" width="49" height="27" rx="2.5" fill="#B8972C" fill-opacity="0.4" stroke="#5A6770"/>
<path d="M204.172 97.84C204.172 98.296 204.052 98.7 203.812 99.052C203.572 99.396 203.248 99.664 202.84 99.856C202.96 100.048 203.092 100.268 203.236 100.516C203.388 100.756 203.54 101.016 203.692 101.296C203.844 101.568 203.992 101.852 204.136 102.148C204.288 102.436 204.428 102.72 204.556 103H203.5C203.26 102.424 202.996 101.872 202.708 101.344C202.428 100.816 202.156 100.388 201.892 100.06C201.844 100.068 201.772 100.072 201.676 100.072C201.588 100.072 201.528 100.072 201.496 100.072H200.656V103H199.66V95.68C199.78 95.648 199.916 95.62 200.068 95.596C200.228 95.572 200.388 95.556 200.548 95.548C200.716 95.532 200.88 95.52 201.04 95.512C201.2 95.504 201.344 95.5 201.472 95.5C202.368 95.5 203.04 95.696 203.488 96.088C203.944 96.48 204.172 97.064 204.172 97.84ZM201.556 96.352C201.372 96.352 201.192 96.356 201.016 96.364C200.848 96.364 200.728 96.372 200.656 96.388V99.256H201.292C201.58 99.256 201.836 99.236 202.06 99.196C202.292 99.156 202.488 99.084 202.648 98.98C202.816 98.868 202.944 98.72 203.032 98.536C203.12 98.344 203.164 98.096 203.164 97.792C203.164 97.504 203.12 97.268 203.032 97.084C202.944 96.9 202.828 96.756 202.684 96.652C202.54 96.54 202.368 96.464 202.168 96.424C201.976 96.376 201.772 96.352 201.556 96.352ZM208.108 97.3C208.86 97.3 209.44 97.536 209.848 98.008C210.256 98.472 210.46 99.18 210.46 100.132V100.48H206.476C206.516 101.056 206.704 101.496 207.04 101.8C207.384 102.096 207.864 102.244 208.48 102.244C208.832 102.244 209.132 102.216 209.38 102.16C209.628 102.104 209.816 102.044 209.944 101.98L210.076 102.82C209.956 102.884 209.74 102.952 209.428 103.024C209.116 103.096 208.764 103.132 208.372 103.132C207.892 103.132 207.468 103.06 207.1 102.916C206.74 102.764 206.44 102.56 206.2 102.304C205.96 102.048 205.78 101.744 205.66 101.392C205.54 101.032 205.48 100.644 205.48 100.228C205.48 99.732 205.556 99.3 205.708 98.932C205.86 98.564 206.06 98.26 206.308 98.02C206.556 97.78 206.836 97.6 207.148 97.48C207.46 97.36 207.78 97.3 208.108 97.3ZM209.452 99.676C209.452 99.204 209.328 98.832 209.08 98.56C208.832 98.28 208.504 98.14 208.096 98.14C207.864 98.14 207.652 98.184 207.46 98.272C207.276 98.36 207.116 98.476 206.98 98.62C206.844 98.764 206.736 98.928 206.656 99.112C206.576 99.296 206.524 99.484 206.5 99.676H209.452ZM212.932 103V98.26H211.756V97.432H212.932V96.928C212.932 96.496 212.992 96.14 213.112 95.86C213.232 95.572 213.388 95.34 213.58 95.164C213.78 94.988 214.008 94.864 214.264 94.792C214.528 94.72 214.804 94.684 215.092 94.684C215.38 94.684 215.668 94.716 215.956 94.78C216.252 94.844 216.528 94.92 216.784 95.008L216.604 95.86C216.428 95.772 216.208 95.696 215.944 95.632C215.68 95.568 215.412 95.536 215.14 95.536C214.972 95.536 214.812 95.56 214.66 95.608C214.516 95.648 214.388 95.724 214.276 95.836C214.164 95.94 214.076 96.084 214.012 96.268C213.948 96.444 213.916 96.668 213.916 96.94V97.432H216.16V98.26H213.916V103H212.932ZM219.508 96.568C219.3 96.568 219.12 96.496 218.968 96.352C218.816 96.208 218.74 96.012 218.74 95.764C218.74 95.516 218.816 95.32 218.968 95.176C219.12 95.032 219.3 94.96 219.508 94.96C219.724 94.96 219.904 95.032 220.048 95.176C220.2 95.32 220.276 95.516 220.276 95.764C220.276 96.012 220.2 96.208 220.048 96.352C219.904 96.496 219.724 96.568 219.508 96.568ZM219.256 98.26H217.648V97.432H220.24V100.852C220.24 101.404 220.316 101.776 220.468 101.968C220.62 102.152 220.848 102.244 221.152 102.244C221.384 102.244 221.596 102.216 221.788 102.16C221.988 102.104 222.144 102.044 222.256 101.98L222.4 102.82C222.352 102.844 222.284 102.876 222.196 102.916C222.108 102.948 222.004 102.98 221.884 103.012C221.772 103.044 221.644 103.072 221.5 103.096C221.364 103.12 221.22 103.132 221.068 103.132C220.716 103.132 220.424 103.084 220.192 102.988C219.96 102.892 219.772 102.748 219.628 102.556C219.492 102.364 219.396 102.128 219.34 101.848C219.284 101.56 219.256 101.228 219.256 100.852V98.26ZM227.056 103.132C226.704 103.132 226.412 103.084 226.18 102.988C225.948 102.892 225.764 102.748 225.628 102.556C225.492 102.364 225.396 102.128 225.34 101.848C225.284 101.56 225.256 101.228 225.256 100.852V95.584H223.648V94.744H226.24V100.852C226.24 101.132 226.256 101.36 226.288 101.536C226.328 101.712 226.384 101.856 226.456 101.968C226.536 102.072 226.632 102.144 226.744 102.184C226.856 102.224 226.988 102.244 227.14 102.244C227.372 102.244 227.588 102.216 227.788 102.16C227.988 102.104 228.144 102.044 228.256 101.98L228.4 102.82C228.352 102.844 228.284 102.876 228.196 102.916C228.108 102.948 228.004 102.98 227.884 103.012C227.764 103.044 227.632 103.072 227.488 103.096C227.352 103.12 227.208 103.132 227.056 103.132ZM233.056 103.132C232.704 103.132 232.412 103.084 232.18 102.988C231.948 102.892 231.764 102.748 231.628 102.556C231.492 102.364 231.396 102.128 231.34 101.848C231.284 101.56 231.256 101.228 231.256 100.852V95.584H229.648V94.744H232.24V100.852C232.24 101.132 232.256 101.36 232.288 101.536C232.328 101.712 232.384 101.856 232.456 101.968C232.536 102.072 232.632 102.144 232.744 102.184C232.856 102.224 232.988 102.244 233.14 102.244C233.372 102.244 233.588 102.216 233.788 102.16C233.988 102.104 234.144 102.044 234.256 101.98L234.4 102.82C234.352 102.844 234.284 102.876 234.196 102.916C234.108 102.948 234.004 102.98 233.884 103.012C233.764 103.044 233.632 103.072 233.488 103.096C233.352 103.12 233.208 103.132 233.056 103.132Z" fill="black"/>
<rect x="345.5" y="85.5" width="49" height="27" rx="2.5" fill="#B8972C" fill-opacity="0.4" stroke="#5A6770"/>
<path d="M357.172 97.84C357.172 98.296 357.052 98.7 356.812 99.052C356.572 99.396 356.248 99.664 355.84 99.856C355.96 100.048 356.092 100.268 356.236 100.516C356.388 100.756 356.54 101.016 356.692 101.296C356.844 101.568 356.992 101.852 357.136 102.148C357.288 102.436 357.428 102.72 357.556 103H356.5C356.26 102.424 355.996 101.872 355.708 101.344C355.428 100.816 355.156 100.388 354.892 100.06C354.844 100.068 354.772 100.072 354.676 100.072C354.588 100.072 354.528 100.072 354.496 100.072H353.656V103H352.66V95.68C352.78 95.648 352.916 95.62 353.068 95.596C353.228 95.572 353.388 95.556 353.548 95.548C353.716 95.532 353.88 95.52 354.04 95.512C354.2 95.504 354.344 95.5 354.472 95.5C355.368 95.5 356.04 95.696 356.488 96.088C356.944 96.48 357.172 97.064 357.172 97.84ZM354.556 96.352C354.372 96.352 354.192 96.356 354.016 96.364C353.848 96.364 353.728 96.372 353.656 96.388V99.256H354.292C354.58 99.256 354.836 99.236 355.06 99.196C355.292 99.156 355.488 99.084 355.648 98.98C355.816 98.868 355.944 98.72 356.032 98.536C356.12 98.344 356.164 98.096 356.164 97.792C356.164 97.504 356.12 97.268 356.032 97.084C355.944 96.9 355.828 96.756 355.684 96.652C355.54 96.54 355.368 96.464 355.168 96.424C354.976 96.376 354.772 96.352 354.556 96.352ZM361.108 97.3C361.86 97.3 362.44 97.536 362.848 98.008C363.256 98.472 363.46 99.18 363.46 100.132V100.48H359.476C359.516 101.056 359.704 101.496 360.04 101.8C360.384 102.096 360.864 102.244 361.48 102.244C361.832 102.244 362.132 102.216 362.38 102.16C362.628 102.104 362.816 102.044 362.944 101.98L363.076 102.82C362.956 102.884 362.74 102.952 362.428 103.024C362.116 103.096 361.764 103.132 361.372 103.132C360.892 103.132 360.468 103.06 360.1 102.916C359.74 102.764 359.44 102.56 359.2 102.304C358.96 102.048 358.78 101.744 358.66 101.392C358.54 101.032 358.48 100.644 358.48 100.228C358.48 99.732 358.556 99.3 358.708 98.932C358.86 98.564 359.06 98.26 359.308 98.02C359.556 97.78 359.836 97.6 360.148 97.48C360.46 97.36 360.78 97.3 361.108 97.3ZM362.452 99.676C362.452 99.204 362.328 98.832 362.08 98.56C361.832 98.28 361.504 98.14 361.096 98.14C360.864 98.14 360.652 98.184 360.46 98.272C360.276 98.36 360.116 98.476 359.98 98.62C359.844 98.764 359.736 98.928 359.656 99.112C359.576 99.296 359.524 99.484 359.5 99.676H362.452ZM365.932 103V98.26H364.756V97.432H365.932V96.928C365.932 96.496 365.992 96.14 366.112 95.86C366.232 95.572 366.388 95.34 366.58 95.164C366.78 94.988 367.008 94.864 367.264 94.792C367.528 94.72 367.804 94.684 368.092 94.684C368.38 94.684 368.668 94.716 368.956 94.78C369.252 94.844 369.528 94.92 369.784 95.008L369.604 95.86C369.428 95.772 369.208 95.696 368.944 95.632C368.68 95.568 368.412 95.536 368.14 95.536C367.972 95.536 367.812 95.56 367.66 95.608C367.516 95.648 367.388 95.724 367.276 95.836C367.164 95.94 367.076 96.084 367.012 96.268C366.948 96.444 366.916 96.668 366.916 96.94V97.432H369.16V98.26H366.916V103H365.932ZM372.508 96.568C372.3 96.568 372.12 96.496 371.968 96.352C371.816 96.208 371.74 96.012 371.74 95.764C371.74 95.516 371.816 95.32 371.968 95.176C372.12 95.032 372.3 94.96 372.508 94.96C372.724 94.96 372.904 95.032 373.048 95.176C373.2 95.32 373.276 95.516 373.276 95.764C373.276 96.012 373.2 96.208 373.048 96.352C372.904 96.496 372.724 96.568 372.508 96.568ZM372.256 98.26H370.648V97.432H373.24V100.852C373.24 101.404 373.316 101.776 373.468 101.968C373.62 102.152 373.848 102.244 374.152 102.244C374.384 102.244 374.596 102.216 374.788 102.16C374.988 102.104 375.144 102.044 375.256 101.98L375.4 102.82C375.352 102.844 375.284 102.876 375.196 102.916C375.108 102.948 375.004 102.98 374.884 103.012C374.772 103.044 374.644 103.072 374.5 103.096C374.364 103.12 374.22 103.132 374.068 103.132C373.716 103.132 373.424 103.084 373.192 102.988C372.96 102.892 372.772 102.748 372.628 102.556C372.492 102.364 372.396 102.128 372.34 101.848C372.284 101.56 372.256 101.228 372.256 100.852V98.26ZM380.056 103.132C379.704 103.132 379.412 103.084 379.18 102.988C378.948 102.892 378.764 102.748 378.628 102.556C378.492 102.364 378.396 102.128 378.34 101.848C378.284 101.56 378.256 101.228 378.256 100.852V95.584H376.648V94.744H379.24V100.852C379.24 101.132 379.256 101.36 379.288 101.536C379.328 101.712 379.384 101.856 379.456 101.968C379.536 102.072 379.632 102.144 379.744 102.184C379.856 102.224 379.988 102.244 380.14 102.244C380.372 102.244 380.588 102.216 380.788 102.16C380.988 102.104 381.144 102.044 381.256 101.98L381.4 102.82C381.352 102.844 381.284 102.876 381.196 102.916C381.108 102.948 381.004 102.98 380.884 103.012C380.764 103.044 380.632 103.072 380.488 103.096C380.352 103.12 380.208 103.132 380.056 103.132ZM386.056 103.132C385.704 103.132 385.412 103.084 385.18 102.988C384.948 102.892 384.764 102.748 384.628 102.556C384.492 102.364 384.396 102.128 384.34 101.848C384.284 101.56 384.256 101.228 384.256 100.852V95.584H382.648V94.744H385.24V100.852C385.24 101.132 385.256 101.36 385.288 101.536C385.328 101.712 385.384 101.856 385.456 101.968C385.536 102.072 385.632 102.144 385.744 102.184C385.856 102.224 385.988 102.244 386.14 102.244C386.372 102.244 386.588 102.216 386.788 102.16C386.988 102.104 387.144 102.044 387.256 101.98L387.4 102.82C387.352 102.844 387.284 102.876 387.196 102.916C387.108 102.948 387.004 102.98 386.884 103.012C386.764 103.044 386.632 103.072 386.488 103.096C386.352 103.12 386.208 103.132 386.056 103.132Z" fill="black"/>
<rect x="498.5" y="85.5" width="49" height="27" rx="2.5" fill="#B8972C" fill-opacity="0.4" stroke="#5A6770"/>
<path d="M510.172 97.84C510.172 98.296 510.052 98.7 509.812 99.052C509.572 99.396 509.248 99.664 508.84 99.856C508.96 100.048 509.092 100.268 509.236 100.516C509.388 100.756 509.54 101.016 509.692 101.296C509.844 101.568 509.992 101.852 510.136 102.148C510.288 102.436 510.428 102.72 510.556 103H509.5C509.26 102.424 508.996 101.872 508.708 101.344C508.428 100.816 508.156 100.388 507.892 100.06C507.844 100.068 507.772 100.072 507.676 100.072C507.588 100.072 507.528 100.072 507.496 100.072H506.656V103H505.66V95.68C505.78 95.648 505.916 95.62 506.068 95.596C506.228 95.572 506.388 95.556 506.548 95.548C506.716 95.532 506.88 95.52 507.04 95.512C507.2 95.504 507.344 95.5 507.472 95.5C508.368 95.5 509.04 95.696 509.488 96.088C509.944 96.48 510.172 97.064 510.172 97.84ZM507.556 96.352C507.372 96.352 507.192 96.356 507.016 96.364C506.848 96.364 506.728 96.372 506.656 96.388V99.256H507.292C507.58 99.256 507.836 99.236 508.06 99.196C508.292 99.156 508.488 99.084 508.648 98.98C508.816 98.868 508.944 98.72 509.032 98.536C509.12 98.344 509.164 98.096 509.164 97.792C509.164 97.504 509.12 97.268 509.032 97.084C508.944 96.9 508.828 96.756 508.684 96.652C508.54 96.54 508.368 96.464 508.168 96.424C507.976 96.376 507.772 96.352 507.556 96.352ZM514.108 97.3C514.86 97.3 515.44 97.536 515.848 98.008C516.256 98.472 516.46 99.18 516.46 100.132V100.48H512.476C512.516 101.056 512.704 101.496 513.04 101.8C513.384 102.096 513.864 102.244 514.48 102.244C514.832 102.244 515.132 102.216 515.38 102.16C515.628 102.104 515.816 102.044 515.944 101.98L516.076 102.82C515.956 102.884 515.74 102.952 515.428 103.024C515.116 103.096 514.764 103.132 514.372 103.132C513.892 103.132 513.468 103.06 513.1 102.916C512.74 102.764 512.44 102.56 512.2 102.304C511.96 102.048 511.78 101.744 511.66 101.392C511.54 101.032 511.48 100.644 511.48 100.228C511.48 99.732 511.556 99.3 511.708 98.932C511.86 98.564 512.06 98.26 512.308 98.02C512.556 97.78 512.836 97.6 513.148 97.48C513.46 97.36 513.78 97.3 514.108 97.3ZM515.452 99.676C515.452 99.204 515.328 98.832 515.08 98.56C514.832 98.28 514.504 98.14 514.096 98.14C513.864 98.14 513.652 98.184 513.46 98.272C513.276 98.36 513.116 98.476 512.98 98.62C512.844 98.764 512.736 98.928 512.656 99.112C512.576 99.296 512.524 99.484 512.5 99.676H515.452ZM518.932 103V98.26H517.756V97.432H518.932V96.928C518.932 96.496 518.992 96.14 519.112 95.86C519.232 95.572 519.388 95.34 519.58 95.164C519.78 94.988 520.008 94.864 520.264 94.792C520.528 94.72 520.804 94.684 521.092 94.684C521.38 94.684 521.668 94.716 521.956 94.78C522.252 94.844 522.528 94.92 522.784 95.008L522.604 95.86C522.428 95.772 522.208 95.696 521.944 95.632C521.68 95.568 521.412 95.536 521.14 95.536C520.972 95.536 520.812 95.56 520.66 95.608C520.516 95.648 520.388 95.724 520.276 95.836C520.164 95.94 520.076 96.084 520.012 96.268C519.948 96.444 519.916 96.668 519.916 96.94V97.432H522.16V98.26H519.916V103H518.932ZM525.508 96.568C525.3 96.568 525.12 96.496 524.968 96.352C524.816 96.208 524.74 96.012 524.74 95.764C524.74 95.516 524.816 95.32 524.968 95.176C525.12 95.032 525.3 94.96 525.508 94.96C525.724 94.96 525.904 95.032 526.048 95.176C526.2 95.32 526.276 95.516 526.276 95.764C526.276 96.012 526.2 96.208 526.048 96.352C525.904 96.496 525.724 96.568 525.508 96.568ZM525.256 98.26H523.648V97.432H526.24V100.852C526.24 101.404 526.316 101.776 526.468 101.968C526.62 102.152 526.848 102.244 527.152 102.244C527.384 102.244 527.596 102.216 527.788 102.16C527.988 102.104 528.144 102.044 528.256 101.98L528.4 102.82C528.352 102.844 528.284 102.876 528.196 102.916C528.108 102.948 528.004 102.98 527.884 103.012C527.772 103.044 527.644 103.072 527.5 103.096C527.364 103.12 527.22 103.132 527.068 103.132C526.716 103.132 526.424 103.084 526.192 102.988C525.96 102.892 525.772 102.748 525.628 102.556C525.492 102.364 525.396 102.128 525.34 101.848C525.284 101.56 525.256 101.228 525.256 100.852V98.26ZM533.056 103.132C532.704 103.132 532.412 103.084 532.18 102.988C531.948 102.892 531.764 102.748 531.628 102.556C531.492 102.364 531.396 102.128 531.34 101.848C531.284 101.56 531.256 101.228 531.256 100.852V95.584H529.648V94.744H532.24V100.852C532.24 101.132 532.256 101.36 532.288 101.536C532.328 101.712 532.384 101.856 532.456 101.968C532.536 102.072 532.632 102.144 532.744 102.184C532.856 102.224 532.988 102.244 533.14 102.244C533.372 102.244 533.588 102.216 533.788 102.16C533.988 102.104 534.144 102.044 534.256 101.98L534.4 102.82C534.352 102.844 534.284 102.876 534.196 102.916C534.108 102.948 534.004 102.98 533.884 103.012C533.764 103.044 533.632 103.072 533.488 103.096C533.352 103.12 533.208 103.132 533.056 103.132ZM539.056 103.132C538.704 103.132 538.412 103.084 538.18 102.988C537.948 102.892 537.764 102.748 537.628 102.556C537.492 102.364 537.396 102.128 537.34 101.848C537.284 101.56 537.256 101.228 537.256 100.852V95.584H535.648V94.744H538.24V100.852C538.24 101.132 538.256 101.36 538.288 101.536C538.328 101.712 538.384 101.856 538.456 101.968C538.536 102.072 538.632 102.144 538.744 102.184C538.856 102.224 538.988 102.244 539.14 102.244C539.372 102.244 539.588 102.216 539.788 102.16C539.988 102.104 540.144 102.044 540.256 101.98L540.4 102.82C540.352 102.844 540.284 102.876 540.196 102.916C540.108 102.948 540.004 102.98 539.884 103.012C539.764 103.044 539.632 103.072 539.488 103.096C539.352 103.12 539.208 103.132 539.056 103.132Z" fill="black"/>
<rect x="651.5" y="85.5" width="49" height="27" rx="2.5" fill="#B8972C" fill-opacity="0.4" stroke="#5A6770"/>
<path d="M663.172 97.84C663.172 98.296 663.052 98.7 662.812 99.052C662.572 99.396 662.248 99.664 661.84 99.856C661.96 100.048 662.092 100.268 662.236 100.516C662.388 100.756 662.54 101.016 662.692 101.296C662.844 101.568 662.992 101.852 663.136 102.148C663.288 102.436 663.428 102.72 663.556 103H662.5C662.26 102.424 661.996 101.872 661.708 101.344C661.428 100.816 661.156 100.388 660.892 100.06C660.844 100.068 660.772 100.072 660.676 100.072C660.588 100.072 660.528 100.072 660.496 100.072H659.656V103H658.66V95.68C658.78 95.648 658.916 95.62 659.068 95.596C659.228 95.572 659.388 95.556 659.548 95.548C659.716 95.532 659.88 95.52 660.04 95.512C660.2 95.504 660.344 95.5 660.472 95.5C661.368 95.5 662.04 95.696 662.488 96.088C662.944 96.48 663.172 97.064 663.172 97.84ZM660.556 96.352C660.372 96.352 660.192 96.356 660.016 96.364C659.848 96.364 659.728 96.372 659.656 96.388V99.256H660.292C660.58 99.256 660.836 99.236 661.06 99.196C661.292 99.156 661.488 99.084 661.648 98.98C661.816 98.868 661.944 98.72 662.032 98.536C662.12 98.344 662.164 98.096 662.164 97.792C662.164 97.504 662.12 97.268 662.032 97.084C661.944 96.9 661.828 96.756 661.684 96.652C661.54 96.54 661.368 96.464 661.168 96.424C660.976 96.376 660.772 96.352 660.556 96.352ZM667.108 97.3C667.86 97.3 668.44 97.536 668.848 98.008C669.256 98.472 669.46 99.18 669.46 100.132V100.48H665.476C665.516 101.056 665.704 101.496 666.04 101.8C666.384 102.096 666.864 102.244 667.48 102.244C667.832 102.244 668.132 102.216 668.38 102.16C668.628 102.104 668.816 102.044 668.944 101.98L669.076 102.82C668.956 102.884 668.74 102.952 668.428 103.024C668.116 103.096 667.764 103.132 667.372 103.132C666.892 103.132 666.468 103.06 666.1 102.916C665.74 102.764 665.44 102.56 665.2 102.304C664.96 102.048 664.78 101.744 664.66 101.392C664.54 101.032 664.48 100.644 664.48 100.228C664.48 99.732 664.556 99.3 664.708 98.932C664.86 98.564 665.06 98.26 665.308 98.02C665.556 97.78 665.836 97.6 666.148 97.48C666.46 97.36 666.78 97.3 667.108 97.3ZM668.452 99.676C668.452 99.204 668.328 98.832 668.08 98.56C667.832 98.28 667.504 98.14 667.096 98.14C666.864 98.14 666.652 98.184 666.46 98.272C666.276 98.36 666.116 98.476 665.98 98.62C665.844 98.764 665.736 98.928 665.656 99.112C665.576 99.296 665.524 99.484 665.5 99.676H668.452ZM671.932 103V98.26H670.756V97.432H671.932V96.928C671.932 96.496 671.992 96.14 672.112 95.86C672.232 95.572 672.388 95.34 672.58 95.164C672.78 94.988 673.008 94.864 673.264 94.792C673.528 94.72 673.804 94.684 674.092 94.684C674.38 94.684 674.668 94.716 674.956 94.78C675.252 94.844 675.528 94.92 675.784 95.008L675.604 95.86C675.428 95.772 675.208 95.696 674.944 95.632C674.68 95.568 674.412 95.536 674.14 95.536C673.972 95.536 673.812 95.56 673.66 95.608C673.516 95.648 673.388 95.724 673.276 95.836C673.164 95.94 673.076 96.084 673.012 96.268C672.948 96.444 672.916 96.668 672.916 96.94V97.432H675.16V98.26H672.916V103H671.932ZM678.508 96.568C678.3 96.568 678.12 96.496 677.968 96.352C677.816 96.208 677.74 96.012 677.74 95.764C677.74 95.516 677.816 95.32 677.968 95.176C678.12 95.032 678.3 94.96 678.508 94.96C678.724 94.96 678.904 95.032 679.048 95.176C679.2 95.32 679.276 95.516 679.276 95.764C679.276 96.012 679.2 96.208 679.048 96.352C678.904 96.496 678.724 96.568 678.508 96.568ZM678.256 98.26H676.648V97.432H679.24V100.852C679.24 101.404 679.316 101.776 679.468 101.968C679.62 102.152 679.848 102.244 680.152 102.244C680.384 102.244 680.596 102.216 680.788 102.16C680.988 102.104 681.144 102.044 681.256 101.98L681.4 102.82C681.352 102.844 681.284 102.876 681.196 102.916C681.108 102.948 681.004 102.98 680.884 103.012C680.772 103.044 680.644 103.072 680.5 103.096C680.364 103.12 680.22 103.132 680.068 103.132C679.716 103.132 679.424 103.084 679.192 102.988C678.96 102.892 678.772 102.748 678.628 102.556C678.492 102.364 678.396 102.128 678.34 101.848C678.284 101.56 678.256 101.228 678.256 100.852V98.26ZM686.056 103.132C685.704 103.132 685.412 103.084 685.18 102.988C684.948 102.892 684.764 102.748 684.628 102.556C684.492 102.364 684.396 102.128 684.34 101.848C684.284 101.56 684.256 101.228 684.256 100.852V95.584H682.648V94.744H685.24V100.852C685.24 101.132 685.256 101.36 685.288 101.536C685.328 101.712 685.384 101.856 685.456 101.968C685.536 102.072 685.632 102.144 685.744 102.184C685.856 102.224 685.988 102.244 686.14 102.244C686.372 102.244 686.588 102.216 686.788 102.16C686.988 102.104 687.144 102.044 687.256 101.98L687.4 102.82C687.352 102.844 687.284 102.876 687.196 102.916C687.108 102.948 687.004 102.98 686.884 103.012C686.764 103.044 686.632 103.072 686.488 103.096C686.352 103.12 686.208 103.132 686.056 103.132ZM692.056 103.132C691.704 103.132 691.412 103.084 691.18 102.988C690.948 102.892 690.764 102.748 690.628 102.556C690.492 102.364 690.396 102.128 690.34 101.848C690.284 101.56 690.256 101.228 690.256 100.852V95.584H688.648V94.744H691.24V100.852C691.24 101.132 691.256 101.36 691.288 101.536C691.328 101.712 691.384 101.856 691.456 101.968C691.536 102.072 691.632 102.144 691.744 102.184C691.856 102.224 691.988 102.244 692.14 102.244C692.372 102.244 692.588 102.216 692.788 102.16C692.988 102.104 693.144 102.044 693.256 101.98L693.4 102.82C693.352 102.844 693.284 102.876 693.196 102.916C693.108 102.948 693.004 102.98 692.884 103.012C692.764 103.044 692.632 103.072 692.488 103.096C692.352 103.12 692.208 103.132 692.056 103.132Z" fill="black"/>
<path d="M48.308 245.304C48.812 245.304 49.196 245.208 49.46 245.016C49.724 244.824 49.856 244.536 49.856 244.152C49.856 243.92 49.808 243.724 49.712 243.564C49.616 243.396 49.488 243.252 49.328 243.132C49.168 243.004 48.988 242.896 48.788 242.808C48.588 242.712 48.384 242.624 48.176 242.544C47.936 242.448 47.704 242.34 47.48 242.22C47.264 242.1 47.068 241.96 46.892 241.8C46.724 241.64 46.588 241.452 46.484 241.236C46.388 241.02 46.34 240.764 46.34 240.468C46.34 239.82 46.544 239.316 46.952 238.956C47.36 238.588 47.928 238.404 48.656 238.404C48.856 238.404 49.052 238.42 49.244 238.452C49.444 238.476 49.628 238.508 49.796 238.548C49.964 238.588 50.112 238.636 50.24 238.692C50.376 238.748 50.484 238.804 50.564 238.86L50.252 239.688C50.092 239.592 49.872 239.496 49.592 239.4C49.312 239.304 49 239.256 48.656 239.256C48.296 239.256 47.984 239.348 47.72 239.532C47.456 239.708 47.324 239.976 47.324 240.336C47.324 240.544 47.36 240.72 47.432 240.864C47.512 241.008 47.616 241.136 47.744 241.248C47.88 241.352 48.036 241.448 48.212 241.536C48.388 241.624 48.58 241.712 48.788 241.8C49.092 241.928 49.368 242.056 49.616 242.184C49.872 242.312 50.088 242.464 50.264 242.64C50.448 242.816 50.588 243.024 50.684 243.264C50.788 243.504 50.84 243.796 50.84 244.14C50.84 244.788 50.62 245.288 50.18 245.64C49.748 245.984 49.124 246.156 48.308 246.156C48.044 246.156 47.796 246.136 47.564 246.096C47.332 246.064 47.124 246.02 46.94 245.964C46.764 245.908 46.608 245.852 46.472 245.796C46.336 245.74 46.232 245.688 46.16 245.64L46.46 244.824C46.62 244.912 46.856 245.016 47.168 245.136C47.48 245.248 47.86 245.304 48.308 245.304ZM56.648 245.844C56.432 245.9 56.144 245.96 55.784 246.024C55.432 246.088 55.016 246.12 54.536 246.12C54.112 246.12 53.76 246.06 53.48 245.94C53.2 245.812 52.972 245.636 52.796 245.412C52.62 245.18 52.496 244.908 52.424 244.596C52.352 244.284 52.316 243.94 52.316 243.564V240.432H53.3V243.348C53.3 244.036 53.4 244.524 53.6 244.812C53.808 245.1 54.152 245.244 54.632 245.244C54.736 245.244 54.84 245.24 54.944 245.232C55.056 245.224 55.16 245.216 55.256 245.208C55.352 245.192 55.436 245.18 55.508 245.172C55.58 245.156 55.628 245.144 55.652 245.136V240.432H56.648V245.844ZM58.088 243.228C58.088 242.724 58.168 242.288 58.328 241.92C58.488 241.552 58.708 241.248 58.988 241.008C59.268 240.768 59.592 240.592 59.96 240.48C60.336 240.36 60.736 240.3 61.16 240.3C61.432 240.3 61.7 240.32 61.964 240.36C62.236 240.392 62.524 240.456 62.828 240.552L62.6 241.404C62.336 241.308 62.092 241.248 61.868 241.224C61.652 241.192 61.432 241.176 61.208 241.176C60.92 241.176 60.648 241.216 60.392 241.296C60.136 241.368 59.912 241.488 59.72 241.656C59.536 241.816 59.388 242.028 59.276 242.292C59.164 242.548 59.108 242.86 59.108 243.228C59.108 243.58 59.16 243.884 59.264 244.14C59.368 244.388 59.512 244.596 59.696 244.764C59.888 244.924 60.116 245.044 60.38 245.124C60.644 245.204 60.936 245.244 61.256 245.244C61.512 245.244 61.756 245.232 61.988 245.208C62.228 245.176 62.488 245.112 62.768 245.016L62.912 245.844C62.632 245.948 62.348 246.02 62.06 246.06C61.772 246.108 61.46 246.132 61.124 246.132C60.676 246.132 60.264 246.072 59.888 245.952C59.52 245.824 59.2 245.64 58.928 245.4C58.664 245.16 58.456 244.86 58.304 244.5C58.16 244.132 58.088 243.708 58.088 243.228ZM64.088 243.228C64.088 242.724 64.168 242.288 64.328 241.92C64.488 241.552 64.708 241.248 64.988 241.008C65.268 240.768 65.592 240.592 65.96 240.48C66.336 240.36 66.736 240.3 67.16 240.3C67.432 240.3 67.7 240.32 67.964 240.36C68.236 240.392 68.524 240.456 68.828 240.552L68.6 241.404C68.336 241.308 68.092 241.248 67.868 241.224C67.652 241.192 67.432 241.176 67.208 241.176C66.92 241.176 66.648 241.216 66.392 241.296C66.136 241.368 65.912 241.488 65.72 241.656C65.536 241.816 65.388 242.028 65.276 242.292C65.164 242.548 65.108 242.86 65.108 243.228C65.108 243.58 65.16 243.884 65.264 244.14C65.368 244.388 65.512 244.596 65.696 244.764C65.888 244.924 66.116 245.044 66.38 245.124C66.644 245.204 66.936 245.244 67.256 245.244C67.512 245.244 67.756 245.232 67.988 245.208C68.228 245.176 68.488 245.112 68.768 245.016L68.912 245.844C68.632 245.948 68.348 246.02 68.06 246.06C67.772 246.108 67.46 246.132 67.124 246.132C66.676 246.132 66.264 246.072 65.888 245.952C65.52 245.824 65.2 245.64 64.928 245.4C64.664 245.16 64.456 244.86 64.304 244.5C64.16 244.132 64.088 243.708 64.088 243.228ZM72.608 240.3C73.36 240.3 73.94 240.536 74.348 241.008C74.756 241.472 74.96 242.18 74.96 243.132V243.48H70.976C71.016 244.056 71.204 244.496 71.54 244.8C71.884 245.096 72.364 245.244 72.98 245.244C73.332 245.244 73.632 245.216 73.88 245.16C74.128 245.104 74.316 245.044 74.444 244.98L74.576 245.82C74.456 245.884 74.24 245.952 73.928 246.024C73.616 246.096 73.264 246.132 72.872 246.132C72.392 246.132 71.968 246.06 71.6 245.916C71.24 245.764 70.94 245.56 70.7 245.304C70.46 245.048 70.28 244.744 70.16 244.392C70.04 244.032 69.98 243.644 69.98 243.228C69.98 242.732 70.056 242.3 70.208 241.932C70.36 241.564 70.56 241.26 70.808 241.02C71.056 240.78 71.336 240.6 71.648 240.48C71.96 240.36 72.28 240.3 72.608 240.3ZM73.952 242.676C73.952 242.204 73.828 241.832 73.58 241.56C73.332 241.28 73.004 241.14 72.596 241.14C72.364 241.14 72.152 241.184 71.96 241.272C71.776 241.36 71.616 241.476 71.48 241.62C71.344 241.764 71.236 241.928 71.156 242.112C71.076 242.296 71.024 242.484 71 242.676H73.952ZM79.712 244.608C79.712 244.408 79.628 244.244 79.46 244.116C79.3 243.988 79.096 243.876 78.848 243.78C78.608 243.684 78.344 243.592 78.056 243.504C77.768 243.408 77.5 243.292 77.252 243.156C77.012 243.02 76.808 242.852 76.64 242.652C76.48 242.452 76.4 242.192 76.4 241.872C76.4 241.424 76.58 241.052 76.94 240.756C77.308 240.452 77.88 240.3 78.656 240.3C78.96 240.3 79.272 240.324 79.592 240.372C79.92 240.412 80.2 240.468 80.432 240.54L80.252 241.428C80.188 241.396 80.1 241.364 79.988 241.332C79.876 241.292 79.748 241.26 79.604 241.236C79.46 241.204 79.304 241.18 79.136 241.164C78.976 241.148 78.82 241.14 78.668 241.14C77.804 241.14 77.372 241.376 77.372 241.848C77.372 242.016 77.452 242.16 77.612 242.28C77.78 242.392 77.988 242.496 78.236 242.592C78.484 242.688 78.752 242.788 79.04 242.892C79.328 242.988 79.596 243.108 79.844 243.252C80.092 243.396 80.296 243.572 80.456 243.78C80.624 243.98 80.708 244.236 80.708 244.548C80.708 245.052 80.512 245.444 80.12 245.724C79.728 245.996 79.108 246.132 78.26 246.132C77.876 246.132 77.524 246.1 77.204 246.036C76.884 245.972 76.58 245.876 76.292 245.748L76.484 244.848C76.764 244.976 77.056 245.084 77.36 245.172C77.672 245.252 78.004 245.292 78.356 245.292C79.26 245.292 79.712 245.064 79.712 244.608ZM85.712 244.608C85.712 244.408 85.628 244.244 85.46 244.116C85.3 243.988 85.096 243.876 84.848 243.78C84.608 243.684 84.344 243.592 84.056 243.504C83.768 243.408 83.5 243.292 83.252 243.156C83.012 243.02 82.808 242.852 82.64 242.652C82.48 242.452 82.4 242.192 82.4 241.872C82.4 241.424 82.58 241.052 82.94 240.756C83.308 240.452 83.88 240.3 84.656 240.3C84.96 240.3 85.272 240.324 85.592 240.372C85.92 240.412 86.2 240.468 86.432 240.54L86.252 241.428C86.188 241.396 86.1 241.364 85.988 241.332C85.876 241.292 85.748 241.26 85.604 241.236C85.46 241.204 85.304 241.18 85.136 241.164C84.976 241.148 84.82 241.14 84.668 241.14C83.804 241.14 83.372 241.376 83.372 241.848C83.372 242.016 83.452 242.16 83.612 242.28C83.78 242.392 83.988 242.496 84.236 242.592C84.484 242.688 84.752 242.788 85.04 242.892C85.328 242.988 85.596 243.108 85.844 243.252C86.092 243.396 86.296 243.572 86.456 243.78C86.624 243.98 86.708 244.236 86.708 244.548C86.708 245.052 86.512 245.444 86.12 245.724C85.728 245.996 85.108 246.132 84.26 246.132C83.876 246.132 83.524 246.1 83.204 246.036C82.884 245.972 82.58 245.876 82.292 245.748L82.484 244.848C82.764 244.976 83.056 245.084 83.36 245.172C83.672 245.252 84.004 245.292 84.356 245.292C85.26 245.292 85.712 245.064 85.712 244.608ZM89.432 246V241.26H88.256V240.432H89.432V239.928C89.432 239.496 89.492 239.14 89.612 238.86C89.732 238.572 89.888 238.34 90.08 238.164C90.28 237.988 90.508 237.864 90.764 237.792C91.028 237.72 91.304 237.684 91.592 237.684C91.88 237.684 92.168 237.716 92.456 237.78C92.752 237.844 93.028 237.92 93.284 238.008L93.104 238.86C92.928 238.772 92.708 238.696 92.444 238.632C92.18 238.568 91.912 238.536 91.64 238.536C91.472 238.536 91.312 238.56 91.16 238.608C91.016 238.648 90.888 238.724 90.776 238.836C90.664 238.94 90.576 239.084 90.512 239.268C90.448 239.444 90.416 239.668 90.416 239.94V240.432H92.66V241.26H90.416V246H89.432ZM98.648 245.844C98.432 245.9 98.144 245.96 97.784 246.024C97.432 246.088 97.016 246.12 96.536 246.12C96.112 246.12 95.76 246.06 95.48 245.94C95.2 245.812 94.972 245.636 94.796 245.412C94.62 245.18 94.496 244.908 94.424 244.596C94.352 244.284 94.316 243.94 94.316 243.564V240.432H95.3V243.348C95.3 244.036 95.4 244.524 95.6 244.812C95.808 245.1 96.152 245.244 96.632 245.244C96.736 245.244 96.84 245.24 96.944 245.232C97.056 245.224 97.16 245.216 97.256 245.208C97.352 245.192 97.436 245.18 97.508 245.172C97.58 245.156 97.628 245.144 97.652 245.136V240.432H98.648V245.844ZM103.556 246.132C103.204 246.132 102.912 246.084 102.68 245.988C102.448 245.892 102.264 245.748 102.128 245.556C101.992 245.364 101.896 245.128 101.84 244.848C101.784 244.56 101.756 244.228 101.756 243.852V238.584H100.148V237.744H102.74V243.852C102.74 244.132 102.756 244.36 102.788 244.536C102.828 244.712 102.884 244.856 102.956 244.968C103.036 245.072 103.132 245.144 103.244 245.184C103.356 245.224 103.488 245.244 103.64 245.244C103.872 245.244 104.088 245.216 104.288 245.16C104.488 245.104 104.644 245.044 104.756 244.98L104.9 245.82C104.852 245.844 104.784 245.876 104.696 245.916C104.608 245.948 104.504 245.98 104.384 246.012C104.264 246.044 104.132 246.072 103.988 246.096C103.852 246.12 103.708 246.132 103.556 246.132ZM106.112 247.044C106.184 247.084 106.284 247.116 106.412 247.14C106.548 247.164 106.672 247.176 106.784 247.176C107.176 247.176 107.48 247.088 107.696 246.912C107.92 246.744 108.124 246.464 108.308 246.072C107.86 245.224 107.44 244.316 107.048 243.348C106.656 242.372 106.332 241.4 106.076 240.432H107.156C107.236 240.752 107.328 241.1 107.432 241.476C107.544 241.844 107.668 242.224 107.804 242.616C107.94 243.008 108.084 243.404 108.236 243.804C108.396 244.196 108.564 244.572 108.74 244.932C108.868 244.564 108.988 244.2 109.1 243.84C109.212 243.48 109.316 243.12 109.412 242.76C109.508 242.392 109.604 242.02 109.7 241.644C109.796 241.26 109.896 240.856 110 240.432H111.032C110.776 241.472 110.488 242.48 110.168 243.456C109.856 244.432 109.52 245.336 109.16 246.168C109.024 246.488 108.876 246.764 108.716 246.996C108.564 247.228 108.396 247.42 108.212 247.572C108.028 247.724 107.82 247.836 107.588 247.908C107.356 247.98 107.092 248.016 106.796 248.016C106.644 248.016 106.476 247.996 106.292 247.956C106.116 247.916 105.996 247.88 105.932 247.848L106.112 247.044ZM61.088 255.228C61.088 254.724 61.168 254.288 61.328 253.92C61.488 253.552 61.708 253.248 61.988 253.008C62.268 252.768 62.592 252.592 62.96 252.48C63.336 252.36 63.736 252.3 64.16 252.3C64.432 252.3 64.7 252.32 64.964 252.36C65.236 252.392 65.524 252.456 65.828 252.552L65.6 253.404C65.336 253.308 65.092 253.248 64.868 253.224C64.652 253.192 64.432 253.176 64.208 253.176C63.92 253.176 63.648 253.216 63.392 253.296C63.136 253.368 62.912 253.488 62.72 253.656C62.536 253.816 62.388 254.028 62.276 254.292C62.164 254.548 62.108 254.86 62.108 255.228C62.108 255.58 62.16 255.884 62.264 256.14C62.368 256.388 62.512 256.596 62.696 256.764C62.888 256.924 63.116 257.044 63.38 257.124C63.644 257.204 63.936 257.244 64.256 257.244C64.512 257.244 64.756 257.232 64.988 257.208C65.228 257.176 65.488 257.112 65.768 257.016L65.912 257.844C65.632 257.948 65.348 258.02 65.06 258.06C64.772 258.108 64.46 258.132 64.124 258.132C63.676 258.132 63.264 258.072 62.888 257.952C62.52 257.824 62.2 257.64 61.928 257.4C61.664 257.16 61.456 256.86 61.304 256.5C61.16 256.132 61.088 255.708 61.088 255.228ZM69.56 257.292C69.808 257.292 70.028 257.284 70.22 257.268C70.42 257.252 70.584 257.232 70.712 257.208V255.552C70.584 255.512 70.428 255.48 70.244 255.456C70.068 255.432 69.88 255.42 69.68 255.42C69.496 255.42 69.316 255.436 69.14 255.468C68.964 255.492 68.808 255.54 68.672 255.612C68.536 255.684 68.424 255.78 68.336 255.9C68.248 256.012 68.204 256.156 68.204 256.332C68.204 256.692 68.324 256.944 68.564 257.088C68.812 257.224 69.144 257.292 69.56 257.292ZM69.464 252.3C69.88 252.3 70.228 252.352 70.508 252.456C70.796 252.56 71.028 252.704 71.204 252.888C71.38 253.072 71.504 253.296 71.576 253.56C71.648 253.824 71.684 254.112 71.684 254.424V257.904C71.452 257.944 71.144 257.992 70.76 258.048C70.384 258.104 69.996 258.132 69.596 258.132C69.292 258.132 68.996 258.104 68.708 258.048C68.42 258 68.164 257.912 67.94 257.784C67.716 257.648 67.536 257.464 67.4 257.232C67.264 257 67.196 256.704 67.196 256.344C67.196 256.024 67.264 255.756 67.4 255.54C67.544 255.316 67.724 255.136 67.94 255C68.164 254.864 68.416 254.768 68.696 254.712C68.984 254.648 69.272 254.616 69.56 254.616C69.952 254.616 70.336 254.66 70.712 254.748V254.472C70.712 254.304 70.692 254.144 70.652 253.992C70.62 253.832 70.552 253.688 70.448 253.56C70.352 253.432 70.216 253.332 70.04 253.26C69.872 253.18 69.652 253.14 69.38 253.14C69.036 253.14 68.736 253.164 68.48 253.212C68.224 253.26 68.028 253.308 67.892 253.356L67.772 252.54C67.908 252.476 68.132 252.42 68.444 252.372C68.764 252.324 69.104 252.3 69.464 252.3ZM76.556 258.132C76.204 258.132 75.912 258.084 75.68 257.988C75.448 257.892 75.264 257.748 75.128 257.556C74.992 257.364 74.896 257.128 74.84 256.848C74.784 256.56 74.756 256.228 74.756 255.852V250.584H73.148V249.744H75.74V255.852C75.74 256.132 75.756 256.36 75.788 256.536C75.828 256.712 75.884 256.856 75.956 256.968C76.036 257.072 76.132 257.144 76.244 257.184C76.356 257.224 76.488 257.244 76.64 257.244C76.872 257.244 77.088 257.216 77.288 257.16C77.488 257.104 77.644 257.044 77.756 256.98L77.9 257.82C77.852 257.844 77.784 257.876 77.696 257.916C77.608 257.948 77.504 257.98 77.384 258.012C77.264 258.044 77.132 258.072 76.988 258.096C76.852 258.12 76.708 258.132 76.556 258.132ZM82.556 258.132C82.204 258.132 81.912 258.084 81.68 257.988C81.448 257.892 81.264 257.748 81.128 257.556C80.992 257.364 80.896 257.128 80.84 256.848C80.784 256.56 80.756 256.228 80.756 255.852V250.584H79.148V249.744H81.74V255.852C81.74 256.132 81.756 256.36 81.788 256.536C81.828 256.712 81.884 256.856 81.956 256.968C82.036 257.072 82.132 257.144 82.244 257.184C82.356 257.224 82.488 257.244 82.64 257.244C82.872 257.244 83.088 257.216 83.288 257.16C83.488 257.104 83.644 257.044 83.756 256.98L83.9 257.82C83.852 257.844 83.784 257.876 83.696 257.916C83.608 257.948 83.504 257.98 83.384 258.012C83.264 258.044 83.132 258.072 82.988 258.096C82.852 258.12 82.708 258.132 82.556 258.132ZM87.608 252.3C88.36 252.3 88.94 252.536 89.348 253.008C89.756 253.472 89.96 254.18 89.96 255.132V255.48H85.976C86.016 256.056 86.204 256.496 86.54 256.8C86.884 257.096 87.364 257.244 87.98 257.244C88.332 257.244 88.632 257.216 88.88 257.16C89.128 257.104 89.316 257.044 89.444 256.98L89.576 257.82C89.456 257.884 89.24 257.952 88.928 258.024C88.616 258.096 88.264 258.132 87.872 258.132C87.392 258.132 86.968 258.06 86.6 257.916C86.24 257.764 85.94 257.56 85.7 257.304C85.46 257.048 85.28 256.744 85.16 256.392C85.04 256.032 84.98 255.644 84.98 255.228C84.98 254.732 85.056 254.3 85.208 253.932C85.36 253.564 85.56 253.26 85.808 253.02C86.056 252.78 86.336 252.6 86.648 252.48C86.96 252.36 87.28 252.3 87.608 252.3ZM88.952 254.676C88.952 254.204 88.828 253.832 88.58 253.56C88.332 253.28 88.004 253.14 87.596 253.14C87.364 253.14 87.152 253.184 86.96 253.272C86.776 253.36 86.616 253.476 86.48 253.62C86.344 253.764 86.236 253.928 86.156 254.112C86.076 254.296 86.024 254.484 86 254.676H88.952ZM94.652 253.608C94.54 253.504 94.376 253.408 94.16 253.32C93.944 253.224 93.72 253.176 93.488 253.176C93.224 253.176 92.996 253.228 92.804 253.332C92.62 253.436 92.468 253.58 92.348 253.764C92.228 253.94 92.14 254.156 92.084 254.412C92.028 254.66 92 254.928 92 255.216C92 255.864 92.152 256.364 92.456 256.716C92.76 257.068 93.156 257.244 93.644 257.244C93.892 257.244 94.1 257.232 94.268 257.208C94.444 257.184 94.572 257.16 94.652 257.136V253.608ZM94.652 249.852L95.648 249.684V257.844C95.432 257.908 95.156 257.972 94.82 258.036C94.484 258.1 94.092 258.132 93.644 258.132C93.244 258.132 92.88 258.064 92.552 257.928C92.224 257.792 91.944 257.6 91.712 257.352C91.48 257.096 91.3 256.788 91.172 256.428C91.044 256.068 90.98 255.664 90.98 255.216C90.98 254.784 91.032 254.392 91.136 254.04C91.248 253.68 91.408 253.372 91.616 253.116C91.824 252.86 92.072 252.66 92.36 252.516C92.656 252.372 92.992 252.3 93.368 252.3C93.664 252.3 93.924 252.336 94.148 252.408C94.372 252.48 94.54 252.556 94.652 252.636V249.852Z" fill="#67AEE7"/>
<path d="M177.02 242.28C177.02 242.968 176.932 243.552 176.756 244.032C176.588 244.512 176.352 244.904 176.048 245.208C175.752 245.504 175.396 245.72 174.98 245.856C174.572 245.992 174.128 246.06 173.648 246.06C173.152 246.06 172.652 246 172.148 245.88V238.68C172.652 238.56 173.152 238.5 173.648 238.5C174.128 238.5 174.572 238.568 174.98 238.704C175.396 238.84 175.752 239.06 176.048 239.364C176.352 239.668 176.588 240.06 176.756 240.54C176.932 241.02 177.02 241.6 177.02 242.28ZM173.132 245.172C173.332 245.196 173.536 245.208 173.744 245.208C174.104 245.208 174.424 245.156 174.704 245.052C174.984 244.94 175.22 244.768 175.412 244.536C175.604 244.296 175.752 243.992 175.856 243.624C175.96 243.248 176.012 242.8 176.012 242.28C176.012 241.272 175.816 240.532 175.424 240.06C175.04 239.588 174.468 239.352 173.708 239.352C173.604 239.352 173.5 239.356 173.396 239.364C173.3 239.364 173.212 239.372 173.132 239.388V245.172ZM180.608 240.3C181.36 240.3 181.94 240.536 182.348 241.008C182.756 241.472 182.96 242.18 182.96 243.132V243.48H178.976C179.016 244.056 179.204 244.496 179.54 244.8C179.884 245.096 180.364 245.244 180.98 245.244C181.332 245.244 181.632 245.216 181.88 245.16C182.128 245.104 182.316 245.044 182.444 244.98L182.576 245.82C182.456 245.884 182.24 245.952 181.928 246.024C181.616 246.096 181.264 246.132 180.872 246.132C180.392 246.132 179.968 246.06 179.6 245.916C179.24 245.764 178.94 245.56 178.7 245.304C178.46 245.048 178.28 244.744 178.16 244.392C178.04 244.032 177.98 243.644 177.98 243.228C177.98 242.732 178.056 242.3 178.208 241.932C178.36 241.564 178.56 241.26 178.808 241.02C179.056 240.78 179.336 240.6 179.648 240.48C179.96 240.36 180.28 240.3 180.608 240.3ZM181.952 242.676C181.952 242.204 181.828 241.832 181.58 241.56C181.332 241.28 181.004 241.14 180.596 241.14C180.364 241.14 180.152 241.184 179.96 241.272C179.776 241.36 179.616 241.476 179.48 241.62C179.344 241.764 179.236 241.928 179.156 242.112C179.076 242.296 179.024 242.484 179 242.676H181.952ZM184.352 240.588C184.712 240.5 185.068 240.432 185.42 240.384C185.78 240.336 186.116 240.312 186.428 240.312C187.172 240.312 187.732 240.504 188.108 240.888C188.492 241.272 188.684 241.888 188.684 242.736V246H187.7V242.916C187.7 242.556 187.668 242.264 187.604 242.04C187.54 241.816 187.448 241.644 187.328 241.524C187.216 241.396 187.076 241.308 186.908 241.26C186.748 241.212 186.572 241.188 186.38 241.188C186.22 241.188 186.048 241.2 185.864 241.224C185.688 241.24 185.516 241.264 185.348 241.296V246H184.352V240.588ZM192.008 239.568C191.8 239.568 191.62 239.496 191.468 239.352C191.316 239.208 191.24 239.012 191.24 238.764C191.24 238.516 191.316 238.32 191.468 238.176C191.62 238.032 191.8 237.96 192.008 237.96C192.224 237.96 192.404 238.032 192.548 238.176C192.7 238.32 192.776 238.516 192.776 238.764C192.776 239.012 192.7 239.208 192.548 239.352C192.404 239.496 192.224 239.568 192.008 239.568ZM191.756 241.26H190.148V240.432H192.74V243.852C192.74 244.404 192.816 244.776 192.968 244.968C193.12 245.152 193.348 245.244 193.652 245.244C193.884 245.244 194.096 245.216 194.288 245.16C194.488 245.104 194.644 245.044 194.756 244.98L194.9 245.82C194.852 245.844 194.784 245.876 194.696 245.916C194.608 245.948 194.504 245.98 194.384 246.012C194.272 246.044 194.144 246.072 194 246.096C193.864 246.12 193.72 246.132 193.568 246.132C193.216 246.132 192.924 246.084 192.692 245.988C192.46 245.892 192.272 245.748 192.128 245.556C191.992 245.364 191.896 245.128 191.84 244.848C191.784 244.56 191.756 244.228 191.756 243.852V241.26ZM198.608 240.3C199.36 240.3 199.94 240.536 200.348 241.008C200.756 241.472 200.96 242.18 200.96 243.132V243.48H196.976C197.016 244.056 197.204 244.496 197.54 244.8C197.884 245.096 198.364 245.244 198.98 245.244C199.332 245.244 199.632 245.216 199.88 245.16C200.128 245.104 200.316 245.044 200.444 244.98L200.576 245.82C200.456 245.884 200.24 245.952 199.928 246.024C199.616 246.096 199.264 246.132 198.872 246.132C198.392 246.132 197.968 246.06 197.6 245.916C197.24 245.764 196.94 245.56 196.7 245.304C196.46 245.048 196.28 244.744 196.16 244.392C196.04 244.032 195.98 243.644 195.98 243.228C195.98 242.732 196.056 242.3 196.208 241.932C196.36 241.564 196.56 241.26 196.808 241.02C197.056 240.78 197.336 240.6 197.648 240.48C197.96 240.36 198.28 240.3 198.608 240.3ZM199.952 242.676C199.952 242.204 199.828 241.832 199.58 241.56C199.332 241.28 199.004 241.14 198.596 241.14C198.364 241.14 198.152 241.184 197.96 241.272C197.776 241.36 197.616 241.476 197.48 241.62C197.344 241.764 197.236 241.928 197.156 242.112C197.076 242.296 197.024 242.484 197 242.676H199.952ZM205.652 241.608C205.54 241.504 205.376 241.408 205.16 241.32C204.944 241.224 204.72 241.176 204.488 241.176C204.224 241.176 203.996 241.228 203.804 241.332C203.62 241.436 203.468 241.58 203.348 241.764C203.228 241.94 203.14 242.156 203.084 242.412C203.028 242.66 203 242.928 203 243.216C203 243.864 203.152 244.364 203.456 244.716C203.76 245.068 204.156 245.244 204.644 245.244C204.892 245.244 205.1 245.232 205.268 245.208C205.444 245.184 205.572 245.16 205.652 245.136V241.608ZM205.652 237.852L206.648 237.684V245.844C206.432 245.908 206.156 245.972 205.82 246.036C205.484 246.1 205.092 246.132 204.644 246.132C204.244 246.132 203.88 246.064 203.552 245.928C203.224 245.792 202.944 245.6 202.712 245.352C202.48 245.096 202.3 244.788 202.172 244.428C202.044 244.068 201.98 243.664 201.98 243.216C201.98 242.784 202.032 242.392 202.136 242.04C202.248 241.68 202.408 241.372 202.616 241.116C202.824 240.86 203.072 240.66 203.36 240.516C203.656 240.372 203.992 240.3 204.368 240.3C204.664 240.3 204.924 240.336 205.148 240.408C205.372 240.48 205.54 240.556 205.652 240.636V237.852ZM175.088 255.228C175.088 254.724 175.168 254.288 175.328 253.92C175.488 253.552 175.708 253.248 175.988 253.008C176.268 252.768 176.592 252.592 176.96 252.48C177.336 252.36 177.736 252.3 178.16 252.3C178.432 252.3 178.7 252.32 178.964 252.36C179.236 252.392 179.524 252.456 179.828 252.552L179.6 253.404C179.336 253.308 179.092 253.248 178.868 253.224C178.652 253.192 178.432 253.176 178.208 253.176C177.92 253.176 177.648 253.216 177.392 253.296C177.136 253.368 176.912 253.488 176.72 253.656C176.536 253.816 176.388 254.028 176.276 254.292C176.164 254.548 176.108 254.86 176.108 255.228C176.108 255.58 176.16 255.884 176.264 256.14C176.368 256.388 176.512 256.596 176.696 256.764C176.888 256.924 177.116 257.044 177.38 257.124C177.644 257.204 177.936 257.244 178.256 257.244C178.512 257.244 178.756 257.232 178.988 257.208C179.228 257.176 179.488 257.112 179.768 257.016L179.912 257.844C179.632 257.948 179.348 258.02 179.06 258.06C178.772 258.108 178.46 258.132 178.124 258.132C177.676 258.132 177.264 258.072 176.888 257.952C176.52 257.824 176.2 257.64 175.928 257.4C175.664 257.16 175.456 256.86 175.304 256.5C175.16 256.132 175.088 255.708 175.088 255.228ZM183.56 257.292C183.808 257.292 184.028 257.284 184.22 257.268C184.42 257.252 184.584 257.232 184.712 257.208V255.552C184.584 255.512 184.428 255.48 184.244 255.456C184.068 255.432 183.88 255.42 183.68 255.42C183.496 255.42 183.316 255.436 183.14 255.468C182.964 255.492 182.808 255.54 182.672 255.612C182.536 255.684 182.424 255.78 182.336 255.9C182.248 256.012 182.204 256.156 182.204 256.332C182.204 256.692 182.324 256.944 182.564 257.088C182.812 257.224 183.144 257.292 183.56 257.292ZM183.464 252.3C183.88 252.3 184.228 252.352 184.508 252.456C184.796 252.56 185.028 252.704 185.204 252.888C185.38 253.072 185.504 253.296 185.576 253.56C185.648 253.824 185.684 254.112 185.684 254.424V257.904C185.452 257.944 185.144 257.992 184.76 258.048C184.384 258.104 183.996 258.132 183.596 258.132C183.292 258.132 182.996 258.104 182.708 258.048C182.42 258 182.164 257.912 181.94 257.784C181.716 257.648 181.536 257.464 181.4 257.232C181.264 257 181.196 256.704 181.196 256.344C181.196 256.024 181.264 255.756 181.4 255.54C181.544 255.316 181.724 255.136 181.94 255C182.164 254.864 182.416 254.768 182.696 254.712C182.984 254.648 183.272 254.616 183.56 254.616C183.952 254.616 184.336 254.66 184.712 254.748V254.472C184.712 254.304 184.692 254.144 184.652 253.992C184.62 253.832 184.552 253.688 184.448 253.56C184.352 253.432 184.216 253.332 184.04 253.26C183.872 253.18 183.652 253.14 183.38 253.14C183.036 253.14 182.736 253.164 182.48 253.212C182.224 253.26 182.028 253.308 181.892 253.356L181.772 252.54C181.908 252.476 182.132 252.42 182.444 252.372C182.764 252.324 183.104 252.3 183.464 252.3ZM190.556 258.132C190.204 258.132 189.912 258.084 189.68 257.988C189.448 257.892 189.264 257.748 189.128 257.556C188.992 257.364 188.896 257.128 188.84 256.848C188.784 256.56 188.756 256.228 188.756 255.852V250.584H187.148V249.744H189.74V255.852C189.74 256.132 189.756 256.36 189.788 256.536C189.828 256.712 189.884 256.856 189.956 256.968C190.036 257.072 190.132 257.144 190.244 257.184C190.356 257.224 190.488 257.244 190.64 257.244C190.872 257.244 191.088 257.216 191.288 257.16C191.488 257.104 191.644 257.044 191.756 256.98L191.9 257.82C191.852 257.844 191.784 257.876 191.696 257.916C191.608 257.948 191.504 257.98 191.384 258.012C191.264 258.044 191.132 258.072 190.988 258.096C190.852 258.12 190.708 258.132 190.556 258.132ZM196.556 258.132C196.204 258.132 195.912 258.084 195.68 257.988C195.448 257.892 195.264 257.748 195.128 257.556C194.992 257.364 194.896 257.128 194.84 256.848C194.784 256.56 194.756 256.228 194.756 255.852V250.584H193.148V249.744H195.74V255.852C195.74 256.132 195.756 256.36 195.788 256.536C195.828 256.712 195.884 256.856 195.956 256.968C196.036 257.072 196.132 257.144 196.244 257.184C196.356 257.224 196.488 257.244 196.64 257.244C196.872 257.244 197.088 257.216 197.288 257.16C197.488 257.104 197.644 257.044 197.756 256.98L197.9 257.82C197.852 257.844 197.784 257.876 197.696 257.916C197.608 257.948 197.504 257.98 197.384 258.012C197.264 258.044 197.132 258.072 196.988 258.096C196.852 258.12 196.708 258.132 196.556 258.132ZM202.712 256.608C202.712 256.408 202.628 256.244 202.46 256.116C202.3 255.988 202.096 255.876 201.848 255.78C201.608 255.684 201.344 255.592 201.056 255.504C200.768 255.408 200.5 255.292 200.252 255.156C200.012 255.02 199.808 254.852 199.64 254.652C199.48 254.452 199.4 254.192 199.4 253.872C199.4 253.424 199.58 253.052 199.94 252.756C200.308 252.452 200.88 252.3 201.656 252.3C201.96 252.3 202.272 252.324 202.592 252.372C202.92 252.412 203.2 252.468 203.432 252.54L203.252 253.428C203.188 253.396 203.1 253.364 202.988 253.332C202.876 253.292 202.748 253.26 202.604 253.236C202.46 253.204 202.304 253.18 202.136 253.164C201.976 253.148 201.82 253.14 201.668 253.14C200.804 253.14 200.372 253.376 200.372 253.848C200.372 254.016 200.452 254.16 200.612 254.28C200.78 254.392 200.988 254.496 201.236 254.592C201.484 254.688 201.752 254.788 202.04 254.892C202.328 254.988 202.596 255.108 202.844 255.252C203.092 255.396 203.296 255.572 203.456 255.78C203.624 255.98 203.708 256.236 203.708 256.548C203.708 257.052 203.512 257.444 203.12 257.724C202.728 257.996 202.108 258.132 201.26 258.132C200.876 258.132 200.524 258.1 200.204 258.036C199.884 257.972 199.58 257.876 199.292 257.748L199.484 256.848C199.764 256.976 200.056 257.084 200.36 257.172C200.672 257.252 201.004 257.292 201.356 257.292C202.26 257.292 202.712 257.064 202.712 256.608Z" fill="#C66060"/>
<path d="M676.354 284.354C676.549 284.158 676.549 283.842 676.354 283.647L673.172 280.465C672.976 280.269 672.66 280.269 672.464 280.465C672.269 280.66 672.269 280.976 672.464 281.172L675.293 284L672.464 286.828C672.269 287.024 672.269 287.34 672.464 287.536C672.66 287.731 672.976 287.731 673.172 287.536L676.354 284.354ZM64 284.5L676 284.5L676 283.5L64 283.5L64 284.5Z" fill="black"/>
<path d="M363.532 271.572V272.412H361.492V279H360.508V272.412H358.468V271.572H363.532ZM366.508 272.568C366.3 272.568 366.12 272.496 365.968 272.352C365.816 272.208 365.74 272.012 365.74 271.764C365.74 271.516 365.816 271.32 365.968 271.176C366.12 271.032 366.3 270.96 366.508 270.96C366.724 270.96 366.904 271.032 367.048 271.176C367.2 271.32 367.276 271.516 367.276 271.764C367.276 272.012 367.2 272.208 367.048 272.352C366.904 272.496 366.724 272.568 366.508 272.568ZM366.256 274.26H364.648V273.432H367.24V276.852C367.24 277.404 367.316 277.776 367.468 277.968C367.62 278.152 367.848 278.244 368.152 278.244C368.384 278.244 368.596 278.216 368.788 278.16C368.988 278.104 369.144 278.044 369.256 277.98L369.4 278.82C369.352 278.844 369.284 278.876 369.196 278.916C369.108 278.948 369.004 278.98 368.884 279.012C368.772 279.044 368.644 279.072 368.5 279.096C368.364 279.12 368.22 279.132 368.068 279.132C367.716 279.132 367.424 279.084 367.192 278.988C366.96 278.892 366.772 278.748 366.628 278.556C366.492 278.364 366.396 278.128 366.34 277.848C366.284 277.56 366.256 277.228 366.256 276.852V274.26ZM370.492 273.588C370.972 273.404 371.424 273.312 371.848 273.312C372.08 273.312 372.296 273.348 372.496 273.42C372.704 273.484 372.88 273.588 373.024 273.732C373.368 273.452 373.736 273.312 374.128 273.312C374.32 273.312 374.5 273.348 374.668 273.42C374.844 273.492 374.996 273.6 375.124 273.744C375.26 273.888 375.368 274.068 375.448 274.284C375.528 274.5 375.568 274.752 375.568 275.04V279H374.668V275.016C374.668 274.728 374.604 274.508 374.476 274.356C374.348 274.204 374.188 274.128 373.996 274.128C373.9 274.128 373.8 274.152 373.696 274.2C373.592 274.248 373.496 274.324 373.408 274.428C373.456 274.612 373.48 274.816 373.48 275.04V276.852H372.58V275.028C372.58 274.748 372.536 274.528 372.448 274.368C372.36 274.208 372.188 274.128 371.932 274.128C371.772 274.128 371.592 274.164 371.392 274.236V279H370.492V273.588ZM379.108 273.3C379.86 273.3 380.44 273.536 380.848 274.008C381.256 274.472 381.46 275.18 381.46 276.132V276.48H377.476C377.516 277.056 377.704 277.496 378.04 277.8C378.384 278.096 378.864 278.244 379.48 278.244C379.832 278.244 380.132 278.216 380.38 278.16C380.628 278.104 380.816 278.044 380.944 277.98L381.076 278.82C380.956 278.884 380.74 278.952 380.428 279.024C380.116 279.096 379.764 279.132 379.372 279.132C378.892 279.132 378.468 279.06 378.1 278.916C377.74 278.764 377.44 278.56 377.2 278.304C376.96 278.048 376.78 277.744 376.66 277.392C376.54 277.032 376.48 276.644 376.48 276.228C376.48 275.732 376.556 275.3 376.708 274.932C376.86 274.564 377.06 274.26 377.308 274.02C377.556 273.78 377.836 273.6 378.148 273.48C378.46 273.36 378.78 273.3 379.108 273.3ZM380.452 275.676C380.452 275.204 380.328 274.832 380.08 274.56C379.832 274.28 379.504 274.14 379.096 274.14C378.864 274.14 378.652 274.184 378.46 274.272C378.276 274.36 378.116 274.476 377.98 274.62C377.844 274.764 377.736 274.928 377.656 275.112C377.576 275.296 377.524 275.484 377.5 275.676H380.452Z" fill="black"/>
<line x1="235" y1="158.5" x2="267" y2="158.5" stroke="#5A6770"/>
<line x1="234.5" y1="158" x2="234.5" y2="165" stroke="#5A6770"/>
<line x1="267.5" y1="158" x2="267.5" y2="165" stroke="#5A6770"/>
<path d="M251 158.5C251 146.1 251 141.667 251 141" stroke="#5A6770"/>
<path d="M238.448 139.06C238.328 139.06 238.188 139.056 238.028 139.048C237.868 139.04 237.708 139.028 237.548 139.012C237.388 139.004 237.228 138.988 237.068 138.964C236.908 138.94 236.768 138.912 236.648 138.88V131.68C236.768 131.648 236.904 131.62 237.056 131.596C237.216 131.572 237.376 131.556 237.536 131.548C237.704 131.532 237.864 131.52 238.016 131.512C238.176 131.504 238.32 131.5 238.448 131.5C238.816 131.5 239.16 131.532 239.48 131.596C239.8 131.66 240.076 131.768 240.308 131.92C240.548 132.072 240.732 132.272 240.86 132.52C240.996 132.768 241.064 133.076 241.064 133.444C241.064 133.62 241.036 133.792 240.98 133.96C240.924 134.12 240.844 134.272 240.74 134.416C240.644 134.56 240.528 134.688 240.392 134.8C240.264 134.904 240.124 134.984 239.972 135.04C240.38 135.152 240.72 135.36 240.992 135.664C241.272 135.96 241.412 136.348 241.412 136.828C241.412 137.564 241.176 138.12 240.704 138.496C240.232 138.872 239.48 139.06 238.448 139.06ZM237.632 135.532V138.184C237.648 138.192 237.736 138.204 237.896 138.22C238.064 138.228 238.272 138.232 238.52 138.232C238.768 138.232 239.004 138.212 239.228 138.172C239.46 138.132 239.664 138.06 239.84 137.956C240.016 137.844 240.156 137.7 240.26 137.524C240.372 137.348 240.428 137.12 240.428 136.84C240.428 136.592 240.376 136.384 240.272 136.216C240.176 136.048 240.044 135.916 239.876 135.82C239.716 135.716 239.528 135.644 239.312 135.604C239.096 135.556 238.872 135.532 238.64 135.532H237.632ZM237.632 134.716H238.412C238.612 134.716 238.812 134.696 239.012 134.656C239.212 134.616 239.392 134.552 239.552 134.464C239.712 134.376 239.84 134.256 239.936 134.104C240.032 133.952 240.08 133.76 240.08 133.528C240.08 133.312 240.036 133.128 239.948 132.976C239.86 132.824 239.744 132.7 239.6 132.604C239.456 132.508 239.288 132.44 239.096 132.4C238.912 132.36 238.716 132.34 238.508 132.34C238.3 132.34 238.116 132.344 237.956 132.352C237.804 132.352 237.696 132.36 237.632 132.376V134.716ZM247.148 138.844C246.932 138.9 246.644 138.96 246.284 139.024C245.932 139.088 245.516 139.12 245.036 139.12C244.612 139.12 244.26 139.06 243.98 138.94C243.7 138.812 243.472 138.636 243.296 138.412C243.12 138.18 242.996 137.908 242.924 137.596C242.852 137.284 242.816 136.94 242.816 136.564V133.432H243.8V136.348C243.8 137.036 243.9 137.524 244.1 137.812C244.308 138.1 244.652 138.244 245.132 138.244C245.236 138.244 245.34 138.24 245.444 138.232C245.556 138.224 245.66 138.216 245.756 138.208C245.852 138.192 245.936 138.18 246.008 138.172C246.08 138.156 246.128 138.144 246.152 138.136V133.432H247.148V138.844ZM249.284 139V133.732C250.1 133.452 250.924 133.312 251.756 133.312C252.012 133.312 252.256 133.324 252.488 133.348C252.72 133.364 252.976 133.404 253.256 133.468L253.076 134.344C252.82 134.272 252.592 134.228 252.392 134.212C252.2 134.188 251.988 134.176 251.756 134.176C251.268 134.176 250.772 134.244 250.268 134.38V139H249.284ZM258.212 137.608C258.212 137.408 258.128 137.244 257.96 137.116C257.8 136.988 257.596 136.876 257.348 136.78C257.108 136.684 256.844 136.592 256.556 136.504C256.268 136.408 256 136.292 255.752 136.156C255.512 136.02 255.308 135.852 255.14 135.652C254.98 135.452 254.9 135.192 254.9 134.872C254.9 134.424 255.08 134.052 255.44 133.756C255.808 133.452 256.38 133.3 257.156 133.3C257.46 133.3 257.772 133.324 258.092 133.372C258.42 133.412 258.7 133.468 258.932 133.54L258.752 134.428C258.688 134.396 258.6 134.364 258.488 134.332C258.376 134.292 258.248 134.26 258.104 134.236C257.96 134.204 257.804 134.18 257.636 134.164C257.476 134.148 257.32 134.14 257.168 134.14C256.304 134.14 255.872 134.376 255.872 134.848C255.872 135.016 255.952 135.16 256.112 135.28C256.28 135.392 256.488 135.496 256.736 135.592C256.984 135.688 257.252 135.788 257.54 135.892C257.828 135.988 258.096 136.108 258.344 136.252C258.592 136.396 258.796 136.572 258.956 136.78C259.124 136.98 259.208 137.236 259.208 137.548C259.208 138.052 259.012 138.444 258.62 138.724C258.228 138.996 257.608 139.132 256.76 139.132C256.376 139.132 256.024 139.1 255.704 139.036C255.384 138.972 255.08 138.876 254.792 138.748L254.984 137.848C255.264 137.976 255.556 138.084 255.86 138.172C256.172 138.252 256.504 138.292 256.856 138.292C257.76 138.292 258.212 138.064 258.212 137.608ZM262.916 133.432H265.268V134.26H262.916V136.852C262.916 137.132 262.936 137.36 262.976 137.536C263.016 137.712 263.08 137.856 263.168 137.968C263.264 138.072 263.384 138.144 263.528 138.184C263.672 138.224 263.848 138.244 264.056 138.244C264.344 138.244 264.576 138.22 264.752 138.172C264.928 138.124 265.096 138.06 265.256 137.98L265.4 138.82C265.288 138.868 265.108 138.932 264.86 139.012C264.62 139.092 264.32 139.132 263.96 139.132C263.544 139.132 263.204 139.084 262.94 138.988C262.676 138.892 262.468 138.748 262.316 138.556C262.172 138.364 262.072 138.128 262.016 137.848C261.96 137.56 261.932 137.228 261.932 136.852V134.26H260.756V133.432H261.932V131.872L262.916 131.704V133.432Z" fill="#5A6770"/>
</svg>
